<svg width="431" height="339" viewBox="0 0 431 339" fill="none" xmlns="http://www.w3.org/2000/svg">
    <path d="M20.2812 214.401C18.8932 218.546 16.3225 226.206 17.6279 232.744C19.3799 241.516 24.6185 246.69 34.4532 248.716C44.5505 250.797 54.5919 249.384 64.5745 247.778C65.1932 247.68 66.8679 247.188 66.8679 247.188C66.8679 247.188 65.5465 244.586 65.0385 243.484C58.7465 229.842 53.9145 215.75 51.5479 200.878C42.3679 143.193 58.1772 93.3838 99.3345 51.9838C124.551 26.6198 155.371 11.0891 190.655 6.25714C246.296 -1.36286 294.797 14.3985 335.119 54.0798C336.712 55.6491 338.808 58.2065 338.808 58.2065L310.217 86.0318C310.217 86.0318 308.413 84.2865 307.364 83.3278C288.069 65.6998 265.449 54.5011 239.619 50.8118C201.347 45.3465 166.88 54.9385 137.115 79.7371C111.956 100.7 97.1159 127.834 92.2305 160.132C88.4719 184.98 92.2519 208.949 102.425 231.974C103.293 233.936 104.785 236.866 104.785 236.866C104.785 236.866 107.776 235.614 109.695 234.869C157.584 216.25 201.641 190.693 243.563 161.25C287.503 130.392 327.828 95.4011 364.075 55.7371C365.193 54.5131 366.632 52.5491 366.632 52.5491C366.632 52.5491 343.057 31.4985 342.683 30.6625C371.792 20.6505 400.845 10.6585 431 0.287797C424.963 31.3371 419.076 61.6145 413.031 92.7078C407.073 87.5998 392.469 74.7945 392.469 74.7945C392.469 74.7945 390.253 76.9878 388.768 78.6798C349.929 122.957 305.817 161.258 256.847 193.91C207.977 226.493 156.196 253.11 99.3772 269.085C81.9865 273.974 64.2812 277.224 46.2092 278.096C37.1479 278.534 28.1999 277.518 19.4239 275.068C4.00387 270.762 -2.53346 259.937 1.93454 244.658C5.33987 233.006 11.1332 222.698 20.2812 214.401Z" fill="#97C63D"/>
    <path d="M344.186 215.129C352.891 220.148 372.277 231.09 372.277 231.09C372.277 231.09 371.353 233.569 370.539 235.51C358.39 264.466 339.665 288.3 314.285 306.764C283.522 329.142 248.867 339.777 210.985 338.622C169.245 337.348 132.859 322.134 102.045 293.833C100.449 292.369 95.7634 287.704 95.7634 287.704C108.147 284.234 122.857 279.958 134.697 275.537C134.697 275.537 136.385 276.84 137.937 278.125C158.194 294.916 181.542 304.853 207.607 307.189C241.802 310.252 272.935 301.374 300.103 279.986C320.783 263.709 335.015 242.852 343.293 217.901C343.559 217.097 343.814 216.288 344.186 215.129" fill="#333B42"/>
</svg>