<svg width="862" height="123" viewBox="0 0 862 123" fill="none" xmlns="http://www.w3.org/2000/svg">
    <path d="M7.724 77.8151C7.22 79.3218 6.28533 82.1044 6.76 84.4804C7.396 87.6684 9.3 89.5484 12.8733 90.2858C16.5427 91.0404 20.192 90.5271 23.8187 89.9444C24.044 89.9071 24.6533 89.7298 24.6533 89.7298C24.6533 89.7298 24.172 88.7844 23.988 88.3831C21.7013 83.4258 19.9467 78.3044 19.0853 72.9004C15.7507 51.9391 21.4947 33.8391 36.4507 18.7938C45.6133 9.57643 56.8133 3.93376 69.636 2.17776C89.8547 -0.591578 107.479 5.13643 122.132 19.5564C122.711 20.1258 123.472 21.0551 123.472 21.0551L113.084 31.1671C113.084 31.1671 112.427 30.5324 112.045 30.1844C105.035 23.7791 96.8147 19.7084 87.428 18.3684C73.5213 16.3831 60.996 19.8684 50.18 28.8791C41.0373 36.4978 35.644 46.3578 33.8693 58.0938C32.5027 67.1231 33.8773 75.8338 37.5747 84.2004C37.8893 84.9138 38.432 85.9778 38.432 85.9778C38.432 85.9778 39.5187 85.5231 40.216 85.2524C57.6173 78.4871 73.628 69.1991 88.8613 58.5004C104.829 47.2871 119.483 34.5711 132.655 20.1578C133.06 19.7138 133.584 19.0004 133.584 19.0004C133.584 19.0004 125.016 11.3498 124.881 11.0458C135.459 7.40842 146.016 3.77776 156.975 0.00842378C154.78 11.2911 152.641 22.2938 150.444 33.5924C148.28 31.7364 142.972 27.0831 142.972 27.0831C142.972 27.0831 142.168 27.8804 141.628 28.4951C127.515 44.5844 111.484 58.5031 93.6893 70.3684C75.9307 82.2098 57.1133 91.8818 36.4667 97.6858C30.1467 99.4618 23.7133 100.644 17.1453 100.96C13.8533 101.12 10.6013 100.751 7.41333 99.8604C1.808 98.2951 -0.56667 94.3618 1.05733 88.8098C2.29466 84.5751 4.39866 80.8298 7.724 77.8151" fill="#97C63D"/>
    <path d="M125.427 78.0795C128.591 79.9035 135.635 83.8795 135.635 83.8795C135.635 83.8795 135.299 84.7795 135.003 85.4861C130.588 96.0075 123.784 104.669 114.562 111.379C103.382 119.51 90.7884 123.375 77.0231 122.955C61.8551 122.493 48.6337 116.963 37.4351 106.679C36.8551 106.147 35.1524 104.451 35.1524 104.451C39.6537 103.191 44.9991 101.638 49.3004 100.031C49.3004 100.031 49.9151 100.503 50.4791 100.971C57.8404 107.073 66.3244 110.683 75.7964 111.533C88.2217 112.646 99.5351 109.419 109.408 101.647C116.923 95.7315 122.094 88.1541 125.102 79.0875C125.199 78.7941 125.291 78.4995 125.427 78.0795Z" fill="#333B42"/>
    <path d="M219.167 96.7956V63.6276H256.035V52.9996H219.167V26.0583H280.103V15.4316H207.897H207.881V107.422H207.897H283.715V96.7956H219.167Z" fill="#333B42"/>
    <path d="M685.171 96.7956V15.4316H673.901H673.885V107.422H673.901H685.171H745.371V96.7956H685.171Z" fill="#333B42"/>
    <path d="M401.141 15.431L364.655 71.871L328.169 15.431H316.981V107.422H328.169V35.919L364.622 89.8537V89.951L364.655 89.903L364.687 89.951V89.8537L401.141 35.919V107.422H412.329V15.431H401.141Z" fill="#333B42"/>
    <path d="M524.075 47.1459C522.27 52.5126 518.078 54.9886 512.825 56.0419C511.634 56.2819 510.431 56.4512 509.222 56.5019H466.367V26.0579H509.222C509.542 26.0619 509.862 26.1326 510.181 26.1379C517.226 26.2326 522.657 30.3352 524.354 36.6912C525.289 40.1926 525.227 43.7179 524.075 47.1459ZM523.498 18.5992C518.949 16.4446 514.121 15.5952 509.222 15.4312H466.367H456.11H455.179V107.422H466.367V67.1272H509.222C511.003 67.0766 512.783 66.9872 514.559 66.7379C521.171 65.8179 526.782 63.0606 531.053 57.8152C534.709 53.3286 536.349 48.0672 536.689 42.4099C537.27 32.7539 533.837 23.4952 523.498 18.5992" fill="#333B42"/>
    <path d="M598.883 15.431H588.108L543.709 107.37H556.74L593.495 30.9883L630.388 107.37H643.281L598.883 15.431Z" fill="#333B42"/>
    <path d="M817.255 15.431H806.481L762.082 107.37H775.113L811.867 30.9883L848.761 107.37H861.654L817.255 15.431Z" fill="#333B42"/>
</svg>