<svg width="862" height="193" viewBox="0 0 862 193" fill="none" xmlns="http://www.w3.org/2000/svg">
    <path d="M7.724 78.1484C7.22 79.6551 6.28533 82.4378 6.76 84.8138C7.396 88.0018 9.3 89.8818 12.8733 90.6178C16.5427 91.3738 20.192 90.8604 23.8187 90.2778C24.044 90.2404 24.6533 90.0618 24.6533 90.0618C24.6533 90.0618 24.172 89.1164 23.988 88.7164C21.7013 83.7591 19.9467 78.6378 19.0853 73.2338C15.7507 52.2724 21.4947 34.1725 36.4507 19.1271C45.6133 9.90979 56.8133 4.26711 69.636 2.51111C89.8547 -0.258219 107.479 5.46979 122.132 19.8898C122.711 20.4591 123.472 21.3885 123.472 21.3885L113.084 31.5005C113.084 31.5005 112.427 30.8658 112.045 30.5178C105.035 24.1125 96.8147 20.0418 87.428 18.7018C73.5213 16.7165 60.996 20.2018 50.18 29.2125C41.0373 36.8311 35.644 46.6911 33.8693 58.4271C32.5027 67.4564 33.8773 76.1671 37.5747 84.5338C37.8893 85.2471 38.432 86.3111 38.432 86.3111C38.432 86.3111 39.5187 85.8564 40.216 85.5858C57.6173 78.8204 73.628 69.5324 88.8613 58.8338C104.829 47.6204 119.483 34.9045 132.655 20.4911C133.06 20.0471 133.584 19.3338 133.584 19.3338C133.584 19.3338 125.016 11.6831 124.881 11.3791C135.459 7.74178 146.016 4.11112 156.975 0.341783C154.78 11.6244 152.641 22.6271 150.444 33.9258C148.28 32.0698 142.972 27.4165 142.972 27.4165C142.972 27.4165 142.168 28.2138 141.628 28.8284C127.515 44.9178 111.484 58.8364 93.6893 70.7018C75.9307 82.5418 57.1133 92.2151 36.4667 98.0191C30.1467 99.7951 23.7133 100.978 17.1453 101.294C13.8533 101.454 10.6013 101.084 7.41333 100.194C1.808 98.6284 -0.56667 94.6951 1.05733 89.1431C2.29466 84.9084 4.39866 81.1631 7.724 78.1484" fill="#97C63D"/>
    <path d="M125.427 78.4128C128.591 80.2368 135.635 84.2128 135.635 84.2128C135.635 84.2128 135.299 85.1142 135.003 85.8195C130.588 96.3408 123.784 105.002 114.562 111.713C103.382 119.843 90.7883 123.709 77.023 123.289C61.855 122.826 48.6337 117.297 37.435 107.013C36.855 106.481 35.1523 104.785 35.1523 104.785C39.6537 103.525 44.999 101.971 49.3003 100.365C49.3003 100.365 49.915 100.837 50.479 101.305C57.8403 107.406 66.3243 111.017 75.7963 111.866C88.2217 112.979 99.535 109.753 109.408 101.981C116.923 96.0662 122.094 88.4875 125.102 79.4195C125.199 79.1275 125.291 78.8342 125.427 78.4128Z" fill="#333B42"/>
    <path d="M219.167 97.1283V63.9603H256.035V53.3336H219.167V26.3909H280.103V15.7643H207.897H207.881V107.755H207.897H283.715V97.1283H219.167Z" fill="#333B42"/>
    <path d="M685.171 97.1283V15.7643H673.901H673.885V107.755H673.901H685.171H745.371V97.1283H685.171Z" fill="#333B42"/>
    <path d="M401.141 15.7643L364.655 72.2043L328.169 15.7643H316.981V107.755H328.169V36.2523L364.622 90.187V90.2843L364.655 90.2363L364.687 90.2843V90.187L401.141 36.2523V107.755H412.329V15.7643H401.141Z" fill="#333B42"/>
    <path d="M524.075 47.4793C522.27 52.8459 518.078 55.3219 512.825 56.3753C511.634 56.6153 510.431 56.7846 509.222 56.8352H466.367V26.3913H509.222C509.542 26.3953 509.862 26.4659 510.181 26.4713C517.226 26.5659 522.657 30.6686 524.354 37.0246C525.289 40.5259 525.227 44.0513 524.075 47.4793ZM523.498 18.9326C518.949 16.7779 514.121 15.9286 509.222 15.7646H466.367H456.11H455.179V107.755H466.367V67.4619H509.222C511.003 67.4099 512.783 67.3193 514.559 67.0726C521.171 66.1499 526.782 63.3939 531.053 58.1486C534.709 53.6619 536.349 48.4006 536.689 42.7432C537.27 33.0872 533.837 23.8286 523.498 18.9326" fill="#333B42"/>
    <path d="M598.883 15.7643H588.108L543.709 107.703H556.74L593.495 31.3217L630.388 107.703H643.281L598.883 15.7643Z" fill="#333B42"/>
    <path d="M817.255 15.7643H806.481L762.082 107.703H775.113L811.867 31.3217L848.761 107.703H861.654L817.255 15.7643Z" fill="#333B42"/>
    <path d="M514.079 159.41C504.983 159.41 500.281 166.105 500.281 173.923C500.281 181.181 504.675 188.231 514.079 188.231C523.481 188.231 527.722 180.977 527.722 173.923C527.774 166.667 523.43 159.513 514.079 159.41ZM532.169 173.923C532.117 183.275 526.291 192.422 514.029 192.422C501.763 192.422 495.834 183.326 495.834 173.923C495.834 163.549 502.785 155.323 514.079 155.323C526.19 155.375 532.219 164.47 532.169 173.923" fill="#333B42"/>
    <path d="M545.983 156.15L554.871 183.266L563.871 156.15H567.65L576.651 183.303L585.483 156.15H589.31L578.26 191.239H575.038L565.67 162.751L556.594 191.239H553.26L541.927 156.15H545.983Z" fill="#333B42"/>
    <path d="M745.783 156.15H773.372V160.159H750.093V170.556H764.409V174.616H750.093V187.079H774.932V191.239H745.783V156.15Z" fill="#333B42"/>
    <path d="M601.966 156.15H629.555V160.159H606.277V170.556H620.594V174.616H606.277V187.079H631.117V191.239H601.966V156.15Z" fill="#333B42"/>
    <path d="M355.395 156.15H382.984V160.159H359.706V170.556H374.022V174.616H359.706V187.079H384.546V191.239H355.395V156.15Z" fill="#333B42"/>
    <path d="M792.298 156.15L813.803 183.018V156.15H818.114V191.239H815.107L793.551 164.47V191.239H789.241V156.15H792.298Z" fill="#333B42"/>
    <path d="M827.803 160.06V156.149H861.666V160.06H846.89V191.24H842.579V160.06H827.803Z" fill="#333B42"/>
    <path d="M723.715 156.15L709.797 177.678L695.88 156.15H691.613V191.239H695.88V163.964L709.785 184.538V184.575L709.797 184.556L709.809 184.575V184.538L723.715 163.964V191.239H727.981V156.15H723.715Z" fill="#333B42"/>
    <path d="M430.686 156.15L416.768 177.678L402.851 156.15H398.583V191.239H402.851V163.964L416.756 184.538V184.575L416.768 184.556L416.78 184.575V184.538L430.686 163.964V191.239H434.954V156.15H430.686Z" fill="#333B42"/>
    <path d="M478.789 168.247C478.1 170.294 476.501 171.239 474.497 171.641C474.042 171.731 473.585 171.797 473.124 171.817H456.776V160.203H473.124C473.245 160.205 473.368 160.231 473.488 160.234C476.176 160.27 478.248 161.834 478.894 164.259C479.252 165.595 479.228 166.941 478.789 168.247ZM478.569 157.358C476.833 156.537 474.99 156.213 473.124 156.15H452.509V191.239H456.776V175.87H473.124C473.802 175.85 474.482 175.815 475.158 175.721C477.681 175.37 479.821 174.318 481.45 172.318C482.844 170.606 483.47 168.599 483.6 166.442C483.821 162.758 482.512 159.226 478.569 157.358" fill="#333B42"/>
    <path d="M649.387 160.206H665.764C665.887 160.207 666.009 160.234 666.132 160.235C668.823 160.272 670.9 161.84 671.548 164.27C671.905 165.608 671.881 166.955 671.441 168.266C670.751 170.316 669.149 171.263 667.141 171.666C666.687 171.756 666.227 171.822 665.764 171.842H649.387V160.206ZM676.433 191.244L667.751 175.759C667.769 175.756 667.788 175.755 667.804 175.754C670.332 175.4 672.476 174.347 674.108 172.343C675.505 170.627 676.132 168.618 676.261 166.455C676.484 162.764 675.172 159.227 671.221 157.355C669.481 156.532 667.637 156.207 665.764 156.144H649.387H645.467H645.111V191.302H649.387V175.902H663.125L671.796 191.302L676.433 191.244Z" fill="#333B42"/>
    <path d="M0.567993 156.149H4.92932V191.239H0.567993V156.149Z" fill="#333B42"/>
    <path d="M26.2234 156.15L48.0727 183.018V156.15H52.4527V191.239H49.3967L27.4967 164.47V191.239H23.1167V156.15H26.2234Z" fill="#333B42"/>
    <path d="M170.908 159.258C165.866 159.258 160.483 161.022 160.483 165.307C160.483 169.139 165.412 170.25 171.248 171.107C179.18 172.217 186.999 173.629 186.999 181.595C186.942 189.511 178.444 192.083 170.852 192.083C163.826 192.083 157.14 189.815 154.08 183.915L158.16 181.795C160.71 185.982 166.036 187.999 170.908 187.999C175.724 187.999 182.127 186.638 182.127 181.445C182.184 177.057 176.631 175.795 170.682 174.99C163.032 173.931 155.61 172.367 155.61 165.207C155.498 157.845 163.939 155.323 170.795 155.323C176.687 155.323 182.296 156.383 185.81 161.729L182.07 163.795C179.916 160.721 175.327 159.307 170.908 159.258Z" fill="#333B42"/>
    <path d="M253.802 159.41C244.705 159.41 240.003 166.105 240.003 173.923C240.003 181.181 244.398 188.231 253.802 188.231C263.203 188.231 267.446 180.977 267.446 173.923C267.497 166.667 263.153 159.513 253.802 159.41ZM271.891 173.923C271.839 183.275 266.015 192.422 253.75 192.422C241.486 192.422 235.558 183.326 235.558 173.923C235.558 163.549 242.509 155.323 253.802 155.323C265.913 155.375 271.942 164.47 271.891 173.923Z" fill="#333B42"/>
    <path d="M113.858 156.15H141.447V160.159H118.169V170.556H132.485V174.616H118.169V187.079H143.009V191.239H113.858V156.15Z" fill="#333B42"/>
    <path d="M194.913 160.06V156.149H228.777V160.06H214V191.24H209.689V160.06H194.913Z" fill="#333B42"/>
    <path d="M291.327 160.199H307.677C307.799 160.201 307.921 160.227 308.042 160.229C310.73 160.266 312.802 161.831 313.449 164.255C313.806 165.591 313.783 166.937 313.343 168.243C312.654 170.291 311.055 171.235 309.051 171.638C308.597 171.729 308.138 171.793 307.677 171.813H291.327V160.199ZM318.373 191.239L309.661 175.725C309.678 175.722 309.695 175.722 309.713 175.719C312.235 175.367 314.375 174.315 316.005 172.314C317.399 170.603 318.025 168.595 318.155 166.438C318.378 162.753 317.067 159.222 313.123 157.353C311.387 156.531 309.546 156.207 307.677 156.145H287.059V191.239H291.327V175.867H305.042L313.697 191.239H318.373Z" fill="#333B42"/>
    <path d="M96.5598 156.15L83.1465 184.398L69.7332 156.15H64.7332L81.8158 191.239H84.4758L101.56 156.15H96.5598Z" fill="#333B42"/>
</svg>