
<svg width="129px" height="12px" viewBox="0 0 129 12" version="1.1" xmlns="http://www.w3.org/2000/svg" xmlns:xlink="http://www.w3.org/1999/xlink">
    <!-- Generator: Sketch 50.2 (55047) - http://www.bohemiancoding.com/sketch -->
    <desc>Created with Sketch.</desc>
    <defs></defs>
    <g id="Dashboard_light_10x-fonts" stroke="none" stroke-width="1" fill="none" fill-rule="evenodd">
        <g id="EMP100---Thin-menu" transform="translate(-1755.000000, -220.000000)">
            <g id="Environmental-capital" transform="translate(1246.000000, 92.000000)">
                <g id="Chart-Copy" transform="translate(509.737099, 129.000000)">
                    <path d="M0,10 C10.1235155,7.51859701 19.6682202,5.01458443 28.634114,2.48796226 C42.0829546,-1.301971 56.5657702,-0.320573294 67.9825009,2.48796226 C79.3992316,5.29649781 88.6154058,7.19782339 97.7885724,7.19782339 C103.904017,7.19782339 113.973773,8.13188226 127.99784,10" id="Path-3" stroke="#E55050"></path>
                    <path d="M0,10 C10.1235155,7.51859701 19.6682202,5.01458443 28.634114,2.48796226 C42.0829546,-1.301971 56.5657702,-0.320573294 67.9825009,2.48796226 C79.3992316,5.29649781 88.6154058,7.19782339 97.7885724,7.19782339 C103.904017,7.19782339 113.973773,8.13188226 127.99784,10" id="Path-3" fill-opacity="0.104081748" fill="#E55050"></path>
                </g>
            </g>
        </g>
    </g>
</svg>