
<svg width="129px" height="16px" viewBox="0 0 129 16" version="1.1" xmlns="http://www.w3.org/2000/svg" xmlns:xlink="http://www.w3.org/1999/xlink">
    <!-- Generator: Sketch 50.2 (55047) - http://www.bohemiancoding.com/sketch -->
    <desc>Created with Sketch.</desc>
    <defs></defs>
    <g id="Dashboard_light_10x-fonts" stroke="none" stroke-width="1" fill="none" fill-rule="evenodd">
        <g id="EMP100---Thin-menu" transform="translate(-1755.000000, -182.000000)">
            <g id="Environmental-capital" transform="translate(1246.000000, 92.000000)">
                <g id="Chart" transform="translate(509.737099, 91.000000)">
                    <path d="M0,14 C10.1235155,10.5260358 19.6682202,7.02041821 28.634114,3.48314716 C42.0829546,-1.8227594 56.5657702,-0.448802612 67.9825009,3.48314716 C79.3992316,7.41509694 88.6154058,10.0769528 97.7885724,10.0769528 C103.904017,10.0769528 113.973773,11.3846352 127.99784,14" id="Path-3" stroke="#98C73A"></path>
                    <path d="M0,14 C10.1235155,10.5260358 19.6682202,7.02041821 28.634114,3.48314716 C42.0829546,-1.8227594 56.5657702,-0.448802612 67.9825009,3.48314716 C79.3992316,7.41509694 88.6154058,10.0769528 97.7885724,10.0769528 C103.904017,10.0769528 113.973773,11.3846352 127.99784,14" id="Path-3" fill-opacity="0.0979959239" fill="#98C73A"></path>
                </g>
            </g>
        </g>
    </g>
</svg>