
<svg width="25px" height="17px" viewBox="0 0 25 17" version="1.1" xmlns="http://www.w3.org/2000/svg" xmlns:xlink="http://www.w3.org/1999/xlink">
    <!-- Generator: Sketch 50.2 (55047) - http://www.bohemiancoding.com/sketch -->
    <desc>Created with Sketch.</desc>
    <defs></defs>
    <g id="Dashboard_light_10x-fonts" stroke="none" stroke-width="1" fill="none" fill-rule="evenodd">
        <g id="EMP100---EMEA-Overview-Dashboard" transform="translate(-224.000000, -478.000000)" fill-rule="nonzero">
            <g id="Sub-menu" transform="translate(186.000000, -1.000000)">
                <g id="russia" transform="translate(38.000000, 479.000000)">
                    <g id="Group">
                        <rect id="Rectangle-path" fill="#FFFFFF" x="0" y="0" width="24.5901639" height="5.3902439"></rect>
                        <rect id="Rectangle-path" fill="#F04F4D" x="0" y="11.195122" width="24.5901639" height="5.3902439"></rect>
                        <rect id="Rectangle-path" fill="#205BA8" x="0" y="5.3902439" width="24.5901639" height="5.80487805"></rect>
                    </g>
                    <g id="Group" opacity="0.1" fill="#000000">
                        <path d="M23.3811475,0.419609756 C23.8331967,0.419609756 24.2008197,0.791536585 24.2008197,1.24887805 L24.2008197,15.346439 C24.2008197,15.8037805 23.8331967,16.1757073 23.3811475,16.1757073 L1.25,16.1757073 C0.79795082,16.1757073 0.430327869,15.8037805 0.430327869,15.346439 L0.430327869,1.24887805 C0.430327869,0.791536585 0.79795082,0.419609756 1.25,0.419609756 L23.3811475,0.419609756 Z M23.3811475,0.00497560976 L1.25,0.00497560976 C0.570901639,0.00497560976 0.0204918033,0.561829268 0.0204918033,1.24887805 L0.0204918033,15.346439 C0.0204918033,16.0334878 0.570901639,16.5903415 1.25,16.5903415 L23.3811475,16.5903415 C24.0602459,16.5903415 24.6106557,16.0334878 24.6106557,15.346439 L24.6106557,1.24887805 C24.6106557,0.561829268 24.0602459,0.00497560976 23.3811475,0.00497560976 Z" id="Shape"></path>
                    </g>
                </g>
            </g>
        </g>
    </g>
</svg>