<svg width="24" height="16" viewBox="0 0 24 16" fill="none" xmlns="http://www.w3.org/2000/svg">
    <path d="M24.5902 0H0V5.32787H24.5902V0Z" fill="#F8A34C"/>
    <path d="M24.5902 11.0656H0V16.3934H24.5902V11.0656Z" fill="#58B45B"/>
    <path d="M24.5902 5.32787H0V11.0656H24.5902V5.32787Z" fill="#FFFFFF"/>
    <path d="M12.2951 5.83279C10.9898 5.83279 9.93115 6.89098 9.93115 8.19672C9.93115 9.50205 10.9893 10.5602 12.2951 10.5602C13.6008 10.5602 14.659 9.50205 14.659 8.19672C14.659 6.89139 13.6004 5.83279 12.2951 5.83279ZM14.3262 8.56557C14.316 8.62172 14.3 8.675 14.2853 8.72951L13.1123 8.34221L12.6914 8.28197C12.6959 8.26066 12.7033 8.24016 12.7045 8.21762L13.1225 8.26762L14.3635 8.19672L13.1225 8.12582L12.7045 8.17582C12.7033 8.15328 12.6963 8.13279 12.6914 8.11147L13.1123 8.05123L14.2853 7.66393C14.3 7.71844 14.316 7.77172 14.3262 7.82787C14.2734 7.83852 14.2361 7.88647 14.243 7.94057C14.25 7.99221 14.2951 8.02582 14.3459 8.02623C14.3508 8.08361 14.3631 8.13852 14.3631 8.19713C14.3631 8.25574 14.3508 8.31065 14.3459 8.36803C14.2951 8.36844 14.2496 8.40164 14.243 8.45369C14.2361 8.50738 14.2734 8.55492 14.3262 8.56557ZM14.1598 9.07705C14.1357 9.12828 14.1074 9.17705 14.0791 9.22582L13.0471 8.54877L12.6594 8.38279C12.6697 8.36311 12.6766 8.34303 12.6836 8.32172L13.0758 8.4791L14.2853 8.73033C14.2705 8.78525 14.2541 8.83934 14.2348 8.89262C14.1848 8.87828 14.1307 8.89959 14.1107 8.94877C14.0898 8.99836 14.1131 9.05246 14.1598 9.07705ZM13.0471 10.0119C12.998 10.0324 12.9766 10.0861 12.991 10.1361C12.9377 10.1553 12.8836 10.1717 12.8287 10.1865L12.5775 8.97746L12.4201 8.58484C12.4414 8.57787 12.4615 8.57049 12.4812 8.56066L12.6471 8.94836L13.3242 9.98033C13.2754 10.0086 13.2266 10.0369 13.1754 10.0611C13.1508 10.0148 13.0967 9.99139 13.0471 10.0119ZM13.0471 6.38156C13.0967 6.40205 13.1512 6.37869 13.1758 6.33197C13.2271 6.35615 13.2758 6.38443 13.3246 6.4127L12.6475 7.44467L12.4816 7.83238C12.4619 7.82213 12.4418 7.81516 12.4205 7.8082L12.5779 7.41557L12.8291 6.20656C12.884 6.22131 12.9381 6.2377 12.9914 6.25697C12.9766 6.30697 12.998 6.36107 13.0471 6.38156ZM14.2348 7.50082C14.2541 7.5541 14.2705 7.6082 14.2853 7.66311L13.0758 7.91434L12.6836 8.07172C12.6766 8.05041 12.6693 8.03033 12.6594 8.01065L13.0471 7.84467L14.0791 7.16762C14.1074 7.21639 14.1357 7.26516 14.1598 7.31639C14.1131 7.34098 14.0898 7.39549 14.1103 7.44508C14.1307 7.49385 14.1848 7.51516 14.2348 7.50082ZM13.8668 6.86639C13.8303 6.90246 13.8221 6.95861 13.8541 7.00041C13.8877 7.04426 13.9492 7.05164 13.9943 7.0209C14.0262 7.0668 14.0504 7.11762 14.0787 7.16639L12.9762 7.72172L12.6365 7.97623C12.6246 7.95779 12.6143 7.93811 12.5996 7.92172L12.9303 7.66188L13.7578 6.73443L12.8303 7.56188L12.5705 7.89262C12.5541 7.87787 12.5344 7.86803 12.516 7.85574L12.7705 7.51598L13.3258 6.41352C13.3746 6.4418 13.4254 6.46598 13.4713 6.49795C13.4402 6.54303 13.448 6.60451 13.4918 6.63811C13.5336 6.67008 13.5898 6.66147 13.6258 6.62541C13.6697 6.66229 13.7176 6.69426 13.7582 6.73443C13.798 6.77459 13.8299 6.82295 13.8668 6.86639ZM12.466 6.14549C12.4664 6.19631 12.4996 6.2418 12.5516 6.24836C12.6057 6.25533 12.6533 6.21803 12.6643 6.16516C12.7205 6.17541 12.7738 6.19139 12.8283 6.20615L12.441 7.3791L12.3807 7.8C12.3594 7.79549 12.3389 7.78811 12.3164 7.78688L12.3664 7.36885L12.2951 6.12828L12.2242 7.36926L12.2742 7.78729C12.2516 7.78852 12.2312 7.79549 12.2098 7.80041L12.1496 7.37951L11.7623 6.20656C11.8168 6.1918 11.8701 6.17582 11.9262 6.16557C11.9369 6.21803 11.9848 6.25574 12.0389 6.24877C12.0906 6.2418 12.1242 6.19672 12.1246 6.1459C12.182 6.14098 12.2369 6.12869 12.2955 6.12869C12.3541 6.12869 12.4086 6.14098 12.466 6.14549ZM11.543 10.0119C11.4934 9.99139 11.4389 10.0148 11.4143 10.0615C11.3631 10.0373 11.3143 10.009 11.2656 9.98074L11.9426 8.94877L12.1086 8.56107C12.1283 8.57131 12.1484 8.57828 12.1697 8.58525L12.0123 8.97787L11.7611 10.1869C11.7062 10.1721 11.6521 10.1557 11.5988 10.1365C11.6135 10.0865 11.5922 10.0324 11.543 10.0119ZM10.7361 9.39262C10.7025 9.34877 10.641 9.34139 10.5959 9.37213C10.5639 9.32623 10.5398 9.27541 10.5115 9.22664L11.6139 8.67131L11.9537 8.4168C11.9656 8.43525 11.9758 8.45492 11.9906 8.47131L11.6598 8.73115L10.8324 9.65861C10.7918 9.61803 10.7603 9.57008 10.7234 9.52623C10.7598 9.49057 10.7684 9.43443 10.7361 9.39262ZM10.4799 8.94877C10.4594 8.89959 10.4057 8.87828 10.3557 8.89262C10.3365 8.83934 10.3201 8.78525 10.3053 8.73033L11.5143 8.4791L11.907 8.32172C11.9139 8.34303 11.9213 8.36311 11.9312 8.38279L11.5434 8.54877L10.5115 9.22582C10.4832 9.17705 10.4549 9.12828 10.4307 9.07705C10.4771 9.05246 10.5004 8.99836 10.4799 8.94877ZM10.2439 8.36762C10.2389 8.31025 10.2266 8.25533 10.2266 8.19672C10.2266 8.13811 10.2389 8.0832 10.2439 8.02582C10.2947 8.02541 10.3402 7.99221 10.3467 7.94016C10.3537 7.88607 10.3164 7.83852 10.2635 7.82746C10.2738 7.77131 10.2898 7.71803 10.3045 7.66352L11.4775 8.05082L11.8984 8.11107C11.8939 8.13238 11.8865 8.15287 11.8853 8.17541L11.4672 8.12541L10.2266 8.19672L11.4676 8.26762L11.8857 8.21762C11.8869 8.24016 11.8939 8.26066 11.8988 8.28197L11.4779 8.34221L10.3049 8.72951C10.2902 8.675 10.2742 8.62172 10.2639 8.56557C10.3168 8.55492 10.3541 8.50697 10.3471 8.45287C10.3402 8.40123 10.2947 8.36803 10.2439 8.36762ZM10.4799 7.44467C10.5004 7.39508 10.4771 7.34057 10.4303 7.31598C10.4545 7.26475 10.4828 7.21598 10.5111 7.16721L11.543 7.84426L11.9307 8.01025C11.9205 8.02992 11.9135 8.05 11.9066 8.07131L11.5139 7.91393L10.3049 7.6627C10.3197 7.60779 10.3361 7.55369 10.3553 7.50041C10.4053 7.51516 10.4594 7.49385 10.4799 7.44467ZM10.5959 7.0209C10.641 7.05205 10.7025 7.04426 10.7361 7.00041C10.768 6.95861 10.7594 6.90246 10.7234 6.86639C10.7603 6.82254 10.7922 6.77459 10.8324 6.73402L11.6598 7.66147L11.9906 7.92131C11.9758 7.9377 11.966 7.95738 11.9537 7.97582L11.6139 7.72131L10.5115 7.16598C10.5398 7.11762 10.5639 7.0668 10.5959 7.0209ZM12.1086 7.83279L11.9426 7.44508L11.2656 6.41311C11.3143 6.38484 11.3631 6.35656 11.4143 6.33238C11.4389 6.3791 11.4934 6.40246 11.543 6.38197C11.5922 6.36147 11.6135 6.30779 11.5992 6.25779C11.6525 6.23852 11.7066 6.22213 11.7615 6.20738L12.0127 7.41639L12.1701 7.80902C12.1484 7.81516 12.1283 7.82254 12.1086 7.83279ZM10.9648 6.625C11.0008 6.66147 11.057 6.66967 11.0988 6.6377C11.1426 6.6041 11.15 6.54262 11.1193 6.49754C11.1652 6.46557 11.216 6.44139 11.2648 6.41311L11.8201 7.51557L12.0746 7.85533C12.0562 7.86721 12.0365 7.87746 12.0201 7.89221L11.7603 7.56147L10.8328 6.73402C10.873 6.69385 10.9213 6.66188 10.9648 6.625ZM10.8328 9.65902L11.7603 8.83156L12.0201 8.50082C12.0365 8.51557 12.0562 8.52541 12.0746 8.5377L11.8201 8.87746L11.2648 9.97992C11.216 9.95164 11.1652 9.92746 11.1193 9.89549C11.1504 9.85041 11.1426 9.78893 11.0988 9.75533C11.057 9.72336 11.0008 9.73197 10.9648 9.76803C10.9213 9.73115 10.873 9.69959 10.8328 9.65902ZM12.1242 10.2475C12.1238 10.1967 12.0906 10.1512 12.0385 10.1447C11.9844 10.1377 11.9369 10.175 11.9258 10.2279C11.8697 10.2176 11.8164 10.2016 11.7619 10.1869L12.1492 9.01393L12.2094 8.59303C12.2307 8.59754 12.2512 8.60492 12.2738 8.60615L12.2238 9.02418L12.2951 10.2648L12.366 9.02377L12.316 8.60574C12.3385 8.60451 12.359 8.59754 12.3803 8.59262L12.4406 9.01352L12.8279 10.1865C12.7734 10.2012 12.7201 10.2172 12.6639 10.2275C12.6533 10.175 12.6053 10.1373 12.5512 10.1443C12.4996 10.1512 12.466 10.1963 12.4656 10.2471C12.4082 10.252 12.3533 10.2643 12.2947 10.2643C12.2361 10.2643 12.1816 10.2525 12.1242 10.2475ZM13.6254 9.76844C13.5893 9.73197 13.5332 9.72377 13.4914 9.75574C13.4475 9.78934 13.4402 9.85082 13.4709 9.8959C13.425 9.92787 13.3742 9.95205 13.3254 9.98033L12.7701 8.87787L12.5156 8.53811C12.534 8.52623 12.5537 8.51598 12.5701 8.50123L12.8299 8.83197L13.7574 9.65943L12.9299 8.73197L12.5992 8.47213C12.6139 8.45574 12.6238 8.43606 12.6361 8.41762L12.9758 8.67213L14.0783 9.22746C14.05 9.27623 14.0258 9.32705 13.9939 9.37295C13.9488 9.3418 13.8873 9.34959 13.8537 9.39344C13.8217 9.43524 13.8303 9.49139 13.8664 9.52746C13.8295 9.57131 13.7975 9.61926 13.7574 9.65984C13.7172 9.69959 13.6689 9.73115 13.6254 9.76844Z" fill="#205BA8"/>
    <g opacity="0.1">
        <path opacity="0.1" d="M23.3762 0.414757C23.8283 0.414757 24.1959 0.78238 24.1959 1.23443V15.1689C24.1959 15.6209 23.8283 15.9885 23.3762 15.9885H1.24507C0.793023 15.9885 0.4254 15.6209 0.4254 15.1689V1.23443C0.4254 0.78238 0.793023 0.414757 1.24507 0.414757H23.3762ZM23.3762 0.00492096H1.24507C0.565974 0.00492096 0.015564 0.555331 0.015564 1.23443V15.1689C0.015564 15.848 0.565974 16.3984 1.24507 16.3984H23.3762C24.0553 16.3984 24.6057 15.848 24.6057 15.1689V1.23443C24.6057 0.555331 24.0553 0.00492096 23.3762 0.00492096Z" fill="#231F20"/>
    </g>
</svg>