<svg width="24" height="18" viewBox="0 0 24 18" fill="none" xmlns="http://www.w3.org/2000/svg">
    <rect width="25" height="17.7778" fill="white"/>
    <path d="M25 0H0V17.2222H25V0Z" fill="#F04F4D"/>
    <path d="M25 1.11111H0V2.22222H25V1.11111Z" fill="white"/>
    <path d="M25 3.88889H0V5H25V3.88889Z" fill="white"/>
    <path d="M25 6.66667H0V7.77778H25V6.66667Z" fill="white"/>
    <path d="M25 9.44444H0V10.5556H25V9.44444Z" fill="white"/>
    <path d="M25 12.2222H0V13.3333H25V12.2222Z" fill="white"/>
    <path d="M25 14.4444H0V15.5556H25V14.4444Z" fill="white"/>
    <path d="M12.7778 0H0V9.44444H12.7778V0Z" fill="#205BA8"/>
    <path d="M1.02638 1.15156L0.912214 1.51911L1.21138 1.292L1.51013 1.51911L1.39596 1.15156L1.69471 0.924444H1.32555L1.21138 0.556889L1.09721 0.924444H0.727631L1.02638 1.15156Z" fill="white"/>
    <path d="M3.10679 1.15156L2.99263 1.51911L3.29179 1.292L3.59054 1.51911L3.47638 1.15156L3.77513 0.924444H3.40596L3.29179 0.556889L3.17763 0.924444H2.80804L3.10679 1.15156Z" fill="white"/>
    <path d="M5.18721 1.15156L5.07304 1.51911L5.37179 1.292L5.67096 1.51911L5.55679 1.15156L5.85554 0.924444H5.48596L5.37179 0.556889L5.25762 0.924444H4.88846L5.18721 1.15156Z" fill="white"/>
    <path d="M7.26764 1.15156L7.15348 1.51911L7.45223 1.292L7.75139 1.51911L7.63723 1.15156L7.93598 0.924444H7.56639L7.45223 0.556889L7.33806 0.924444H6.96848L7.26764 1.15156Z" fill="white"/>
    <path d="M9.34806 1.15156L9.23389 1.51911L9.53264 1.292L9.83139 1.51911L9.71722 1.15156L10.0164 0.924444H9.64681L9.53264 0.556889L9.41847 0.924444H9.04889L9.34806 1.15156Z" fill="white"/>
    <path d="M11.4281 1.15156L11.3139 1.51911L11.6131 1.292L11.9118 1.51911L11.7976 1.15156L12.0968 0.924444H11.7272L11.6131 0.556889L11.4989 0.924444H11.1293L11.4281 1.15156Z" fill="white"/>
    <path d="M2.06681 2.084L1.95264 2.45111L2.25139 2.224L2.55056 2.45111L2.43597 2.084L2.73514 1.85689H2.36556L2.25139 1.48933L2.13722 1.85689H1.76764L2.06681 2.084Z" fill="white"/>
    <path d="M4.14722 2.084L4.03305 2.45111L4.3318 2.224L4.63055 2.45111L4.51639 2.084L4.81555 1.85689H4.44597L4.3318 1.48933L4.21764 1.85689H3.84805L4.14722 2.084Z" fill="white"/>
    <path d="M6.22722 2.084L6.11305 2.45111L6.41222 2.224L6.71097 2.45111L6.5968 2.084L6.89597 1.85689H6.52638L6.41222 1.48933L6.29805 1.85689H5.92847L6.22722 2.084Z" fill="white"/>
    <path d="M8.30763 2.084L8.19346 2.45111L8.49263 2.224L8.79138 2.45111L8.67721 2.084L8.97596 1.85689H8.6068L8.49263 1.48933L8.37846 1.85689H8.00888L8.30763 2.084Z" fill="white"/>
    <path d="M10.388 2.084L10.2739 2.45111L10.5726 2.224L10.8718 2.45111L10.7576 2.084L11.0564 1.85689H10.6868L10.5726 1.48933L10.4585 1.85689H10.0893L10.388 2.084Z" fill="white"/>
    <path d="M0.912214 3.38355L1.21138 3.15644L1.51013 3.38355L1.39596 3.016L1.69471 2.78889H1.32555L1.21138 2.42178L1.09721 2.78889H0.727631L1.02638 3.016L0.912214 3.38355Z" fill="white"/>
    <path d="M2.99263 3.38355L3.29179 3.15644L3.59054 3.38355L3.47638 3.016L3.77513 2.78889H3.40596L3.29179 2.42178L3.17763 2.78889H2.80804L3.10679 3.016L2.99263 3.38355Z" fill="white"/>
    <path d="M5.07304 3.38355L5.37179 3.15644L5.67096 3.38355L5.55679 3.016L5.85554 2.78889H5.48596L5.37179 2.42178L5.25762 2.78889H4.88846L5.18721 3.016L5.07304 3.38355Z" fill="white"/>
    <path d="M7.15348 3.38355L7.45223 3.15644L7.75139 3.38355L7.63723 3.016L7.93598 2.78889H7.56639L7.45223 2.42178L7.33806 2.78889H6.96848L7.26764 3.016L7.15348 3.38355Z" fill="white"/>
    <path d="M9.23389 3.38355L9.53264 3.15644L9.83139 3.38355L9.71722 3.016L10.0164 2.78889H9.64681L9.53264 2.42178L9.41847 2.78889H9.04889L9.34806 3.016L9.23389 3.38355Z" fill="white"/>
    <path d="M11.3139 3.38355L11.6131 3.15644L11.9118 3.38355L11.7976 3.016L12.0968 2.78889H11.7272L11.6131 2.42178L11.4989 2.78889H11.1293L11.4281 3.016L11.3139 3.38355Z" fill="white"/>
    <path d="M1.95264 4.45333L2.25139 4.22622L2.55056 4.45333L2.43597 4.08578L2.73514 3.85867H2.36556L2.25139 3.49155L2.13722 3.85867H1.76764L2.06681 4.08578L1.95264 4.45333Z" fill="white"/>
    <path d="M4.03305 4.45333L4.3318 4.22622L4.63055 4.45333L4.51639 4.08578L4.81555 3.85867H4.44597L4.3318 3.49155L4.21764 3.85867H3.84805L4.14722 4.08578L4.03305 4.45333Z" fill="white"/>
    <path d="M6.11305 4.45333L6.41222 4.22622L6.71097 4.45333L6.5968 4.08578L6.89597 3.85867H6.52638L6.41222 3.49155L6.29805 3.85867H5.92847L6.22722 4.08578L6.11305 4.45333Z" fill="white"/>
    <path d="M8.19346 4.45333L8.49263 4.22622L8.79138 4.45333L8.67721 4.08578L8.97596 3.85867H8.6068L8.49263 3.49155L8.37846 3.85867H8.00888L8.30763 4.08578L8.19346 4.45333Z" fill="white"/>
    <path d="M10.2739 4.45333L10.5726 4.22622L10.8718 4.45333L10.7576 4.08578L11.0564 3.85867H10.6868L10.5726 3.49155L10.4585 3.85867H10.0893L10.388 4.08578L10.2739 4.45333Z" fill="white"/>
    <path d="M0.912214 5.38578L1.21138 5.15866L1.51013 5.38578L1.39596 5.01822L1.69471 4.79111H1.32555L1.21138 4.42355L1.09721 4.79111H0.727631L1.02638 5.01822L0.912214 5.38578Z" fill="white"/>
    <path d="M2.99263 5.38578L3.29179 5.15866L3.59054 5.38578L3.47638 5.01822L3.77513 4.79111H3.40596L3.29179 4.42355L3.17763 4.79111H2.80804L3.10679 5.01822L2.99263 5.38578Z" fill="white"/>
    <path d="M5.07304 5.38578L5.37179 5.15866L5.67096 5.38578L5.55679 5.01822L5.85554 4.79111H5.48596L5.37179 4.42355L5.25762 4.79111H4.88846L5.18721 5.01822L5.07304 5.38578Z" fill="white"/>
    <path d="M7.15348 5.38578L7.45223 5.15866L7.75139 5.38578L7.63723 5.01822L7.93598 4.79111H7.56639L7.45223 4.42355L7.33806 4.79111H6.96848L7.26764 5.01822L7.15348 5.38578Z" fill="white"/>
    <path d="M9.23389 5.38578L9.53264 5.15866L9.83139 5.38578L9.71722 5.01822L10.0164 4.79111H9.64681L9.53264 4.42355L9.41847 4.79111H9.04889L9.34806 5.01822L9.23389 5.38578Z" fill="white"/>
    <path d="M11.3139 5.38578L11.6131 5.15866L11.9118 5.38578L11.7976 5.01822L12.0968 4.79111H11.7272L11.6131 4.42355L11.4989 4.79111H11.1293L11.4281 5.01822L11.3139 5.38578Z" fill="white"/>
    <path d="M2.29012 5.47422L2.17595 5.84178H1.80637L2.10553 6.06889L1.99137 6.436L2.29012 6.20889L2.58887 6.436L2.4747 6.06889L2.77387 5.84178H2.40428L2.29012 5.47422Z" fill="white"/>
    <path d="M4.37056 5.47422L4.25639 5.84178H3.88681L4.18556 6.06889L4.07139 6.436L4.37056 6.20889L4.66931 6.436L4.55514 6.06889L4.85431 5.84178H4.48473L4.37056 5.47422Z" fill="white"/>
    <path d="M6.45097 5.47422L6.33681 5.84178H5.96722L6.26597 6.06889L6.15181 6.436L6.45097 6.20889L6.74972 6.436L6.63556 6.06889L6.93431 5.84178H6.56514L6.45097 5.47422Z" fill="white"/>
    <path d="M8.53139 5.47422L8.4168 5.84178H8.04764L8.34639 6.06889L8.23222 6.436L8.53139 6.20889L8.83014 6.436L8.71597 6.06889L9.01472 5.84178H8.64555L8.53139 5.47422Z" fill="white"/>
    <path d="M10.6114 5.47422L10.4972 5.84178H10.1281L10.4268 6.06889L10.3126 6.436L10.6114 6.20889L10.9106 6.436L10.7964 6.06889L11.0951 5.84178H10.7256L10.6114 5.47422Z" fill="white"/>
    <path d="M1.25014 6.40622L1.13597 6.77378H0.766388L1.06514 7.00089L0.950971 7.36845L1.25014 7.14133L1.54889 7.36845L1.43472 7.00089L1.73347 6.77378H1.3643L1.25014 6.40622Z" fill="white"/>
    <path d="M3.33014 6.40622L3.21597 6.77378H2.8468L3.14555 7.00089L3.03139 7.36845L3.33014 7.14133L3.6293 7.36845L3.51514 7.00089L3.81389 6.77378H3.4443L3.33014 6.40622Z" fill="white"/>
    <path d="M5.41055 6.40622L5.29638 6.77378H4.92722L5.22597 7.00089L5.1118 7.36845L5.41055 7.14133L5.70972 7.36845L5.59555 7.00089L5.8943 6.77378H5.52472L5.41055 6.40622Z" fill="white"/>
    <path d="M7.49095 6.40622L7.37679 6.77378H7.0072L7.30637 7.00089L7.1922 7.36845L7.49095 7.14133L7.7897 7.36845L7.67554 7.00089L7.9747 6.77378H7.60512L7.49095 6.40622Z" fill="white"/>
    <path d="M9.5714 6.40622L9.45723 6.77378H9.08765L9.38681 7.00089L9.27265 7.36845L9.5714 7.14133L9.87015 7.36845L9.75598 7.00089L10.0551 6.77378H9.68556L9.5714 6.40622Z" fill="white"/>
    <path d="M11.766 6.77378L11.6518 6.40622L11.5376 6.77378H11.1681L11.4668 7.00089L11.3526 7.36845L11.6518 7.14133L11.9506 7.36845L11.8364 7.00089L12.1351 6.77378H11.766Z" fill="white"/>
    <path d="M2.40428 7.75022L2.29012 7.38267L2.17595 7.75022H1.80637L2.10553 7.97733L1.99137 8.34489L2.29012 8.11778L2.58887 8.34489L2.4747 7.97733L2.77387 7.75022H2.40428Z" fill="white"/>
    <path d="M4.48473 7.75022L4.37056 7.38267L4.25639 7.75022H3.88681L4.18556 7.97733L4.07139 8.34489L4.37056 8.11778L4.66931 8.34489L4.55514 7.97733L4.85431 7.75022H4.48473Z" fill="white"/>
    <path d="M6.56514 7.75022L6.45097 7.38267L6.33681 7.75022H5.96722L6.26597 7.97733L6.15181 8.34489L6.45097 8.11778L6.74972 8.34489L6.63556 7.97733L6.93431 7.75022H6.56514Z" fill="white"/>
    <path d="M8.64514 7.75022L8.53139 7.38267L8.4168 7.75022H8.04764L8.34639 7.97733L8.23222 8.34489L8.53139 8.11778L8.83014 8.34489L8.71597 7.97733L9.01472 7.75022H8.64514Z" fill="white"/>
    <path d="M10.7256 7.75022L10.6114 7.38267L10.4972 7.75022H10.1281L10.4268 7.97733L10.3126 8.34489L10.6114 8.11778L10.9106 8.34489L10.7964 7.97733L11.0951 7.75022H10.7256Z" fill="white"/>
    <path d="M1.3643 8.68267L1.25014 8.31511L1.13597 8.68267H0.766388L1.06514 8.90978L0.950971 9.27689L1.25014 9.04978L1.54889 9.27689L1.43472 8.90978L1.73347 8.68267H1.3643Z" fill="white"/>
    <path d="M3.4443 8.68267L3.33014 8.31511L3.21597 8.68267H2.8468L3.14555 8.90978L3.03139 9.27689L3.33014 9.04978L3.6293 9.27689L3.51514 8.90978L3.81389 8.68267H3.4443Z" fill="white"/>
    <path d="M5.52472 8.68267L5.41055 8.31511L5.29638 8.68267H4.92722L5.22597 8.90978L5.1118 9.27689L5.41055 9.04978L5.70972 9.27689L5.59555 8.90978L5.8943 8.68267H5.52472Z" fill="white"/>
    <path d="M7.60512 8.68267L7.49095 8.31511L7.37679 8.68267H7.0072L7.30637 8.90978L7.1922 9.27689L7.49095 9.04978L7.7897 9.27689L7.67554 8.90978L7.9747 8.68267H7.60512Z" fill="white"/>
    <path d="M9.68556 8.68267L9.5714 8.31511L9.45723 8.68267H9.08765L9.38681 8.90978L9.27265 9.27689L9.5714 9.04978L9.87015 9.27689L9.75598 8.90978L10.0551 8.68267H9.68556Z" fill="white"/>
    <path d="M11.766 8.68267L11.6518 8.31511L11.5376 8.68267H11.1681L11.4668 8.90978L11.3526 9.27689L11.6518 9.04978L11.9506 9.27689L11.8364 8.90978L12.1351 8.68267H11.766Z" fill="white"/>
    <g opacity="0.1">
        <path opacity="0.1" d="M23.75 0.444444C24.2096 0.444444 24.5833 0.843111 24.5833 1.33333V16.4444C24.5833 16.9347 24.2096 17.3333 23.75 17.3333H1.25C0.790417 17.3333 0.416667 16.9347 0.416667 16.4444V1.33333C0.416667 0.843111 0.790417 0.444444 1.25 0.444444H23.75ZM23.75 0H1.25C0.559583 0 0 0.596889 0 1.33333V16.4444C0 17.1809 0.559583 17.7778 1.25 17.7778H23.75C24.4404 17.7778 25 17.1809 25 16.4444V1.33333C25 0.596889 24.4404 0 23.75 0Z" fill="black"/>
    </g>
</svg>