
<svg width="25px" height="17px" viewBox="0 0 25 17" version="1.1" xmlns="http://www.w3.org/2000/svg" xmlns:xlink="http://www.w3.org/1999/xlink">
    <!-- Generator: Sketch 50.2 (55047) - http://www.bohemiancoding.com/sketch -->
    <desc>Created with Sketch.</desc>
    <defs></defs>
    <g id="Dashboard_light_10x-fonts" stroke="none" stroke-width="1" fill="none" fill-rule="evenodd">
        <g id="EMP100---APAC-Overview-Dashboard-Copy" transform="translate(-224.000000, -356.000000)" fill-rule="nonzero">
            <g id="india" transform="translate(224.000000, 356.000000)">
                <g id="Group">
                    <rect id="Rectangle-path" fill="#F8A34C" x="0" y="0" width="24.5901639" height="5.32786885"></rect>
                    <rect id="Rectangle-path" fill="#58B45B" x="0" y="11.0655738" width="24.5901639" height="5.32786885"></rect>
                    <rect id="Rectangle-path" fill="#FFFFFF" x="0" y="5.32786885" width="24.5901639" height="5.73770492"></rect>
                    <path d="M12.295082,5.83278689 C10.9897541,5.83278689 9.93114754,6.89098361 9.93114754,8.19672131 C9.93114754,9.50204918 10.9893443,10.5602459 12.295082,10.5602459 C13.6008197,10.5602459 14.6590164,9.50204918 14.6590164,8.19672131 C14.6590164,6.89139344 13.6004098,5.83278689 12.295082,5.83278689 Z M14.3262295,8.56557377 C14.3159836,8.62172131 14.3,8.675 14.2852459,8.7295082 L13.1122951,8.34221311 L12.6913934,8.28196721 C12.6959016,8.26065574 12.7032787,8.24016393 12.7045082,8.21762295 L13.122541,8.26762295 L14.3635246,8.19672131 L13.122541,8.12581967 L12.7045082,8.17581967 C12.7032787,8.15327869 12.6963115,8.13278689 12.6913934,8.11147541 L13.1122951,8.05122951 L14.2852459,7.66393443 C14.3,7.71844262 14.3159836,7.77172131 14.3262295,7.82786885 C14.2733607,7.83852459 14.2360656,7.88647541 14.2430328,7.94057377 C14.25,7.99221311 14.295082,8.02581967 14.3459016,8.02622951 C14.3508197,8.08360656 14.3631148,8.13852459 14.3631148,8.19713115 C14.3631148,8.2557377 14.3508197,8.31065574 14.3459016,8.36803279 C14.295082,8.36844262 14.2495902,8.40163934 14.2430328,8.45368852 C14.2360656,8.50737705 14.2733607,8.55491803 14.3262295,8.56557377 Z M14.1598361,9.07704918 C14.1356557,9.12827869 14.107377,9.17704918 14.0790984,9.22581967 L13.0471311,8.54877049 L12.6594262,8.38278689 C12.6696721,8.36311475 12.6766393,8.34303279 12.6836066,8.32172131 L13.0758197,8.47909836 L14.2852459,8.73032787 C14.2704918,8.7852459 14.2540984,8.83934426 14.2348361,8.89262295 C14.1848361,8.87827869 14.1307377,8.89959016 14.1106557,8.94877049 C14.0897541,8.99836066 14.1131148,9.05245902 14.1598361,9.07704918 Z M13.0471311,10.0118852 C12.9979508,10.032377 12.9766393,10.0860656 12.9909836,10.1360656 C12.9377049,10.1553279 12.8836066,10.1717213 12.8286885,10.1864754 L12.577459,8.97745902 L12.420082,8.58483607 C12.4413934,8.57786885 12.4614754,8.5704918 12.4811475,8.56065574 L12.6471311,8.94836066 L13.3241803,9.98032787 C13.2754098,10.0086066 13.2266393,10.0368852 13.1754098,10.0610656 C13.1508197,10.0147541 13.0967213,9.99139344 13.0471311,10.0118852 Z M13.0471311,6.38155738 C13.0967213,6.40204918 13.1512295,6.37868852 13.1758197,6.33196721 C13.2270492,6.35614754 13.2758197,6.38442623 13.3245902,6.41270492 L12.647541,7.44467213 L12.4815574,7.83237705 C12.4618852,7.82213115 12.4418033,7.81516393 12.4204918,7.80819672 L12.5778689,7.41557377 L12.8290984,6.20655738 C12.8840164,6.22131148 12.9381148,6.23770492 12.9913934,6.25696721 C12.9766393,6.30696721 12.9979508,6.36106557 13.0471311,6.38155738 Z M14.2348361,7.50081967 C14.2540984,7.55409836 14.2704918,7.60819672 14.2852459,7.66311475 L13.0758197,7.91434426 L12.6836066,8.07172131 C12.6766393,8.05040984 12.6692623,8.03032787 12.6594262,8.01065574 L13.0471311,7.84467213 L14.0790984,7.16762295 C14.107377,7.21639344 14.1356557,7.26516393 14.1598361,7.31639344 C14.1131148,7.34098361 14.0897541,7.3954918 14.1102459,7.44508197 C14.1307377,7.49385246 14.1848361,7.51516393 14.2348361,7.50081967 Z M13.8668033,6.86639344 C13.8303279,6.90245902 13.8221311,6.95860656 13.8540984,7.00040984 C13.8877049,7.0442623 13.9491803,7.05163934 13.9942623,7.02090164 C14.0262295,7.06680328 14.0504098,7.11762295 14.0786885,7.16639344 L12.9762295,7.72172131 L12.6364754,7.97622951 C12.6245902,7.95778689 12.6143443,7.93811475 12.5995902,7.92172131 L12.9303279,7.66188525 L13.7577869,6.73442623 L12.8303279,7.56188525 L12.5704918,7.89262295 C12.5540984,7.87786885 12.5344262,7.86803279 12.5159836,7.8557377 L12.7704918,7.51598361 L13.3258197,6.41352459 C13.3745902,6.44180328 13.4254098,6.46598361 13.4713115,6.49795082 C13.4401639,6.54303279 13.4479508,6.6045082 13.4918033,6.63811475 C13.5336066,6.67008197 13.5897541,6.66147541 13.6258197,6.62540984 C13.6696721,6.66229508 13.717623,6.6942623 13.7581967,6.73442623 C13.7979508,6.77459016 13.829918,6.82295082 13.8668033,6.86639344 Z M12.4659836,6.1454918 C12.4663934,6.19631148 12.4995902,6.24180328 12.5516393,6.24836066 C12.6057377,6.25532787 12.6532787,6.21803279 12.6643443,6.16516393 C12.7204918,6.17540984 12.7737705,6.19139344 12.8282787,6.20614754 L12.4409836,7.37909836 L12.3807377,7.8 C12.3594262,7.7954918 12.3389344,7.78811475 12.3163934,7.78688525 L12.3663934,7.36885246 L12.295082,6.12827869 L12.2241803,7.3692623 L12.2741803,7.78729508 C12.2516393,7.78852459 12.2311475,7.7954918 12.2098361,7.80040984 L12.1495902,7.3795082 L11.7622951,6.20655738 C11.8168033,6.19180328 11.870082,6.17581967 11.9262295,6.16557377 C11.9368852,6.21803279 11.9848361,6.2557377 12.0389344,6.24877049 C12.0905738,6.24180328 12.1241803,6.19672131 12.1245902,6.14590164 C12.1819672,6.14098361 12.2368852,6.12868852 12.2954918,6.12868852 C12.3540984,6.12868852 12.4086066,6.14098361 12.4659836,6.1454918 Z M11.5430328,10.0118852 C11.4934426,9.99139344 11.4389344,10.0147541 11.4143443,10.0614754 C11.3631148,10.0372951 11.3143443,10.0090164 11.2655738,9.9807377 L11.942623,8.94877049 L12.1086066,8.56106557 C12.1282787,8.57131148 12.1483607,8.57827869 12.1696721,8.5852459 L12.0122951,8.97786885 L11.7610656,10.1868852 C11.7061475,10.1721311 11.6520492,10.1557377 11.5987705,10.1364754 C11.6135246,10.0864754 11.5922131,10.032377 11.5430328,10.0118852 Z M10.7360656,9.39262295 C10.702459,9.34877049 10.6409836,9.34139344 10.5959016,9.37213115 C10.5639344,9.32622951 10.5397541,9.27540984 10.5114754,9.22663934 L11.6139344,8.67131148 L11.9536885,8.41680328 C11.9655738,8.4352459 11.9758197,8.45491803 11.9905738,8.47131148 L11.6598361,8.73114754 L10.832377,9.65860656 C10.7918033,9.61803279 10.7602459,9.57008197 10.7233607,9.52622951 C10.7598361,9.49057377 10.7684426,9.43442623 10.7360656,9.39262295 Z M10.479918,8.94877049 C10.4594262,8.89959016 10.4057377,8.87827869 10.3557377,8.89262295 C10.3364754,8.83934426 10.320082,8.7852459 10.3053279,8.73032787 L11.5143443,8.47909836 L11.9069672,8.32172131 C11.9139344,8.34303279 11.9213115,8.36311475 11.9311475,8.38278689 L11.5434426,8.54877049 L10.5114754,9.22581967 C10.4831967,9.17704918 10.454918,9.12827869 10.4307377,9.07704918 C10.4770492,9.05245902 10.5004098,8.99836066 10.479918,8.94877049 Z M10.2438525,8.36762295 C10.2389344,8.3102459 10.2266393,8.25532787 10.2266393,8.19672131 C10.2266393,8.13811475 10.2389344,8.08319672 10.2438525,8.02581967 C10.2946721,8.02540984 10.3401639,7.99221311 10.3467213,7.94016393 C10.3536885,7.88606557 10.3163934,7.83852459 10.2635246,7.82745902 C10.2737705,7.77131148 10.2897541,7.71803279 10.3045082,7.66352459 L11.477459,8.05081967 L11.8983607,8.11106557 C11.8938525,8.13237705 11.8864754,8.15286885 11.8852459,8.17540984 L11.4672131,8.12540984 L10.2266393,8.19672131 L11.467623,8.26762295 L11.8856557,8.21762295 C11.8868852,8.24016393 11.8938525,8.26065574 11.8987705,8.28196721 L11.4778689,8.34221311 L10.304918,8.7295082 C10.2901639,8.675 10.2741803,8.62172131 10.2639344,8.56557377 C10.3168033,8.55491803 10.3540984,8.50696721 10.3471311,8.45286885 C10.3401639,8.40122951 10.2946721,8.36803279 10.2438525,8.36762295 Z M10.479918,7.44467213 C10.5004098,7.39508197 10.4770492,7.34057377 10.4303279,7.31598361 C10.4545082,7.2647541 10.4827869,7.21598361 10.5110656,7.16721311 L11.5430328,7.8442623 L11.9307377,8.0102459 C11.9204918,8.02991803 11.9135246,8.05 11.9065574,8.07131148 L11.5139344,7.91393443 L10.304918,7.66270492 C10.3196721,7.60778689 10.3360656,7.55368852 10.3553279,7.50040984 C10.4053279,7.51516393 10.4594262,7.49385246 10.479918,7.44467213 Z M10.5959016,7.02090164 C10.6409836,7.05204918 10.702459,7.0442623 10.7360656,7.00040984 C10.7680328,6.95860656 10.7594262,6.90245902 10.7233607,6.86639344 C10.7602459,6.82254098 10.7922131,6.77459016 10.832377,6.73401639 L11.6598361,7.66147541 L11.9905738,7.92131148 C11.9758197,7.93770492 11.9659836,7.95737705 11.9536885,7.97581967 L11.6139344,7.72131148 L10.5114754,7.16598361 C10.5397541,7.11762295 10.5639344,7.06680328 10.5959016,7.02090164 Z M12.1086066,7.83278689 L11.942623,7.44508197 L11.2655738,6.41311475 C11.3143443,6.38483607 11.3631148,6.35655738 11.4143443,6.33237705 C11.4389344,6.37909836 11.4934426,6.40245902 11.5430328,6.38196721 C11.5922131,6.36147541 11.6135246,6.30778689 11.5991803,6.25778689 C11.652459,6.23852459 11.7065574,6.22213115 11.7614754,6.20737705 L12.0127049,7.41639344 L12.170082,7.80901639 C12.1483607,7.81516393 12.1282787,7.82254098 12.1086066,7.83278689 Z M10.9647541,6.625 C11.0008197,6.66147541 11.0569672,6.66967213 11.0987705,6.63770492 C11.142623,6.60409836 11.15,6.54262295 11.1192623,6.49754098 C11.1651639,6.46557377 11.2159836,6.44139344 11.2647541,6.41311475 L11.820082,7.51557377 L12.0745902,7.85532787 C12.0561475,7.86721311 12.0364754,7.87745902 12.020082,7.89221311 L11.7602459,7.56147541 L10.8327869,6.73401639 C10.8729508,6.69385246 10.9213115,6.66188525 10.9647541,6.625 Z M10.8327869,9.65901639 L11.7602459,8.83155738 L12.020082,8.50081967 C12.0364754,8.51557377 12.0561475,8.52540984 12.0745902,8.53770492 L11.820082,8.87745902 L11.2647541,9.97991803 C11.2159836,9.95163934 11.1651639,9.92745902 11.1192623,9.8954918 C11.1504098,9.85040984 11.142623,9.78893443 11.0987705,9.75532787 C11.0569672,9.72336066 11.0008197,9.73196721 10.9647541,9.76803279 C10.9213115,9.73114754 10.8729508,9.69959016 10.8327869,9.65901639 Z M12.1241803,10.247541 C12.1237705,10.1967213 12.0905738,10.1512295 12.0385246,10.1446721 C11.9844262,10.1377049 11.9368852,10.175 11.9258197,10.2278689 C11.8696721,10.217623 11.8163934,10.2016393 11.7618852,10.1868852 L12.1491803,9.01393443 L12.2094262,8.59303279 C12.2307377,8.59754098 12.2512295,8.60491803 12.2737705,8.60614754 L12.2237705,9.02418033 L12.295082,10.2647541 L12.3659836,9.02377049 L12.3159836,8.6057377 C12.3385246,8.6045082 12.3590164,8.59754098 12.3803279,8.59262295 L12.4405738,9.01352459 L12.8278689,10.1864754 C12.7733607,10.2012295 12.720082,10.2172131 12.6639344,10.227459 C12.6532787,10.175 12.6053279,10.1372951 12.5512295,10.1442623 C12.4995902,10.1512295 12.4659836,10.1963115 12.4655738,10.2471311 C12.4081967,10.2520492 12.3532787,10.2643443 12.2946721,10.2643443 C12.2360656,10.2643443 12.1815574,10.252459 12.1241803,10.247541 Z M13.6254098,9.76844262 C13.5893443,9.73196721 13.5331967,9.72377049 13.4913934,9.7557377 C13.447541,9.78934426 13.4401639,9.85081967 13.4709016,9.89590164 C13.425,9.92786885 13.3741803,9.95204918 13.3254098,9.98032787 L12.770082,8.87786885 L12.5155738,8.53811475 C12.5340164,8.52622951 12.5536885,8.51598361 12.570082,8.50122951 L12.829918,8.83196721 L13.757377,9.65942623 L12.929918,8.73196721 L12.5991803,8.47213115 C12.6139344,8.4557377 12.6237705,8.43606557 12.6360656,8.41762295 L12.9758197,8.67213115 L14.0782787,9.22745902 C14.05,9.27622951 14.0258197,9.32704918 13.9938525,9.37295082 C13.9487705,9.34180328 13.8872951,9.34959016 13.8536885,9.39344262 C13.8217213,9.4352459 13.8303279,9.49139344 13.8663934,9.52745902 C13.8295082,9.57131148 13.797541,9.6192623 13.757377,9.65983607 C13.7172131,9.69959016 13.6688525,9.73114754 13.6254098,9.76844262 Z" id="Shape" fill="#205BA8"></path>
                </g>
                <g id="Group" opacity="0.1" fill="#231F20">
                    <path d="M23.3762295,0.414754098 C23.8282787,0.414754098 24.1959016,0.782377049 24.1959016,1.23442623 L24.1959016,15.1688525 C24.1959016,15.6209016 23.8282787,15.9885246 23.3762295,15.9885246 L1.24508197,15.9885246 C0.793032787,15.9885246 0.425409836,15.6209016 0.425409836,15.1688525 L0.425409836,1.23442623 C0.425409836,0.782377049 0.793032787,0.414754098 1.24508197,0.414754098 L23.3762295,0.414754098 Z M23.3762295,0.00491803279 L1.24508197,0.00491803279 C0.565983607,0.00491803279 0.0155737705,0.555327869 0.0155737705,1.23442623 L0.0155737705,15.1688525 C0.0155737705,15.8479508 0.565983607,16.3983607 1.24508197,16.3983607 L23.3762295,16.3983607 C24.0553279,16.3983607 24.6057377,15.8479508 24.6057377,15.1688525 L24.6057377,1.23442623 C24.6057377,0.555327869 24.0553279,0.00491803279 23.3762295,0.00491803279 Z" id="Shape"></path>
                </g>
            </g>
        </g>
    </g>
</svg>