
<svg width="25px" height="17px" viewBox="0 0 25 17" version="1.1" xmlns="http://www.w3.org/2000/svg" xmlns:xlink="http://www.w3.org/1999/xlink">
    <!-- Generator: Sketch 50.2 (55047) - http://www.bohemiancoding.com/sketch -->
    <desc>Created with Sketch.</desc>
    <defs></defs>
    <g id="Dashboard_light_10x-fonts" stroke="none" stroke-width="1" fill="none" fill-rule="evenodd">
        <g id="EMP100---AMER-Overview-Dashboard" transform="translate(-221.000000, -331.000000)" fill-rule="nonzero">
            <g id="Group-2" transform="translate(221.000000, 207.000000)">
                <g id="argentina" transform="translate(0.000000, 124.000000)">
                    <g id="Group">
                        <rect id="Rectangle-path" fill="#44B9EB" x="0.0143442623" y="11.0663934" width="24.5901639" height="5.32786885"></rect>
                        <rect id="Rectangle-path" fill="#44B9EB" x="0.0143442623" y="0" width="24.5901639" height="5.32786885"></rect>
                        <rect id="Rectangle-path" fill="#FFFFFF" x="0" y="5.32868852" width="24.5901639" height="5.73770492"></rect>
                        <g transform="translate(9.836066, 5.737705)" id="Shape">
                            <path d="M2.92845902,4.34057377 C2.87995902,4.25491803 2.82445902,4.15778689 2.84695902,3.93032787 C2.86295902,3.76639344 2.82245902,3.6647541 2.78295902,3.56639344 C2.75695902,3.50204918 2.73745902,3.4352459 2.72845902,3.35901639 C2.71495902,3.36188525 2.70195902,3.36680328 2.68795902,3.3692623 C2.71945902,3.61516393 2.86545902,3.77172131 2.78845902,3.95860656 C2.82245902,3.72909836 2.68545902,3.59385246 2.63045902,3.37827869 C2.61295902,3.3807377 2.59495902,3.3807377 2.57745902,3.38278689 C2.59645902,3.45614754 2.62295902,3.525 2.65245902,3.59016393 C2.70645902,3.70901639 2.75745902,3.82172131 2.74195902,3.96393443 C2.72045902,4.1602459 2.81145902,4.2954918 2.87795902,4.3942623 C2.90395902,4.43237705 2.92595902,4.46557377 2.93845902,4.49631148 C2.96595902,4.5647541 2.94445902,4.61639344 2.92995902,4.65040984 C2.92695902,4.65737705 2.92345902,4.66639344 2.92195902,4.67172131 C2.92495902,4.67090164 2.92995902,4.66844262 2.93595902,4.66352459 C2.96245902,4.64221311 3.00195902,4.57745902 2.98245902,4.4692623 C2.97395902,4.4204918 2.95295902,4.38360656 2.92845902,4.34057377 Z" fill="#F8A24B"></path>
                            <path d="M2.8692623,3.29631148 C2.85778689,3.30204918 2.84754098,3.30942623 2.83565574,3.31434426 L3.04631148,3.87991803 L2.79467213,3.32991803 C2.78360656,3.33401639 2.77172131,3.33688525 2.7602459,3.34057377 L3.30491803,4.52704918 C3.30655738,4.53114754 3.31598361,4.54877049 3.32336066,4.54590164 C3.325,4.54508197 3.32540984,4.5442623 3.32581967,4.54344262 C3.32827869,4.53770492 3.32540984,4.525 3.32336066,4.52008197 L2.8692623,3.29631148 Z" fill="#F8A24B"></path>
                            <path d="M2.41728689,3.38278689 C2.40328689,3.38114754 2.38878689,3.38114754 2.37528689,3.37909836 C2.28928689,3.61680328 2.35128689,3.80696721 2.19228689,3.9557377 C2.33078689,3.7545082 2.26778689,3.58729508 2.31728689,3.37131148 C2.29978689,3.36803279 2.28328689,3.36229508 2.26628689,3.35819672 C2.24978689,3.43155738 2.24228689,3.50327869 2.23878689,3.57295082 C2.23328689,3.7 2.22778689,3.81967213 2.14678689,3.94631148 C2.03528689,4.12090164 2.05628689,4.27418033 2.07178689,4.38647541 C2.07778689,4.42991803 2.08278689,4.46762295 2.07978689,4.49959016 C2.07328689,4.57131148 2.02928689,4.61229508 2.00028689,4.63934426 C1.99428689,4.64508197 1.98678689,4.65204918 1.98278689,4.65655738 C1.98628689,4.65737705 1.99128689,4.65614754 1.99928689,4.65368852 C2.03378689,4.64262295 2.10028689,4.59508197 2.13328689,4.48852459 C2.14828689,4.44057377 2.14578689,4.39959016 2.14328689,4.35245902 C2.13828689,4.25819672 2.13278689,4.15081967 2.25978689,3.94795082 C2.35128689,3.80163934 2.36128689,3.69508197 2.37078689,3.59180328 C2.37678689,3.52459016 2.38978689,3.45614754 2.41728689,3.38278689 Z" fill="#F8A24B"></path>
                            <path d="M2.4975,3.39303279 L2.4705,3.99672131 L2.4435,3.39262295 C2.4285,3.39221311 2.4145,3.3897541 2.4,3.38893443 L2.46,4.69385246 C2.46,4.69836066 2.4625,4.71844262 2.472,4.71844262 C2.4735,4.71844262 2.4775,4.71844262 2.481,4.70983607 C2.484,4.70245902 2.484,4.69467213 2.484,4.69467213 L2.544,3.38893443 C2.528,3.3897541 2.513,3.39262295 2.4975,3.39303279 Z" fill="#F8A24B"></path>
                            <path d="M2.12131148,3.3295082 L1.86967213,3.87909836 L2.08032787,3.31311475 C2.0692623,3.30819672 2.05942623,3.30122951 2.04877049,3.29590164 L1.59508197,4.51967213 C1.59344262,4.52377049 1.58770492,4.54303279 1.59467213,4.54590164 C1.60163934,4.54918033 1.61147541,4.53114754 1.61270492,4.52745902 L2.15778689,3.34016393 C2.14590164,3.33688525 2.13319672,3.33401639 2.12131148,3.3295082 Z" fill="#F8A24B"></path>
                            <path d="M1.8795082,3.4454918 C1.9102459,3.38483607 1.94631148,3.32622951 1.99467213,3.26680328 C1.98483607,3.26106557 1.97377049,3.25655738 1.96434426,3.25040984 C1.80819672,3.44303279 1.78237705,3.63852459 1.60532787,3.72581967 C1.78729508,3.58319672 1.80368852,3.40860656 1.92377049,3.22459016 C1.91188525,3.21598361 1.90163934,3.2057377 1.89016393,3.19672131 C1.84959016,3.25942623 1.81598361,3.32336066 1.78729508,3.38688525 C1.73442623,3.50245902 1.68442623,3.61147541 1.57459016,3.70327869 C1.42336066,3.8295082 1.3807377,3.97786885 1.34918033,4.08647541 C1.33688525,4.12868852 1.32663934,4.1647541 1.31188525,4.19344262 C1.2795082,4.25778689 1.23032787,4.28155738 1.19795082,4.29754098 C1.19139344,4.30081967 1.18278689,4.30491803 1.17827869,4.30819672 C1.1807377,4.30942623 1.18483607,4.31065574 1.19221311,4.31065574 L1.19303279,4.31065574 C1.22377049,4.31065574 1.29180328,4.28729508 1.35655738,4.2 C1.38606557,4.1602459 1.4,4.12172131 1.41639344,4.07745902 C1.44877049,3.98852459 1.4852459,3.88770492 1.65942623,3.7397541 C1.78442623,3.63319672 1.83278689,3.53770492 1.8795082,3.4454918 Z" fill="#F8A24B"></path>
                            <path d="M1.84344262,3.15860656 C1.83401639,3.15 1.82336066,3.14303279 1.81393443,3.13442623 L1.37131148,3.54590164 L1.78319672,3.10286885 C1.775,3.0942623 1.76844262,3.08401639 1.7602459,3.075 L0.872131148,4.03237705 C0.869262295,4.03565574 0.856147541,4.05122951 0.861885246,4.05655738 C0.867213115,4.06188525 0.883196721,4.04918033 0.885655738,4.04672131 L1.84344262,3.15860656 Z" fill="#F8A24B"></path>
                            <path d="M1.54631148,3.14877049 C1.59795082,3.1045082 1.65368852,3.06393443 1.72131148,3.02786885 C1.71434426,3.01885246 1.70614754,3.01065574 1.69918033,3.00122951 C1.48155738,3.1192623 1.38278689,3.29016393 1.18565574,3.30286885 C1.40860656,3.24098361 1.49016393,3.0852459 1.67213115,2.96147541 C1.66434426,2.94918033 1.65860656,2.93565574 1.65122951,2.92295082 C1.58934426,2.96557377 1.53442623,3.01188525 1.48319672,3.05901639 C1.39016393,3.1454918 1.30204918,3.22704918 1.16557377,3.26967213 C0.977868852,3.32827869 0.881147541,3.44918033 0.810655738,3.53770492 C0.783196721,3.57172131 0.759836066,3.60163934 0.735245902,3.62254098 C0.680737705,3.6692623 0.626229508,3.67295082 0.590163934,3.67540984 C0.582786885,3.67581967 0.573360656,3.67663934 0.568032787,3.67745902 C0.569672131,3.6795082 0.573360656,3.68196721 0.579918033,3.68483607 C0.607786885,3.69672131 0.679918033,3.70204918 0.774180328,3.64590164 C0.816803279,3.6204918 0.844262295,3.59016393 0.876229508,3.55532787 C0.940163934,3.48565574 1.01229508,3.40655738 1.22991803,3.33647541 C1.38647541,3.28565574 1.46762295,3.21598361 1.54631148,3.14877049 Z" fill="#F8A24B"></path>
                            <path d="M1.62254098,2.86967213 C1.61680328,2.85819672 1.60942623,2.84795082 1.6045082,2.83606557 L1.03893443,3.04672131 L1.58893443,2.79508197 C1.58483607,2.78401639 1.58196721,2.77213115 1.57827869,2.76065574 L0.391393443,3.30532787 C0.387295082,3.30696721 0.369262295,3.31639344 0.372540984,3.32377049 C0.37295082,3.325 0.374180328,3.32786885 0.383196721,3.32704918 C0.390983607,3.32663934 0.398360656,3.32377049 0.398360656,3.32377049 L1.62254098,2.86967213 Z" fill="#F8A24B"></path>
                            <path d="M1.55942623,2.72927869 C1.55655738,2.71577869 1.55163934,2.70277869 1.54918033,2.68877869 C1.30327869,2.72027869 1.14672131,2.86627869 0.959836066,2.78927869 C1.18934426,2.82327869 1.32459016,2.68627869 1.54016393,2.63127869 C1.53770492,2.61377869 1.53770492,2.59577869 1.53565574,2.57827869 C1.46229508,2.59727869 1.39344262,2.62377869 1.32827869,2.65327869 C1.20901639,2.70727869 1.09672131,2.75827869 0.954508197,2.74277869 C0.758196721,2.72127869 0.62295082,2.81227869 0.524180328,2.87877869 C0.485655738,2.90477869 0.452868852,2.92677869 0.422131148,2.93927869 C0.353688525,2.96677869 0.30204918,2.94527869 0.268032787,2.93077869 C0.261065574,2.92777869 0.25204918,2.92427869 0.246721311,2.92277869 C0.247540984,2.92577869 0.25,2.93077869 0.254918033,2.93677869 C0.276229508,2.96327869 0.340983607,3.00277869 0.449180328,2.98327869 C0.498360656,2.97427869 0.535245902,2.95327869 0.577868852,2.92927869 C0.66352459,2.88027869 0.760655738,2.82527869 0.988114754,2.84777869 C1.15204918,2.86377869 1.25368852,2.82327869 1.35204918,2.78377869 C1.41680328,2.75827869 1.48360656,2.73827869 1.55942623,2.72927869 Z" fill="#F8A24B"></path>
                            <path d="M1.52581967,2.49831967 L0.922131148,2.47131967 L1.52622951,2.44431967 C1.52663934,2.42931967 1.52909836,2.41531967 1.52991803,2.40081967 L0.225,2.46081967 C0.220491803,2.46081967 0.200409836,2.46331967 0.200409836,2.47281967 C0.200409836,2.47431967 0.200409836,2.47831967 0.209016393,2.48181967 C0.216393443,2.48481967 0.224180328,2.48481967 0.224180328,2.48481967 L1.52991803,2.54481967 C1.52868852,2.52881967 1.52622951,2.51381967 1.52581967,2.49831967 Z" fill="#F8A24B"></path>
                            <path d="M0.429508197,2.13410656 C0.477868852,2.14860656 0.518442623,2.14660656 0.56557377,2.14410656 C0.660245902,2.13910656 0.767213115,2.13360656 0.970081967,2.26010656 C1.11639344,2.35160656 1.22295082,2.36160656 1.32622951,2.37110656 C1.3942623,2.37760656 1.46229508,2.39060656 1.53565574,2.41760656 C1.53729508,2.40360656 1.53729508,2.38910656 1.53934426,2.37560656 C1.30163934,2.28960656 1.11106557,2.35160656 0.962295082,2.19260656 C1.16352459,2.33110656 1.33114754,2.26810656 1.54672131,2.31760656 C1.55,2.30010656 1.5557377,2.28360656 1.55983607,2.26660656 C1.48647541,2.25010656 1.4147541,2.24260656 1.34508197,2.23910656 C1.21803279,2.23360656 1.09836066,2.22810656 0.971721311,2.14710656 C0.797131148,2.03560656 0.643852459,2.05660656 0.531557377,2.07210656 C0.488114754,2.07810656 0.450819672,2.08310656 0.418442623,2.08010656 C0.346721311,2.07360656 0.305737705,2.02960656 0.278688525,2.00060656 C0.273360656,1.99460656 0.265983607,1.98710656 0.26147541,1.98360656 C0.26147541,1.98660656 0.261885246,1.99210656 0.264344262,2.00010656 C0.275819672,2.03460656 0.32295082,2.10160656 0.429508197,2.13410656 Z" fill="#F8A24B"></path>
                            <path d="M1.57786885,2.15860656 C1.58196721,2.14672131 1.58442623,2.13401639 1.58934426,2.12213115 L1.0397541,1.8704918 L1.6057377,2.08114754 C1.61065574,2.07008197 1.61762295,2.0602459 1.62295082,2.04959016 L0.399180328,1.59590164 C0.395081967,1.5942623 0.375819672,1.58811475 0.37295082,1.5954918 C0.370081967,1.60286885 0.387704918,1.61229508 0.391393443,1.61352459 L1.57786885,2.15860656 Z" fill="#F8A24B"></path>
                            <path d="M1.47336066,1.87991803 C1.53401639,1.91065574 1.59303279,1.94672131 1.65204918,1.9954918 C1.65778689,1.98565574 1.66229508,1.975 1.66844262,1.96516393 C1.47581967,1.80901639 1.28032787,1.78319672 1.19262295,1.6057377 C1.3352459,1.78770492 1.50983607,1.80409836 1.69385246,1.92418033 C1.70245902,1.91229508 1.71270492,1.90204918 1.72172131,1.89057377 C1.65901639,1.85 1.59508197,1.81639344 1.53155738,1.78770492 C1.41598361,1.73483607 1.30696721,1.68483607 1.21516393,1.575 C1.08893443,1.42377049 0.94057377,1.38114754 0.831967213,1.34959016 C0.789754098,1.33729508 0.753688525,1.32704918 0.725,1.31229508 C0.660655738,1.27991803 0.636885246,1.2307377 0.620901639,1.19836066 C0.617622951,1.19180328 0.61352459,1.18319672 0.610245902,1.17868852 C0.609016393,1.18114754 0.607786885,1.1852459 0.607786885,1.19262295 C0.607377049,1.22295082 0.630327869,1.29180328 0.718442623,1.35696721 C0.758196721,1.38647541 0.796721311,1.40040984 0.840983607,1.41680328 C0.929918033,1.44918033 1.0307377,1.48565574 1.17827869,1.65983607 C1.28565574,1.78483607 1.38114754,1.83319672 1.47336066,1.87991803 Z" fill="#F8A24B"></path>
                            <path d="M1.36393443,0.877459016 C1.43360656,0.941393443 1.51270492,1.01393443 1.58278689,1.23114754 C1.63319672,1.38770492 1.70286885,1.46885246 1.7704918,1.54713115 C1.8147541,1.59877049 1.85532787,1.65409836 1.89139344,1.72213115 C1.90040984,1.71516393 1.90860656,1.70696721 1.91803279,1.7 C1.8,1.48237705 1.62909836,1.38360656 1.61639344,1.18647541 C1.67827869,1.40942623 1.83401639,1.49139344 1.95778689,1.67295082 C1.97008197,1.66516393 1.98360656,1.65942623 1.99631148,1.65204918 C1.95368852,1.59016393 1.90737705,1.5352459 1.8602459,1.48401639 C1.77377049,1.39098361 1.69221311,1.30327869 1.64959016,1.16639344 C1.59098361,0.978688525 1.47008197,0.881967213 1.38155738,0.81147541 C1.34754098,0.78442623 1.31762295,0.760655738 1.29672131,0.736065574 C1.25,0.681557377 1.24631148,0.62704918 1.24385246,0.590983607 C1.24344262,0.583606557 1.24262295,0.574180328 1.24180328,0.568852459 C1.2397541,0.570491803 1.23729508,0.574180328 1.23442623,0.580737705 C1.22254098,0.608606557 1.21721311,0.680737705 1.27377049,0.775 C1.29877049,0.818032787 1.32909836,0.845491803 1.36393443,0.877459016 Z" fill="#F8A24B"></path>
                            <path d="M0.861885246,0.862704918 C0.861065574,0.86352459 0.858606557,0.865983607 0.862704918,0.873770492 C0.865983607,0.880737705 0.871721311,0.88647541 0.871721311,0.88647541 L1.7602459,1.84467213 C1.76885246,1.8352459 1.77581967,1.82459016 1.78442623,1.81516393 L1.37295082,1.37254098 L1.81598361,1.78442623 C1.82459016,1.77622951 1.83483607,1.76967213 1.84385246,1.76147541 L0.88647541,0.873360656 C0.883196721,0.870081967 0.867622951,0.856967213 0.861885246,0.862704918 Z" fill="#F8A24B"></path>
                            <path d="M2.06363819,0.578688525 C2.11213819,0.664344262 2.16763819,0.76147541 2.14513819,0.988934426 C2.12913819,1.15286885 2.16963819,1.2545082 2.20913819,1.35286885 C2.23513819,1.41721311 2.25463819,1.48401639 2.26363819,1.5602459 C2.27713819,1.55737705 2.29013819,1.55245902 2.30413819,1.55 C2.27263819,1.30409836 2.12663819,1.14754098 2.20363819,0.960655738 C2.16963819,1.19016393 2.30663819,1.32540984 2.36163819,1.54098361 C2.37913819,1.53852459 2.39713819,1.53852459 2.41463819,1.53647541 C2.39563819,1.46311475 2.36913819,1.3942623 2.33963819,1.32909836 C2.28563819,1.2102459 2.23463819,1.09754098 2.25013819,0.955327869 C2.27163819,0.759016393 2.18063819,0.623770492 2.11363819,0.525 C2.08763819,0.48647541 2.06563819,0.453688525 2.05313819,0.42295082 C2.02563819,0.354508197 2.04713819,0.302868852 2.06163819,0.268852459 C2.06463819,0.261885246 2.06813819,0.252868852 2.06963819,0.247540984 C2.06663819,0.248360656 2.06163819,0.250819672 2.05563819,0.255737705 C2.02913819,0.276639344 1.98963819,0.341393443 2.00913819,0.45 C2.01813819,0.498770492 2.03913819,0.535655738 2.06363819,0.578688525 Z" fill="#F8A24B"></path>
                            <path d="M2.04877049,1.62336066 C2.0602459,1.61762295 2.0704918,1.6102459 2.08237705,1.60532787 L1.87172131,1.0397541 L2.12336066,1.5897541 C2.13442623,1.58565574 2.14631148,1.58278689 2.15778689,1.57909836 L1.61311475,0.392213115 C1.61147541,0.388114754 1.60204918,0.370491803 1.59467213,0.373360656 C1.59344262,0.373770492 1.59057377,0.375 1.59139344,0.384016393 C1.59180328,0.391803279 1.59467213,0.399180328 1.59467213,0.399180328 L2.04877049,1.62336066 Z" fill="#F8A24B"></path>
                            <path d="M2.57909836,1.53647541 C2.59309836,1.53811475 2.60759836,1.53811475 2.62109836,1.54016393 C2.70709836,1.30245902 2.64509836,1.11188525 2.80409836,0.963114754 C2.66559836,1.16434426 2.72859836,1.33196721 2.67909836,1.54754098 C2.69659836,1.55081967 2.71309836,1.55655738 2.73009836,1.56065574 C2.74659836,1.48729508 2.75409836,1.41557377 2.75759836,1.34590164 C2.76309836,1.21885246 2.76859836,1.09918033 2.84959836,0.972540984 C2.96109836,0.79795082 2.94009836,0.644672131 2.92459836,0.532377049 C2.91859836,0.488934426 2.91359836,0.451229508 2.91659836,0.419262295 C2.92309836,0.347540984 2.96709836,0.306557377 2.99609836,0.279508197 C3.00209836,0.274180328 3.00959836,0.266803279 3.01359836,0.262295082 C3.01009836,0.262295082 3.00509836,0.262704918 2.99709836,0.265163934 C2.96259836,0.276229508 2.89609836,0.323770492 2.86309836,0.430327869 C2.84809836,0.478688525 2.85059836,0.519262295 2.85309836,0.566393443 C2.85809836,0.661065574 2.86359836,0.768032787 2.73709836,0.971311475 C2.64559836,1.11762295 2.63559836,1.22418033 2.62609836,1.32745902 C2.61959836,1.39508197 2.60659836,1.46311475 2.57909836,1.53647541 Z" fill="#F8A24B"></path>
                            <path d="M2.4465,1.52663934 L2.4735,0.92295082 L2.5005,1.52704918 C2.5155,1.52745902 2.5295,1.52991803 2.544,1.5307377 L2.484,0.225819672 C2.484,0.221311475 2.4815,0.201229508 2.472,0.201229508 C2.4705,0.202459016 2.4665,0.201229508 2.463,0.209836066 C2.46,0.217213115 2.46,0.225 2.46,0.225 L2.4,1.5307377 C2.416,1.5295082 2.4305,1.52663934 2.4465,1.52663934 Z" fill="#F8A24B"></path>
                            <path d="M2.79672131,1.5897541 L3.04836066,1.04016393 L2.83770492,1.60614754 C2.84877049,1.61106557 2.85860656,1.61803279 2.8692623,1.62336066 L3.32295082,0.399590164 C3.32459016,0.395491803 3.33032787,0.376229508 3.32336066,0.37295082 C3.31639344,0.370081967 3.30655738,0.387704918 3.30532787,0.391393443 L2.7602459,1.57868852 C2.77213115,1.58278689 2.78483607,1.5852459 2.79672131,1.5897541 Z" fill="#F8A24B"></path>
                            <path d="M3.03852459,1.47377049 C3.00778689,1.53442623 2.97172131,1.59344262 2.92295082,1.65245902 C2.93278689,1.65819672 2.94344262,1.66270492 2.95327869,1.66885246 C3.10942623,1.47622951 3.1352459,1.2807377 3.31270492,1.19303279 C3.1307377,1.33565574 3.11434426,1.5102459 2.9942623,1.6942623 C3.00614754,1.70286885 3.01639344,1.71311475 3.02827869,1.72213115 C3.06885246,1.65942623 3.10245902,1.5954918 3.13114754,1.53196721 C3.18401639,1.41639344 3.23401639,1.30737705 3.34385246,1.21557377 C3.49508197,1.08934426 3.53770492,0.940983607 3.5692623,0.832377049 C3.58155738,0.790163934 3.59180328,0.754098361 3.60655738,0.725409836 C3.63893443,0.661065574 3.68811475,0.637295082 3.7204918,0.621311475 C3.72704918,0.618032787 3.73565574,0.613934426 3.74016393,0.610655738 C3.73770492,0.60942623 3.73360656,0.608196721 3.72622951,0.608196721 C3.69631148,0.608606557 3.62704918,0.630737705 3.56188525,0.718852459 C3.53237705,0.758606557 3.51844262,0.797131148 3.50204918,0.841393443 C3.46967213,0.930327869 3.43319672,1.03114754 3.25901639,1.17868852 C3.13360656,1.28647541 3.0852459,1.38155738 3.03852459,1.47377049 Z" fill="#F8A24B"></path>
                            <path d="M3.07459016,1.76106557 C3.08401639,1.76967213 3.09467213,1.77663934 3.10409836,1.7852459 L3.54672131,1.37377049 L3.13483607,1.81680328 C3.14303279,1.82540984 3.14959016,1.83565574 3.15778689,1.8442623 L4.04590164,0.886885246 C4.04877049,0.883606557 4.06188525,0.868032787 4.05614754,0.862704918 C4.05491803,0.86147541 4.05409836,0.86147541 4.05286885,0.86147541 C4.04631148,0.86147541 4.03606557,0.868852459 4.03237705,0.87295082 L3.07459016,1.76106557 Z" fill="#F8A24B"></path>
                            <path d="M3.37172131,1.77090164 C3.32008197,1.81516393 3.26434426,1.8557377 3.19672131,1.89180328 C3.20368852,1.90081967 3.21188525,1.90901639 3.21885246,1.91844262 C3.43647541,1.80040984 3.5352459,1.6295082 3.73237705,1.61680328 C3.50942623,1.67868852 3.42745902,1.83442623 3.24590164,1.95819672 C3.25368852,1.9704918 3.25942623,1.98401639 3.26680328,1.99672131 C3.32868852,1.95409836 3.38360656,1.90778689 3.43483607,1.86065574 C3.52786885,1.77418033 3.61557377,1.69262295 3.75245902,1.65 C3.94057377,1.59139344 4.03688525,1.4704918 4.10737705,1.38196721 C4.13483607,1.34795082 4.15819672,1.31803279 4.18278689,1.29713115 C4.23729508,1.25040984 4.29180328,1.24672131 4.32786885,1.2442623 C4.3352459,1.24385246 4.34467213,1.24303279 4.35,1.24221311 C4.34836066,1.24016393 4.34467213,1.23770492 4.33811475,1.23483607 C4.3102459,1.22295082 4.23811475,1.21762295 4.14385246,1.27418033 C4.10122951,1.29959016 4.07377049,1.3295082 4.04180328,1.36434426 C3.97786885,1.43401639 3.9057377,1.51311475 3.68811475,1.58319672 C3.53155738,1.63360656 3.45040984,1.70327869 3.37172131,1.77090164 Z" fill="#F8A24B"></path>
                            <path d="M3.35860656,2.26404802 C3.36147541,2.27754802 3.36639344,2.29054802 3.36885246,2.30454802 C3.6147541,2.27304802 3.77131148,2.12704802 3.95819672,2.20404802 C3.72868852,2.17004802 3.59344262,2.30704802 3.37786885,2.36204802 C3.38032787,2.37954802 3.38032787,2.39754802 3.38237705,2.41504802 C3.4557377,2.39604802 3.52459016,2.36954802 3.5897541,2.34004802 C3.70860656,2.28604802 3.82131148,2.23504802 3.96393443,2.25054802 C4.15983607,2.27204802 4.2954918,2.18104802 4.3942623,2.11404802 C4.43237705,2.08804802 4.46557377,2.06604802 4.49631148,2.05354802 C4.5647541,2.02604802 4.61639344,2.04754802 4.65040984,2.06204802 C4.65737705,2.06504802 4.66639344,2.06854802 4.67172131,2.07004802 C4.67090164,2.06704802 4.66844262,2.06204802 4.66352459,2.05604802 C4.64221311,2.02954802 4.57786885,1.99004802 4.4692623,2.00954802 C4.42008197,2.01854802 4.38319672,2.03954802 4.34057377,2.06354802 C4.25491803,2.11254802 4.15778689,2.16754802 3.93032787,2.14504802 C3.76639344,2.12904802 3.6647541,2.16954802 3.56639344,2.20904802 C3.50122951,2.23554802 3.43483607,2.25504802 3.35860656,2.26404802 Z" fill="#F8A24B"></path>
                            <path d="M3.2954918,2.04959016 C3.30122951,2.06106557 3.30860656,2.07131148 3.31352459,2.08319672 L3.87909836,1.87254098 L3.32909836,2.12418033 C3.33319672,2.1352459 3.33606557,2.14713115 3.3397541,2.15860656 L4.52622951,1.61393443 C4.53032787,1.61229508 4.54836066,1.60286885 4.54508197,1.5954918 C4.5442623,1.59385246 4.54344262,1.59344262 4.54262295,1.59303279 C4.53688525,1.59057377 4.52418033,1.59344262 4.5192623,1.59590164 L3.2954918,2.04959016 Z" fill="#F8A24B"></path>
                            <path d="M4.48852459,2.86341803 C4.44057377,2.84841803 4.39959016,2.85091803 4.35245902,2.85341803 C4.25819672,2.85841803 4.15081967,2.86441803 3.94795082,2.73741803 C3.80163934,2.64591803 3.69508197,2.63591803 3.59180328,2.62641803 C3.52377049,2.61991803 3.4557377,2.60741803 3.38237705,2.57991803 C3.3807377,2.59391803 3.3807377,2.60841803 3.37868852,2.62191803 C3.61639344,2.70791803 3.80696721,2.64591803 3.95532787,2.80491803 C3.75409836,2.66641803 3.58688525,2.72941803 3.37090164,2.67991803 C3.36762295,2.69741803 3.36188525,2.71391803 3.35778689,2.73091803 C3.43114754,2.74741803 3.50286885,2.75491803 3.57254098,2.75841803 C3.69959016,2.76391803 3.8192623,2.76941803 3.94590164,2.85041803 C4.1204918,2.96191803 4.27377049,2.94091803 4.38606557,2.92541803 C4.4295082,2.91941803 4.46721311,2.91441803 4.49918033,2.91741803 C4.57090164,2.92391803 4.61188525,2.96791803 4.63893443,2.99691803 C4.6442623,3.00291803 4.65163934,3.01041803 4.65614754,3.01441803 C4.65614754,3.01141803 4.6557377,3.00591803 4.65327869,2.99791803 C4.64221311,2.96291803 4.59467213,2.89641803 4.48852459,2.86341803 Z" fill="#F8A24B"></path>
                            <path d="M4.70901639,2.46381967 C4.70163934,2.46081967 4.69385246,2.46081967 4.69385246,2.46081967 L3.38811475,2.40081967 C3.38893443,2.41631967 3.39180328,2.43131967 3.39180328,2.44731967 L3.9954918,2.47431967 L3.39139344,2.50131967 C3.39098361,2.51631967 3.38852459,2.53031967 3.38770492,2.54481967 L4.69262295,2.48481967 C4.69713115,2.48481967 4.71721311,2.48231967 4.71721311,2.47281967 C4.71762295,2.47081967 4.71762295,2.46731967 4.70901639,2.46381967 Z" fill="#F8A24B"></path>
                            <path d="M4.7204918,2.41803279 C4.70737705,2.41352459 4.69508197,2.41352459 4.6942623,2.41352459 L3.44180328,2.36639344 C3.49754098,2.35122951 3.55081967,2.33278689 3.60245902,2.31393443 C3.71762295,2.27131148 3.82622951,2.2307377 3.9602459,2.24262295 C4.16721311,2.26106557 4.30860656,2.18360656 4.41147541,2.12663934 C4.44795082,2.10655738 4.47991803,2.08893443 4.50696721,2.07991803 C4.56393443,2.06147541 4.60655738,2.07581967 4.63811475,2.08647541 C4.66188525,2.09467213 4.69139344,2.1045082 4.7045082,2.07704918 C4.70860656,2.06885246 4.71270492,2.05245902 4.69713115,2.0307377 C4.66762295,1.99057377 4.58196721,1.95532787 4.46352459,1.97295082 C4.40901639,1.98114754 4.36803279,2 4.32459016,2.0204918 C4.24303279,2.05860656 4.15081967,2.10163934 3.93278689,2.08401639 C3.76147541,2.07008197 3.65655738,2.1045082 3.55491803,2.13811475 C3.49672131,2.15737705 3.44016393,2.17581967 3.37295082,2.18401639 L4.54139344,1.64754098 C4.54262295,1.64713115 4.55409836,1.64221311 4.56434426,1.63319672 C4.58114754,1.61844262 4.58688525,1.59959016 4.57909836,1.58196721 C4.575,1.57172131 4.56721311,1.56393443 4.55696721,1.55942623 C4.5352459,1.55040984 4.50860656,1.56106557 4.50655738,1.56188525 L3.33114754,1.99754098 C3.37663934,1.96229508 3.4192623,1.925 3.45942623,1.88770492 C3.54918033,1.80409836 3.63442623,1.725 3.76311475,1.68483607 C3.96147541,1.62295082 4.06229508,1.49672131 4.13565574,1.40491803 C4.16188525,1.37213115 4.18442623,1.34385246 4.20614754,1.325 C4.25163934,1.28606557 4.29672131,1.28319672 4.32991803,1.28114754 C4.35491803,1.2795082 4.38606557,1.27745902 4.38770492,1.24672131 C4.38811475,1.23770492 4.38565574,1.2204918 4.36311475,1.20696721 C4.3204918,1.18114754 4.22786885,1.18155738 4.125,1.24303279 C4.07786885,1.27131148 4.04713115,1.3045082 4.0147541,1.34016393 C3.95409836,1.40655738 3.88483607,1.48196721 3.67704918,1.54877049 C3.51352459,1.60163934 3.4295082,1.67377049 3.34836066,1.74344262 C3.30163934,1.78360656 3.25655738,1.82213115 3.19795082,1.85532787 L4.07254098,0.912704918 C4.09303279,0.892213115 4.10491803,0.859836066 4.08237705,0.837295082 C4.07459016,0.829508197 4.06434426,0.825 4.05327869,0.825 C4.0295082,0.825 4.00942623,0.844672131 4.00737705,0.846721311 L3.08852459,1.69918033 C3.11721311,1.64918033 3.14180328,1.59836066 3.1647541,1.54877049 C3.21598361,1.43729508 3.26393443,1.33155738 3.36762295,1.2454918 C3.52745902,1.11229508 3.57213115,0.957377049 3.6045082,0.844262295 C3.61598361,0.804098361 3.62622951,0.769262295 3.63934426,0.743442623 C3.66639344,0.690163934 3.70696721,0.670081967 3.73688525,0.655327869 C3.75942623,0.644262295 3.78729508,0.630737705 3.77704918,0.601639344 C3.77418033,0.593032787 3.76516393,0.578278689 3.73893443,0.574180328 C3.6897541,0.566393443 3.60409836,0.60204918 3.53278689,0.698360656 C3.5,0.742622951 3.48442623,0.785245902 3.46803279,0.829918033 C3.43729508,0.914754098 3.40245902,1.0102459 3.23565574,1.15204918 C3.10491803,1.26352459 3.05491803,1.36229508 3.00655738,1.45737705 C2.97868852,1.51229508 2.95204918,1.56516393 2.9102459,1.61803279 L3.35737705,0.412295082 C3.36844262,0.385655738 3.36721311,0.351229508 3.33770492,0.338934426 C3.32745902,0.334836066 3.31639344,0.33442623 3.30614754,0.338934426 C3.28442623,0.34795082 3.27295082,0.374180328 3.27213115,0.376229508 L2.74918033,1.51516393 C2.75655738,1.45778689 2.75983607,1.40163934 2.76188525,1.34672131 C2.76639344,1.22418033 2.7704918,1.10819672 2.83319672,0.988934426 C2.92991803,0.804508197 2.91188525,0.644672131 2.89877049,0.527868852 C2.8942623,0.486065574 2.89016393,0.450409836 2.89221311,0.421721311 C2.89672131,0.362295082 2.92663934,0.328278689 2.94836066,0.303278689 C2.9647541,0.28442623 2.9852459,0.261065574 2.96516393,0.238114754 C2.95901639,0.231557377 2.9454918,0.220901639 2.91967213,0.227459016 C2.87131148,0.239344262 2.8057377,0.304918033 2.77663934,0.421311475 C2.76311475,0.474590164 2.76516393,0.520081967 2.76721311,0.567622951 C2.77131148,0.657377049 2.77581967,0.75942623 2.67581967,0.954098361 C2.59754098,1.10696721 2.58893443,1.21721311 2.58114754,1.32418033 C2.57663934,1.3852459 2.57213115,1.44467213 2.55368852,1.50942623 L2.50532787,0.224590164 C2.50532787,0.195491803 2.49098361,0.164344262 2.45901639,0.164344262 C2.43934426,0.164344262 2.42418033,0.176639344 2.41721311,0.19795082 C2.41270492,0.211065574 2.41270492,0.223360656 2.41270492,0.224180328 L2.36557377,1.47663934 C2.35040984,1.42090164 2.33196721,1.36762295 2.31311475,1.31639344 C2.2704918,1.20122951 2.22991803,1.09262295 2.24180328,0.958196721 C2.26065574,0.750819672 2.18278689,0.609836066 2.12581967,0.506967213 C2.1057377,0.470491803 2.08811475,0.43852459 2.07909836,0.41147541 C2.06065574,0.354508197 2.075,0.311885246 2.08565574,0.280327869 C2.09385246,0.256557377 2.10368852,0.22704918 2.07622951,0.213934426 C2.06803279,0.209836066 2.05163934,0.205737705 2.02991803,0.221311475 C1.9897541,0.250819672 1.9545082,0.33647541 1.97213115,0.454918033 C1.97991803,0.50942623 1.99918033,0.550409836 2.01967213,0.593852459 C2.05778689,0.675409836 2.10081967,0.768032787 2.08319672,0.986065574 C2.0692623,1.15737705 2.10368852,1.26229508 2.13729508,1.36393443 C2.15655738,1.42213115 2.175,1.47868852 2.18319672,1.5454918 L1.64672131,0.37704918 C1.63565574,0.350409836 1.6102459,0.32704918 1.58114754,0.338934426 C1.56311475,0.346311475 1.55368852,0.36352459 1.55532787,0.386065574 C1.55614754,0.399590164 1.56106557,0.411065574 1.56106557,0.411885246 L1.99672131,1.58688525 C1.96147541,1.54139344 1.92418033,1.49918033 1.88688525,1.45901639 C1.80327869,1.3692623 1.72459016,1.28401639 1.68401639,1.15532787 C1.62172131,0.956967213 1.49590164,0.856147541 1.40409836,0.782786885 C1.37131148,0.756557377 1.34303279,0.734016393 1.32418033,0.712295082 C1.2852459,0.666803279 1.28237705,0.621721311 1.28032787,0.58852459 C1.27868852,0.56352459 1.27663934,0.532377049 1.24590164,0.530737705 C1.23688525,0.530327869 1.22008197,0.532786885 1.20614754,0.555327869 C1.18032787,0.59795082 1.1807377,0.69057377 1.24221311,0.793442623 C1.2704918,0.84057377 1.30368852,0.871311475 1.33934426,0.903688525 C1.4057377,0.964344262 1.48114754,1.03360656 1.54795082,1.24139344 C1.60081967,1.40491803 1.67295082,1.48893443 1.74262295,1.57008197 C1.78278689,1.61680328 1.82131148,1.66188525 1.8545082,1.7204918 L0.911885246,0.845901639 C0.891393443,0.825409836 0.859016393,0.81352459 0.83647541,0.836065574 C0.822540984,0.85 0.820491803,0.869262295 0.830737705,0.889344262 C0.836885246,0.901639344 0.845491803,0.910655738 0.845901639,0.911065574 L1.69836066,1.82991803 C1.64836066,1.80122951 1.59754098,1.77663934 1.54754098,1.75368852 C1.43606557,1.70245902 1.33032787,1.6545082 1.2442623,1.55081967 C1.11106557,1.39098361 0.956147541,1.34672131 0.843032787,1.31393443 C0.802868852,1.30245902 0.768032787,1.29221311 0.742213115,1.2795082 C0.688934426,1.25245902 0.668852459,1.21188525 0.654098361,1.18196721 C0.643032787,1.15942623 0.629508197,1.13155738 0.600409836,1.14180328 C0.591803279,1.14467213 0.57704918,1.15368852 0.57295082,1.17991803 C0.56557377,1.22909836 0.601229508,1.3147541 0.697131148,1.38606557 C0.741393443,1.41885246 0.784016393,1.43442623 0.829098361,1.45081967 C0.91352459,1.48155738 1.00942623,1.51639344 1.15122951,1.68319672 C1.26270492,1.81393443 1.36147541,1.86393443 1.45696721,1.91229508 C1.51188525,1.94016393 1.5647541,1.96680328 1.61762295,2.00860656 L0.411885246,1.56147541 C0.385245902,1.55040984 0.350819672,1.55163934 0.33852459,1.58114754 C0.334016393,1.59139344 0.334016393,1.60245902 0.33852459,1.61270492 C0.347540984,1.63442623 0.373770492,1.64590164 0.375819672,1.64672131 L1.5147541,2.16967213 C1.45737705,2.16229508 1.40122951,2.15901639 1.34631148,2.15696721 C1.22377049,2.15245902 1.10778689,2.14836066 0.988114754,2.08565574 C0.803688525,1.98893443 0.643852459,2.00696721 0.52704918,2.0204918 C0.485245902,2.025 0.449590164,2.02909836 0.420901639,2.02704918 C0.36147541,2.02254098 0.32704918,1.99262295 0.302459016,1.97090164 C0.283606557,1.9545082 0.260245902,1.93401639 0.237295082,1.95409836 C0.230737705,1.9602459 0.220491803,1.97377049 0.226639344,1.99959016 C0.23852459,2.04795082 0.304098361,2.11352459 0.420491803,2.14262295 C0.473770492,2.15614754 0.518852459,2.15409836 0.566803279,2.15204918 C0.656557377,2.14795082 0.758606557,2.14344262 0.953278689,2.24344262 C1.10614754,2.32172131 1.21639344,2.32991803 1.32336066,2.33811475 C1.38442623,2.34262295 1.44385246,2.34713115 1.50860656,2.36557377 L0.223770492,2.41393443 C0.194672131,2.41393443 0.16352459,2.42827869 0.16352459,2.4602459 C0.16352459,2.47991803 0.175819672,2.49508197 0.197131148,2.50204918 C0.210245902,2.50655738 0.22295082,2.50614754 0.223360656,2.50655738 L1.47622951,2.55368852 C1.4204918,2.56885246 1.36721311,2.58688525 1.31557377,2.60614754 C1.20040984,2.64877049 1.09180328,2.68934426 0.957377049,2.67745902 C0.75,2.65860656 0.609016393,2.73647541 0.506147541,2.79344262 C0.469262295,2.81352459 0.437704918,2.83114754 0.410245902,2.84016393 C0.353688525,2.85860656 0.310655738,2.8442623 0.279098361,2.83360656 C0.255327869,2.82540984 0.225819672,2.81557377 0.212704918,2.84303279 C0.208606557,2.85122951 0.204508197,2.86762295 0.220081967,2.88934426 C0.249590164,2.9295082 0.335245902,2.9647541 0.453688525,2.94713115 C0.508196721,2.93893443 0.549180328,2.92008197 0.592622951,2.89959016 C0.674180328,2.86147541 0.766803279,2.81844262 0.984836066,2.83606557 C1.15614754,2.85 1.26106557,2.81557377 1.36270492,2.78196721 C1.42090164,2.76270492 1.47745902,2.7442623 1.54467213,2.73606557 L0.376229508,3.27254098 C0.349590164,3.28360656 0.326229508,3.30901639 0.338114754,3.33852459 C0.345081967,3.35532787 0.360245902,3.36434426 0.380327869,3.36434426 C0.381967213,3.36434426 0.383606557,3.36434426 0.385245902,3.36434426 C0.398770492,3.36352459 0.410245902,3.35860656 0.411065574,3.35860656 L1.58606557,2.92295082 C1.54057377,2.95819672 1.49836066,2.9954918 1.45819672,3.03278689 C1.36844262,3.11639344 1.28319672,3.1954918 1.1545082,3.23565574 C0.955737705,3.29754098 0.855327869,3.42377049 0.781967213,3.51557377 C0.755737705,3.54836066 0.733196721,3.57663934 0.71147541,3.5954918 C0.665983607,3.63442623 0.620901639,3.63729508 0.587704918,3.63934426 C0.562704918,3.64098361 0.531557377,3.64303279 0.529918033,3.67377049 C0.529508197,3.68278689 0.531967213,3.7 0.554508197,3.71352459 C0.597131148,3.73934426 0.689754098,3.73934426 0.792622951,3.67745902 C0.839754098,3.64918033 0.870491803,3.61598361 0.902868852,3.58032787 C0.96352459,3.51393443 1.03278689,3.43852459 1.24057377,3.37172131 C1.40409836,3.31885246 1.48811475,3.24672131 1.5692623,3.17704918 C1.61598361,3.13688525 1.66106557,3.09836066 1.71967213,3.06516393 L0.845491803,4.00778689 C0.825,4.02827869 0.813114754,4.06065574 0.835655738,4.08319672 C0.843852459,4.09139344 0.853688525,4.0954918 0.864344262,4.0954918 C0.872131148,4.0954918 0.880327869,4.09344262 0.88852459,4.08934426 C0.900819672,4.08319672 0.90942623,4.07459016 0.910245902,4.07418033 L1.8295082,3.22172131 C1.80081967,3.27172131 1.77622951,3.32254098 1.75327869,3.37254098 C1.70204918,3.48401639 1.65409836,3.5897541 1.55040984,3.67581967 C1.39057377,3.80901639 1.34590164,3.96393443 1.31352459,4.07704918 C1.30204918,4.11721311 1.29180328,4.15204918 1.27868852,4.17786885 C1.25163934,4.23114754 1.21106557,4.25122951 1.18114754,4.26598361 C1.15860656,4.27704918 1.1307377,4.29057377 1.14098361,4.31967213 C1.14385246,4.32827869 1.15286885,4.34303279 1.17909836,4.34672131 C1.22827869,4.3545082 1.31393443,4.31844262 1.3852459,4.22254098 C1.41803279,4.17827869 1.43360656,4.13565574 1.45,4.09098361 C1.4807377,4.00614754 1.51557377,3.91065574 1.68237705,3.76885246 C1.81311475,3.65737705 1.86311475,3.55860656 1.91147541,3.46352459 C1.93934426,3.40860656 1.96598361,3.3557377 2.00778689,3.30286885 L1.56065574,4.50860656 C1.54959016,4.5352459 1.55081967,4.56967213 1.58032787,4.58196721 C1.58565574,4.58401639 1.59098361,4.5852459 1.59631148,4.5852459 C1.60163934,4.5852459 1.60696721,4.58401639 1.61188525,4.58196721 C1.63360656,4.57295082 1.64508197,4.54672131 1.64590164,4.54467213 L2.16885246,3.4057377 C2.16147541,3.46311475 2.15819672,3.5192623 2.15614754,3.57418033 C2.15163934,3.69672131 2.14754098,3.81270492 2.08483607,3.93196721 C1.98811475,4.11639344 2.00614754,4.27622951 2.0192623,4.39303279 C2.02377049,4.43483607 2.02786885,4.4704918 2.02581967,4.49918033 C2.02131148,4.55860656 1.99139344,4.59303279 1.9692623,4.61762295 C1.95286885,4.63647541 1.93237705,4.65983607 1.95286885,4.68278689 C1.95901639,4.68934426 1.97254098,4.7 1.99836066,4.69344262 C2.04672131,4.68155738 2.11188525,4.61598361 2.14139344,4.49959016 C2.15491803,4.44631148 2.15286885,4.40081967 2.15081967,4.35286885 C2.14672131,4.26311475 2.14221311,4.16106557 2.24221311,3.96639344 C2.3204918,3.81352459 2.32868852,3.70327869 2.33688525,3.59631148 C2.34139344,3.5352459 2.34590164,3.47581967 2.36434426,3.41106557 L2.41270492,4.69590164 C2.41270492,4.725 2.42704918,4.75614754 2.45901639,4.75614754 C2.47868852,4.75614754 2.49385246,4.74385246 2.50081967,4.72254098 C2.50491803,4.70983607 2.50532787,4.69713115 2.50532787,4.69631148 L2.55245902,3.44385246 C2.56762295,3.49959016 2.58606557,3.55286885 2.60491803,3.60409836 C2.64754098,3.7192623 2.68811475,3.82786885 2.67622951,3.96188525 C2.65778689,4.1692623 2.73565574,4.3102459 2.79221311,4.41311475 C2.81229508,4.45 2.82991803,4.48155738 2.83893443,4.50860656 C2.85778689,4.56557377 2.84303279,4.60819672 2.83237705,4.6397541 C2.82418033,4.66352459 2.81434426,4.69303279 2.84180328,4.70614754 C2.8454918,4.70778689 2.85081967,4.70983607 2.85778689,4.70983607 C2.86598361,4.70983607 2.87622951,4.70737705 2.88811475,4.69877049 C2.92827869,4.6692623 2.96352459,4.58360656 2.94590164,4.46516393 C2.93770492,4.41065574 2.91885246,4.36967213 2.89836066,4.32622951 C2.8602459,4.24467213 2.81721311,4.15204918 2.83483607,3.93401639 C2.84877049,3.76270492 2.81434426,3.65778689 2.7807377,3.55614754 C2.76147541,3.49795082 2.74303279,3.44139344 2.73483607,3.37418033 L3.27131148,4.54303279 C3.27172131,4.5442623 3.27663934,4.5557377 3.28565574,4.56598361 C3.30040984,4.58278689 3.3192623,4.58852459 3.33729508,4.5807377 C3.34754098,4.57663934 3.35532787,4.56885246 3.35983607,4.55860656 C3.36885246,4.53688525 3.35860656,4.5102459 3.35737705,4.50819672 L2.92172131,3.33319672 C2.95696721,3.37868852 2.9942623,3.42090164 3.03155738,3.46106557 C3.11516393,3.55081967 3.19385246,3.63606557 3.23442623,3.7647541 C3.29672131,3.96311475 3.42254098,4.06393443 3.51434426,4.13729508 C3.54713115,4.16352459 3.57540984,4.18606557 3.5942623,4.20778689 C3.63319672,4.25327869 3.63606557,4.29836066 3.63811475,4.33155738 C3.6397541,4.35655738 3.64180328,4.38770492 3.67254098,4.38934426 C3.67336066,4.38934426 3.67377049,4.38934426 3.67459016,4.38934426 C3.68401639,4.38934426 3.69959016,4.38565574 3.71229508,4.3647541 C3.73811475,4.32213115 3.73770492,4.2295082 3.67622951,4.12663934 C3.64795082,4.0795082 3.6147541,4.04877049 3.57909836,4.01639344 C3.51270492,3.9557377 3.43770492,3.88647541 3.3704918,3.67868852 C3.31762295,3.51516393 3.2454918,3.43114754 3.17581967,3.35 C3.13565574,3.30327869 3.09713115,3.25819672 3.06393443,3.19959016 L4.00655738,4.07377049 C4.02704918,4.0942623 4.05942623,4.10614754 4.08196721,4.08360656 C4.09590164,4.06967213 4.09795082,4.05040984 4.08770492,4.03032787 C4.08155738,4.01803279 4.07295082,4.00901639 4.07254098,4.00860656 L3.22008197,3.0897541 C3.27008197,3.11844262 3.32090164,3.14303279 3.37090164,3.16598361 C3.48237705,3.21721311 3.58811475,3.26516393 3.67418033,3.36885246 C3.80737705,3.52868852 3.96229508,3.57295082 4.075,3.6057377 C4.11516393,3.61721311 4.15,3.62745902 4.17581967,3.64016393 C4.22909836,3.66721311 4.24918033,3.70778689 4.26393443,3.73770492 C4.27336066,3.75696721 4.28483607,3.78032787 4.30614754,3.78032787 C4.30983607,3.78032787 4.31352459,3.7795082 4.31803279,3.77827869 C4.32663934,3.77540984 4.34139344,3.76639344 4.3454918,3.74016393 C4.35286885,3.69098361 4.31721311,3.60532787 4.22131148,3.53401639 C4.17704918,3.50122951 4.13483607,3.48565574 4.0897541,3.4692623 C4.00491803,3.43852459 3.90942623,3.40368852 3.76762295,3.23688525 C3.65614754,3.10614754 3.55737705,3.05614754 3.46188525,3.00778689 C3.40696721,2.97991803 3.35409836,2.95327869 3.30122951,2.91147541 L4.50696721,3.35860656 C4.53360656,3.36967213 4.56803279,3.36844262 4.58032787,3.33893443 C4.58442623,3.32868852 4.58483607,3.31762295 4.58032787,3.30737705 C4.57131148,3.28565574 4.54508197,3.27418033 4.54303279,3.27336066 L3.40409836,2.75040984 C3.46147541,2.75778689 3.51762295,2.76106557 3.57254098,2.76311475 C3.69508197,2.76762295 3.81106557,2.77172131 3.93032787,2.83442623 C4.1147541,2.93114754 4.27459016,2.91311475 4.39139344,2.9 C4.43319672,2.89508197 4.46885246,2.89098361 4.49754098,2.89344262 C4.55696721,2.89795082 4.59098361,2.92786885 4.61598361,2.94959016 C4.62909836,2.96106557 4.64467213,2.97459016 4.66065574,2.97459016 C4.66762295,2.97459016 4.67418033,2.97213115 4.68114754,2.96598361 C4.68770492,2.95983607 4.69795082,2.94631148 4.69180328,2.9204918 C4.67991803,2.87213115 4.61434426,2.80696721 4.49795082,2.77745902 C4.44467213,2.76393443 4.39918033,2.76598361 4.35163934,2.76803279 C4.26147541,2.77213115 4.15983607,2.77663934 3.96516393,2.67663934 C3.81229508,2.59836066 3.70204918,2.59016393 3.59508197,2.58196721 C3.53401639,2.57745902 3.47459016,2.57295082 3.40942623,2.5545082 L4.6942623,2.50614754 C4.72336066,2.50614754 4.7545082,2.49180328 4.7545082,2.45983607 C4.75409836,2.44016393 4.74180328,2.425 4.7204918,2.41803279 Z M4.65655738,2.93565574 C4.65204918,2.93237705 4.64467213,2.92622951 4.63934426,2.92131148 C4.61229508,2.89754098 4.57131148,2.86147541 4.49959016,2.85614754 C4.46762295,2.85368852 4.42991803,2.85778689 4.38647541,2.86270492 C4.27418033,2.87540984 4.12090164,2.89262295 3.94631148,2.80122951 C3.81967213,2.73483607 3.69959016,2.73032787 3.57295082,2.72581967 C3.50368852,2.72336066 3.43196721,2.71680328 3.35819672,2.70327869 C3.36188525,2.68893443 3.36803279,2.67581967 3.37131148,2.66147541 C3.58729508,2.70204918 3.7545082,2.65 3.9557377,2.76393443 C3.80696721,2.63360656 3.61680328,2.68483607 3.37909836,2.61393443 C3.38114754,2.60245902 3.38114754,2.59098361 3.38278689,2.5795082 C3.45614754,2.60204918 3.52418033,2.61270492 3.59221311,2.61762295 C3.6954918,2.62540984 3.80204918,2.63360656 3.94836066,2.70860656 C4.15163934,2.81270492 4.25860656,2.80778689 4.35286885,2.80368852 C4.4,2.80163934 4.44057377,2.8 4.48893443,2.81188525 C4.5954918,2.83852459 4.64262295,2.89344262 4.65409836,2.92172131 C4.65614754,2.92868852 4.65655738,2.93319672 4.65655738,2.93565574 Z M4.54590164,3.32418033 C4.54303279,3.33155738 4.52336066,3.32540984 4.51967213,3.32377049 L3.29590164,2.87008197 C3.30122951,2.85942623 3.30819672,2.84959016 3.31311475,2.83852459 L3.87909836,3.04918033 L3.3295082,2.79754098 C3.33401639,2.78565574 3.33688525,2.77295082 3.34098361,2.76106557 L4.52827869,3.30614754 C4.53319672,3.30819672 4.5442623,3.3147541 4.54672131,3.32090164 C4.54631148,3.32131148 4.54631148,3.32213115 4.54590164,3.32418033 Z M4.07663934,3.50245902 C4.12090164,3.51844262 4.15942623,3.53237705 4.19918033,3.56229508 C4.28729508,3.62786885 4.3102459,3.69631148 4.30983607,3.72663934 C4.30983607,3.73360656 4.30860656,3.73811475 4.30737705,3.74057377 C4.30409836,3.73606557 4.3,3.72745902 4.29672131,3.72090164 C4.2807377,3.68852459 4.25655738,3.6397541 4.19262295,3.60696721 C4.16393443,3.59221311 4.12745902,3.58196721 4.08565574,3.56967213 C3.97704918,3.53852459 3.82868852,3.4954918 3.70245902,3.3442623 C3.61065574,3.23442623 3.50163934,3.18442623 3.38606557,3.13155738 C3.32295082,3.10245902 3.25901639,3.0692623 3.19590164,3.02868852 C3.20491803,3.01721311 3.21516393,3.00696721 3.22377049,2.99508197 C3.40778689,3.11516393 3.58278689,3.13155738 3.725,3.31352459 C3.63729508,3.13606557 3.44180328,3.11065574 3.24918033,2.95409836 C3.25532787,2.9442623 3.25983607,2.93360656 3.26557377,2.92377049 C3.32459016,2.97254098 3.38360656,3.00819672 3.4442623,3.03893443 C3.53647541,3.08565574 3.63196721,3.13401639 3.73852459,3.25901639 C3.88688525,3.43360656 3.98770492,3.47008197 4.07663934,3.50245902 Z M3.68360656,4.33852459 C3.6807377,4.34508197 3.67786885,4.34877049 3.67622951,4.35040984 C3.675,4.34508197 3.67459016,4.33565574 3.67418033,4.32827869 C3.67172131,4.29221311 3.66844262,4.23770492 3.62131148,4.18319672 C3.60040984,4.15860656 3.57090164,4.1352459 3.53647541,4.10778689 C3.44836066,4.03729508 3.32745902,3.94098361 3.26844262,3.75286885 C3.22581967,3.61639344 3.1442623,3.52868852 3.05778689,3.4352459 C3.0102459,3.38442623 2.96393443,3.32909836 2.92172131,3.26721311 C2.93442623,3.25983607 2.94795082,3.25409836 2.9602459,3.24631148 C3.08442623,3.42827869 3.2397541,3.50983607 3.30163934,3.73278689 C3.28852459,3.53565574 3.11803279,3.43688525 3,3.2192623 C3.00942623,3.21270492 3.01762295,3.20409836 3.02663934,3.19713115 C3.06270492,3.2647541 3.10327869,3.3204918 3.14754098,3.37213115 C3.2147541,3.45040984 3.28442623,3.53155738 3.3352459,3.68811475 C3.40532787,3.90532787 3.48442623,3.97786885 3.55409836,4.04180328 C3.58893443,4.07377049 3.61885246,4.10122951 3.6442623,4.14385246 C3.70081967,4.23811475 3.69590164,4.31065574 3.68360656,4.33852459 Z M3.32336066,4.54631148 C3.31598361,4.54918033 3.30655738,4.53155738 3.30491803,4.52745902 L2.7602459,3.34098361 C2.77172131,3.33729508 2.78360656,3.33442623 2.79467213,3.33032787 L3.04631148,3.88032787 L2.83565574,3.3147541 C2.84754098,3.30942623 2.85778689,3.30204918 2.8692623,3.29672131 L3.32336066,4.52131148 C3.32540984,4.52622951 3.32868852,4.53852459 3.32581967,4.54467213 C3.32540984,4.54508197 3.325,4.54590164 3.32336066,4.54631148 Z M2.8602459,4.67213115 C2.86147541,4.66680328 2.86434426,4.65778689 2.86680328,4.65081967 C2.87868852,4.61680328 2.89590164,4.56516393 2.87377049,4.49672131 C2.86352459,4.46598361 2.8454918,4.43319672 2.82418033,4.39467213 C2.76967213,4.29590164 2.69508197,4.16065574 2.71270492,3.96434426 C2.72540984,3.82172131 2.68360656,3.70942623 2.63934426,3.59057377 C2.61516393,3.52540984 2.59344262,3.45655738 2.57786885,3.38319672 C2.59221311,3.38114754 2.60737705,3.38114754 2.62131148,3.37868852 C2.66639344,3.5942623 2.77868852,3.72909836 2.75081967,3.95901639 C2.81434426,3.77213115 2.69467213,3.61557377 2.66844262,3.36967213 C2.67991803,3.36721311 2.69057377,3.36229508 2.70163934,3.35942623 C2.70901639,3.43565574 2.725,3.50245902 2.74631148,3.56680328 C2.77868852,3.66516393 2.81188525,3.76680328 2.79877049,3.9307377 C2.78032787,4.15819672 2.82581967,4.25532787 2.86557377,4.34098361 C2.88565574,4.38360656 2.90286885,4.42090164 2.90983607,4.46967213 C2.92581967,4.57827869 2.89344262,4.64303279 2.87172131,4.66393443 C2.86639344,4.66885246 2.86270492,4.67131148 2.8602459,4.67213115 Z M2.46598361,4.70983607 C2.46311475,4.71844262 2.4602459,4.71844262 2.45860656,4.71844262 C2.45081967,4.71844262 2.44877049,4.69836066 2.44877049,4.69385246 L2.39959016,3.38893443 C2.41147541,3.3897541 2.42336066,3.39221311 2.4352459,3.39262295 L2.45737705,3.99672131 L2.4795082,3.39303279 C2.49262295,3.39262295 2.5045082,3.39016393 2.51762295,3.38934426 L2.46844262,4.69508197 C2.46885246,4.69467213 2.46844262,4.70245902 2.46598361,4.70983607 Z M2.11434426,4.35286885 C2.11639344,4.4 2.11803279,4.44057377 2.10614754,4.48893443 C2.0795082,4.5954918 2.02459016,4.64262295 1.99631148,4.65409836 C1.9897541,4.65655738 1.98565574,4.65778689 1.98278689,4.65696721 C1.98606557,4.65245902 1.99221311,4.64508197 1.99713115,4.6397541 C2.02090164,4.61270492 2.05696721,4.57172131 2.06229508,4.5 C2.0647541,4.46803279 2.06065574,4.43032787 2.0557377,4.38688525 C2.04303279,4.27459016 2.02581967,4.12131148 2.11721311,3.94672131 C2.18360656,3.82008197 2.18811475,3.7 2.19262295,3.57336066 C2.19508197,3.50409836 2.20163934,3.43237705 2.21516393,3.35860656 C2.2295082,3.36229508 2.24262295,3.36844262 2.25696721,3.37172131 C2.21639344,3.58770492 2.26844262,3.75491803 2.1545082,3.95614754 C2.28483607,3.80737705 2.23360656,3.61721311 2.3045082,3.3795082 C2.31598361,3.38155738 2.32745902,3.38155738 2.33893443,3.38319672 C2.31639344,3.45655738 2.3057377,3.52459016 2.30081967,3.59262295 C2.29303279,3.69590164 2.28483607,3.80245902 2.20983607,3.94877049 C2.1057377,4.15163934 2.1102459,4.25860656 2.11434426,4.35286885 Z M1.59467213,4.54631148 C1.58729508,4.54344262 1.59344262,4.52377049 1.59508197,4.52008197 L2.04877049,3.29631148 C2.05942623,3.30163934 2.0692623,3.30860656 2.08032787,3.31352459 L1.86967213,3.8795082 L2.12131148,3.32991803 C2.13319672,3.33442623 2.14590164,3.33729508 2.15778689,3.34139344 L1.61270492,4.52868852 C1.61147541,4.53155738 1.60163934,4.54959016 1.59467213,4.54631148 Z M1.41598361,4.07704918 C1.4,4.12131148 1.38606557,4.15942623 1.35614754,4.19959016 C1.29139344,4.28688525 1.22336066,4.3102459 1.19262295,4.3102459 L1.19180328,4.3102459 C1.18483607,4.3102459 1.18032787,4.30901639 1.17786885,4.30778689 C1.18237705,4.3045082 1.19098361,4.30040984 1.19754098,4.29713115 C1.22991803,4.28114754 1.27868852,4.25696721 1.31147541,4.19303279 C1.32581967,4.16434426 1.33647541,4.12786885 1.34877049,4.08606557 C1.37991803,3.97745902 1.42295082,3.82909836 1.57418033,3.70286885 C1.68401639,3.61106557 1.73401639,3.50204918 1.78688525,3.38647541 C1.81598361,3.32336066 1.84918033,3.25942623 1.8897541,3.19631148 C1.90122951,3.20532787 1.91147541,3.21598361 1.92336066,3.22418033 C1.80327869,3.40819672 1.78688525,3.58319672 1.60491803,3.72540984 C1.78237705,3.63770492 1.80778689,3.44221311 1.96393443,3.25 C1.97377049,3.25614754 1.98442623,3.26065574 1.9942623,3.26639344 C1.9454918,3.32540984 1.90983607,3.38442623 1.87909836,3.44508197 C1.83237705,3.53729508 1.78401639,3.63278689 1.65901639,3.73934426 C1.4852459,3.88770492 1.44836066,3.98811475 1.41598361,4.07704918 Z M0.876639344,3.55491803 C0.844672131,3.5897541 0.817213115,3.61967213 0.774590164,3.6454918 C0.680327869,3.70163934 0.608196721,3.69672131 0.580327869,3.68442623 C0.573770492,3.68155738 0.570081967,3.67868852 0.568442623,3.67704918 C0.573770492,3.67581967 0.583196721,3.67540984 0.59057377,3.675 C0.626639344,3.67254098 0.681147541,3.6692623 0.735655738,3.62213115 C0.760245902,3.60122951 0.783606557,3.57172131 0.811065574,3.53729508 C0.881557377,3.44918033 0.977868852,3.32827869 1.16598361,3.2692623 C1.30245902,3.22663934 1.39057377,3.14508197 1.48360656,3.05860656 C1.53442623,3.01106557 1.5897541,2.9647541 1.65163934,2.92254098 C1.65901639,2.9352459 1.6647541,2.94877049 1.67254098,2.96106557 C1.49057377,3.0852459 1.40901639,3.24057377 1.18606557,3.30245902 C1.38319672,3.28934426 1.48196721,3.11885246 1.69959016,3.00081967 C1.70614754,3.0102459 1.7147541,3.01844262 1.72172131,3.02745902 C1.65409836,3.06352459 1.59836066,3.10409836 1.54672131,3.14836066 C1.46844262,3.21557377 1.38729508,3.2852459 1.2307377,3.33606557 C1.01270492,3.40614754 0.94057377,3.4852459 0.876639344,3.55491803 Z M0.372131148,3.32418033 C0.369262295,3.31680328 0.386885246,3.30737705 0.390983607,3.3057377 L1.57786885,2.76106557 C1.58155738,2.77254098 1.58442623,2.78401639 1.58852459,2.7954918 L1.03852459,3.04713115 L1.60409836,2.83647541 C1.60942623,2.84836066 1.61680328,2.85860656 1.62213115,2.87008197 L0.397540984,3.32418033 C0.397540984,3.32418033 0.390163934,3.32704918 0.382377049,3.32745902 C0.373770492,3.32786885 0.372540984,3.32540984 0.372131148,3.32418033 Z M0.988114754,2.79918033 C0.760245902,2.7807377 0.66352459,2.82622951 0.577868852,2.86598361 C0.535245902,2.88606557 0.49795082,2.90327869 0.449180328,2.9102459 C0.34057377,2.92622951 0.275819672,2.89385246 0.254918033,2.87213115 C0.25,2.86721311 0.247540984,2.86311475 0.246721311,2.86065574 C0.25204918,2.86188525 0.261065574,2.8647541 0.268032787,2.86721311 C0.30204918,2.87868852 0.353688525,2.89631148 0.422131148,2.87418033 C0.452868852,2.86434426 0.485655738,2.84590164 0.524180328,2.82459016 C0.62295082,2.77008197 0.758196721,2.6954918 0.954508197,2.71311475 C1.09672131,2.72581967 1.20942623,2.68401639 1.32827869,2.6397541 C1.39344262,2.61557377 1.46229508,2.59385246 1.53565574,2.57827869 C1.53770492,2.59262295 1.53770492,2.60778689 1.54016393,2.62172131 C1.32459016,2.66680328 1.1897541,2.77909836 0.959836066,2.75122951 C1.14672131,2.8147541 1.30327869,2.69508197 1.54918033,2.66885246 C1.55163934,2.68032787 1.55655738,2.69098361 1.55942623,2.70204918 C1.48319672,2.70942623 1.41639344,2.72540984 1.35204918,2.74672131 C1.25368852,2.77909836 1.15204918,2.81229508 0.988114754,2.79918033 Z M0.209016393,2.46680328 C0.200409836,2.46393443 0.200409836,2.46106557 0.200409836,2.45942623 C0.200409836,2.45163934 0.220491803,2.44959016 0.225,2.44959016 L1.52991803,2.40040984 C1.52909836,2.41229508 1.52663934,2.42377049 1.52622951,2.43606557 L0.922131148,2.45819672 L1.52581967,2.48032787 C1.52622951,2.49344262 1.52868852,2.50532787 1.5295082,2.51844262 L0.223770492,2.4692623 C0.224180328,2.4692623 0.216393443,2.4692623 0.209016393,2.46680328 Z M0.26147541,1.98360656 C0.265983607,1.98688525 0.273360656,1.99303279 0.278688525,1.99754098 C0.305737705,2.02131148 0.346721311,2.05737705 0.418442623,2.06270492 C0.450409836,2.06516393 0.488114754,2.06106557 0.531557377,2.05614754 C0.643852459,2.04344262 0.797540984,2.02622951 0.971721311,2.11762295 C1.09836066,2.18401639 1.21844262,2.18852459 1.34508197,2.19303279 C1.41434426,2.1954918 1.48606557,2.20204918 1.55983607,2.21557377 C1.55614754,2.22991803 1.55,2.24303279 1.54672131,2.25737705 C1.3307377,2.21680328 1.16352459,2.26885246 0.962295082,2.15491803 C1.11106557,2.2852459 1.30163934,2.23401639 1.53934426,2.30491803 C1.53729508,2.31639344 1.53729508,2.32786885 1.53565574,2.33934426 C1.46229508,2.31680328 1.3942623,2.30614754 1.32622951,2.30122951 C1.22295082,2.29344262 1.11639344,2.2852459 0.970081967,2.2102459 C0.766803279,2.10614754 0.659836066,2.11065574 0.56557377,2.11516393 C0.518442623,2.11721311 0.477868852,2.11885246 0.429508197,2.10696721 C0.32295082,2.08032787 0.275819672,2.02540984 0.264344262,1.99713115 C0.261885246,1.99057377 0.26147541,1.98606557 0.26147541,1.98360656 Z M0.372131148,1.5954918 C0.375,1.58811475 0.394672131,1.5942623 0.398360656,1.59590164 L1.62213115,2.04959016 C1.61680328,2.0602459 1.60983607,2.07008197 1.60491803,2.08114754 L1.03893443,1.8704918 L1.58852459,2.12213115 C1.58401639,2.13401639 1.58114754,2.14672131 1.57704918,2.15860656 L0.389754098,1.61352459 C0.387295082,1.61188525 0.369262295,1.60245902 0.372131148,1.5954918 Z M0.841393443,1.41680328 C0.797131148,1.40081967 0.758606557,1.38688525 0.718852459,1.35696721 C0.630737705,1.29139344 0.607786885,1.22295082 0.608196721,1.19262295 C0.608196721,1.18565574 0.60942623,1.18114754 0.610655738,1.17868852 C0.613934426,1.18319672 0.618032787,1.19180328 0.621311475,1.19836066 C0.637295082,1.2307377 0.66147541,1.2795082 0.725409836,1.31229508 C0.754098361,1.32704918 0.79057377,1.33729508 0.832377049,1.34959016 C0.940983607,1.3807377 1.08934426,1.42377049 1.21557377,1.575 C1.30737705,1.68483607 1.41639344,1.73483607 1.53196721,1.78770492 C1.59508197,1.81680328 1.65901639,1.85 1.72213115,1.89057377 C1.71311475,1.90204918 1.70286885,1.91229508 1.6942623,1.92418033 C1.5102459,1.80409836 1.3352459,1.78770492 1.19303279,1.6057377 C1.2807377,1.78319672 1.47622951,1.80860656 1.66885246,1.96516393 C1.66270492,1.975 1.65819672,1.98565574 1.65245902,1.9954918 C1.59344262,1.94672131 1.53442623,1.91065574 1.47377049,1.87991803 C1.38155738,1.83319672 1.28606557,1.78483607 1.1795082,1.65983607 C1.03114754,1.48565574 0.930327869,1.44918033 0.841393443,1.41680328 Z M1.23442623,0.581147541 C1.23729508,0.574590164 1.24016393,0.571311475 1.24180328,0.569262295 C1.24303279,0.574590164 1.24344262,0.584016393 1.24385246,0.591393443 C1.24631148,0.627459016 1.24959016,0.681967213 1.29672131,0.73647541 C1.31762295,0.761065574 1.34713115,0.78442623 1.38155738,0.811885246 C1.46967213,0.882377049 1.59057377,0.978688525 1.64959016,1.16680328 C1.69221311,1.30327869 1.77377049,1.39139344 1.8602459,1.48442623 C1.90778689,1.5352459 1.95409836,1.59057377 1.99631148,1.65245902 C1.98360656,1.65983607 1.97008197,1.66557377 1.95778689,1.67336066 C1.83360656,1.49139344 1.67827869,1.40983607 1.61639344,1.18688525 C1.6295082,1.38401639 1.8,1.48278689 1.91803279,1.70040984 C1.90860656,1.70696721 1.90040984,1.71557377 1.89139344,1.72254098 C1.85532787,1.65491803 1.8147541,1.59918033 1.7704918,1.54754098 C1.70327869,1.46885246 1.63360656,1.38811475 1.58278689,1.23155738 C1.51270492,1.01434426 1.43360656,0.941803279 1.36393443,0.877868852 C1.32909836,0.845901639 1.29918033,0.818442623 1.27377049,0.775819672 C1.21721311,0.681147541 1.22213115,0.609016393 1.23442623,0.581147541 Z M1.59467213,0.37295082 C1.60204918,0.370081967 1.61147541,0.388114754 1.61311475,0.391803279 L2.15778689,1.57868852 C2.14631148,1.58237705 2.13442623,1.5852459 2.12336066,1.58934426 L1.87172131,1.03934426 L2.08237705,1.60491803 C2.0704918,1.6102459 2.0602459,1.61762295 2.04877049,1.62295082 L1.59467213,0.398360656 C1.59467213,0.398360656 1.59180328,0.390983607 1.59139344,0.383196721 C1.59057377,0.374590164 1.59344262,0.373360656 1.59467213,0.37295082 Z M2.05778689,0.247131148 C2.05655738,0.252459016 2.05368852,0.26147541 2.05122951,0.268442623 C2.0397541,0.302459016 2.02213115,0.354098361 2.0442623,0.422540984 C2.05409836,0.453278689 2.07254098,0.486065574 2.09385246,0.524590164 C2.14836066,0.623360656 2.22336066,0.758606557 2.2057377,0.954918033 C2.19303279,1.09754098 2.23483607,1.20983607 2.27909836,1.32868852 C2.30327869,1.39385246 2.325,1.46270492 2.34057377,1.53606557 C2.32622951,1.53811475 2.31106557,1.53811475 2.29713115,1.54057377 C2.25204918,1.325 2.1397541,1.19016393 2.16762295,0.960245902 C2.10409836,1.14713115 2.22377049,1.30368852 2.25,1.54959016 C2.23852459,1.55204918 2.22786885,1.55696721 2.21680328,1.55983607 C2.20942623,1.48360656 2.19303279,1.41680328 2.17213115,1.35245902 C2.1397541,1.25409836 2.10655738,1.15245902 2.11967213,0.98852459 C2.13811475,0.761065574 2.09262295,0.663934426 2.05286885,0.578278689 C2.03278689,0.535655738 2.01557377,0.498770492 2.00860656,0.449590164 C1.99262295,0.340983607 2.025,0.276229508 2.04672131,0.255327869 C2.05163934,0.250409836 2.05532787,0.248360656 2.05778689,0.247131148 Z M2.45163934,0.20942623 C2.4545082,0.200819672 2.45778689,0.20204918 2.45901639,0.200819672 C2.46680328,0.200819672 2.46885246,0.220901639 2.46885246,0.225409836 L2.51803279,1.53032787 C2.50614754,1.5295082 2.4942623,1.52704918 2.48237705,1.52663934 L2.4602459,0.922540984 L2.43811475,1.52622951 C2.425,1.52663934 2.41311475,1.52909836 2.4,1.52991803 L2.44918033,0.224180328 C2.44918033,0.224590164 2.44918033,0.216803279 2.45163934,0.20942623 Z M2.80327869,0.566393443 C2.80122951,0.519262295 2.79959016,0.478688525 2.81147541,0.430327869 C2.83811475,0.323770492 2.89303279,0.276639344 2.92131148,0.265163934 C2.92786885,0.262704918 2.93196721,0.262295082 2.93483607,0.262295082 C2.93155738,0.266803279 2.92540984,0.274180328 2.9204918,0.279508197 C2.89672131,0.306557377 2.86065574,0.347540984 2.85532787,0.419262295 C2.85286885,0.451229508 2.85696721,0.488934426 2.86188525,0.532377049 C2.87459016,0.644672131 2.89180328,0.79795082 2.80040984,0.972540984 C2.73401639,1.09918033 2.7295082,1.2192623 2.725,1.34590164 C2.72254098,1.41516393 2.71598361,1.48688525 2.70245902,1.56065574 C2.68811475,1.55696721 2.675,1.55081967 2.66065574,1.54754098 C2.70122951,1.33155738 2.64918033,1.16434426 2.76311475,0.963114754 C2.63278689,1.11188525 2.68401639,1.30245902 2.61311475,1.54016393 C2.60163934,1.53811475 2.59016393,1.53811475 2.57868852,1.53647541 C2.60122951,1.46311475 2.61188525,1.39508197 2.61680328,1.32704918 C2.62459016,1.22377049 2.63278689,1.11721311 2.70778689,0.970901639 C2.81229508,0.767622951 2.80778689,0.660655738 2.80327869,0.566393443 Z M3.32336066,0.37295082 C3.3307377,0.375819672 3.32459016,0.395491803 3.32295082,0.399590164 L2.8692623,1.62336066 C2.85860656,1.61803279 2.84877049,1.61106557 2.83770492,1.60614754 L3.04836066,1.04016393 L2.79672131,1.5897541 C2.78483607,1.5852459 2.77213115,1.58237705 2.7602459,1.57827869 L3.30532787,0.390983607 C3.30655738,0.387704918 3.31639344,0.370081967 3.32336066,0.37295082 Z M3.50163934,0.842213115 C3.51762295,0.79795082 3.53155738,0.75942623 3.56147541,0.719672131 C3.62704918,0.631557377 3.69631148,0.60942623 3.72581967,0.609016393 C3.73278689,0.609016393 3.73729508,0.610245902 3.7397541,0.61147541 C3.7352459,0.614754098 3.72663934,0.618852459 3.72008197,0.622131148 C3.68770492,0.638114754 3.63893443,0.662295082 3.60614754,0.726229508 C3.59180328,0.754918033 3.58114754,0.791393443 3.56885246,0.833196721 C3.53770492,0.941803279 3.49467213,1.09016393 3.34344262,1.21639344 C3.23360656,1.30819672 3.18360656,1.41721311 3.1307377,1.53278689 C3.10163934,1.59590164 3.06844262,1.65983607 3.02786885,1.72295082 C3.01639344,1.71393443 3.00614754,1.70368852 2.99385246,1.69508197 C3.11393443,1.51106557 3.13032787,1.33606557 3.31229508,1.19385246 C3.13483607,1.28155738 3.10942623,1.47704918 2.95286885,1.66967213 C2.94303279,1.66352459 2.93237705,1.65901639 2.92254098,1.65327869 C2.97131148,1.5942623 3.00737705,1.5352459 3.03811475,1.47459016 C3.08483607,1.38237705 3.13319672,1.28688525 3.25819672,1.18032787 C3.43278689,1.03196721 3.46967213,0.931147541 3.50163934,0.842213115 Z M4.05614754,0.862704918 C4.06147541,0.868442623 4.04877049,0.884016393 4.04590164,0.886885246 L3.15778689,1.8442623 C3.15,1.8352459 3.14303279,1.82540984 3.13483607,1.81680328 L3.54672131,1.37377049 L3.10409836,1.7852459 C3.09508197,1.77663934 3.08442623,1.7692623 3.07459016,1.76106557 L4.03237705,0.872540984 C4.03606557,0.868852459 4.04672131,0.861065574 4.05286885,0.861065574 C4.05409836,0.861065574 4.05491803,0.861065574 4.05614754,0.862704918 Z M4.04139344,1.36434426 C4.07336066,1.3295082 4.10081967,1.29959016 4.14344262,1.27418033 C4.23770492,1.21762295 4.30983607,1.22295082 4.33770492,1.23483607 C4.3442623,1.23770492 4.34754098,1.24057377 4.34959016,1.24221311 C4.3442623,1.24344262 4.33483607,1.24385246 4.32745902,1.2442623 C4.29139344,1.24672131 4.23688525,1.25 4.18237705,1.29713115 C4.15778689,1.31803279 4.13442623,1.34754098 4.10696721,1.38196721 C4.03647541,1.47008197 3.94016393,1.59098361 3.75204918,1.65 C3.61557377,1.69262295 3.52786885,1.77418033 3.43442623,1.86065574 C3.38360656,1.90819672 3.32827869,1.9545082 3.26639344,1.99672131 C3.25901639,1.98401639 3.25327869,1.9704918 3.2454918,1.95819672 C3.42745902,1.83401639 3.50901639,1.67868852 3.73196721,1.61680328 C3.53483607,1.62991803 3.43606557,1.80040984 3.21844262,1.91844262 C3.21188525,1.90901639 3.20327869,1.90081967 3.19631148,1.89180328 C3.26393443,1.8557377 3.31967213,1.81516393 3.37131148,1.77090164 C3.44959016,1.70368852 3.5307377,1.63401639 3.68729508,1.58319672 C3.90532787,1.51311475 3.97745902,1.43401639 4.04139344,1.36434426 Z M4.54590164,1.5954918 C4.54877049,1.60286885 4.53114754,1.61229508 4.52704918,1.61393443 L3.34057377,2.15860656 C3.33688525,2.14713115 3.33401639,2.1352459 3.32991803,2.12418033 L3.87991803,1.87254098 L3.31434426,2.08319672 C3.30901639,2.07131148 3.30163934,2.06106557 3.29631148,2.04959016 L4.52090164,1.5954918 C4.52581967,1.59344262 4.53852459,1.59057377 4.5442623,1.59262295 C4.5442623,1.59303279 4.54508197,1.59344262 4.54590164,1.5954918 Z M3.9295082,2.12008197 C4.15696721,2.13852459 4.25409836,2.09303279 4.3397541,2.05327869 C4.38237705,2.03319672 4.41967213,2.01598361 4.46844262,2.00901639 C4.57745902,1.99303279 4.64180328,2.02540984 4.66270492,2.04713115 C4.66762295,2.05204918 4.66967213,2.05614754 4.67090164,2.05860656 C4.66557377,2.05737705 4.65655738,2.0545082 4.64959016,2.05204918 C4.61557377,2.04057377 4.56393443,2.02295082 4.4954918,2.04508197 C4.4647541,2.05491803 4.43196721,2.07336066 4.39344262,2.09467213 C4.29467213,2.14918033 4.15901639,2.22377049 3.96311475,2.20655738 C3.8204918,2.19385246 3.70819672,2.23565574 3.58893443,2.27991803 C3.52377049,2.30409836 3.45491803,2.32581967 3.38155738,2.34139344 C3.3795082,2.32704918 3.3795082,2.31188525 3.37704918,2.29795082 C3.59262295,2.25286885 3.72745902,2.14057377 3.95737705,2.16844262 C3.7704918,2.10491803 3.61393443,2.22459016 3.36803279,2.25081967 C3.36557377,2.23934426 3.36065574,2.22909836 3.35778689,2.21762295 C3.43401639,2.2102459 3.50081967,2.19385246 3.56516393,2.17295082 C3.66434426,2.14016393 3.76598361,2.10696721 3.9295082,2.12008197 Z M2.45901639,3.34590164 C1.9704918,3.34590164 1.57295082,2.94836066 1.57295082,2.45983607 C1.57295082,1.97131148 1.9704918,1.57377049 2.45901639,1.57377049 C2.94754098,1.57377049 3.34508197,1.97131148 3.34508197,2.45983607 C3.34508197,2.94836066 2.94754098,3.34590164 2.45901639,3.34590164 Z M1.81598361,1.78360656 L1.37295082,1.37172131 L1.78442623,1.81434426 C1.77581967,1.82336066 1.76844262,1.83401639 1.7602459,1.84385246 L0.871721311,0.885655738 C0.871721311,0.885655738 0.866393443,0.879918033 0.862704918,0.87295082 C0.858606557,0.864754098 0.860655738,0.862704918 0.861885246,0.861885246 C0.867622951,0.856557377 0.883196721,0.869262295 0.886065574,0.872131148 L1.84344262,1.7602459 C1.83442623,1.76885246 1.82459016,1.77540984 1.81598361,1.78360656 Z M0.872131148,4.03237705 L1.7602459,3.075 C1.76803279,3.08401639 1.775,3.09385246 1.78319672,3.10286885 L1.37131148,3.54590164 L1.81393443,3.13442623 C1.82295082,3.14303279 1.83360656,3.15040984 1.84344262,3.15860656 L0.885655738,4.04713115 C0.882786885,4.04959016 0.867213115,4.06270492 0.861885246,4.05696721 C0.856147541,4.05122951 0.869262295,4.03565574 0.872131148,4.03237705 Z M3.10204918,3.13565574 L3.54508197,3.54754098 L3.13360656,3.10491803 C3.14221311,3.09590164 3.14959016,3.08483607 3.15778689,3.07540984 L4.04631148,4.03319672 C4.04877049,4.03565574 4.06188525,4.05163934 4.05614754,4.05696721 C4.05040984,4.06270492 4.03483607,4.04959016 4.03196721,4.04672131 L3.07459016,3.15860656 C3.08360656,3.15040984 3.09344262,3.14385246 3.10204918,3.13565574 Z M3.38852459,2.51844262 C3.38934426,2.50655738 3.39180328,2.49508197 3.39221311,2.48278689 L3.99631148,2.46065574 L3.39262295,2.43852459 C3.39221311,2.42540984 3.3897541,2.41352459 3.38893443,2.40040984 L4.69467213,2.44959016 C4.69467213,2.44959016 4.70245902,2.44959016 4.70983607,2.45204918 C4.71844262,2.45491803 4.71844262,2.45778689 4.71844262,2.45942623 C4.71844262,2.46721311 4.69836066,2.4692623 4.69385246,2.4692623 L3.38852459,2.51844262 Z" fill="#85361B"></path>
                            <path d="M3.44467213,3.03934426 C3.38401639,3.00860656 3.325,2.97254098 3.26598361,2.92418033 C3.2602459,2.93401639 3.2557377,2.94467213 3.24959016,2.9545082 C3.44221311,3.11065574 3.63770492,3.13647541 3.72540984,3.31393443 C3.58278689,3.13196721 3.40819672,3.11557377 3.22418033,2.9954918 C3.21557377,3.00737705 3.20532787,3.01762295 3.19631148,3.02909836 C3.25901639,3.06967213 3.32295082,3.10327869 3.38647541,3.13196721 C3.50204918,3.18483607 3.61106557,3.23483607 3.70286885,3.34467213 C3.82909836,3.49590164 3.97745902,3.53852459 4.08606557,3.57008197 C4.12827869,3.58237705 4.16434426,3.59262295 4.19303279,3.60737705 C4.25737705,3.6397541 4.28114754,3.68893443 4.29713115,3.72131148 C4.30040984,3.72786885 4.3045082,3.73647541 4.30778689,3.74098361 C4.30901639,3.73852459 4.3102459,3.73442623 4.3102459,3.72704918 C4.31065574,3.69672131 4.28770492,3.62786885 4.19959016,3.56270492 C4.15983607,3.53319672 4.12131148,3.5192623 4.07704918,3.50286885 C3.98811475,3.4704918 3.88770492,3.43401639 3.7397541,3.25983607 C3.63237705,3.13442623 3.53688525,3.08606557 3.44467213,3.03934426 Z" fill="#F8A24B"></path>
                            <path d="M3.34016393,2.76106557 C3.33606557,2.77295082 3.33360656,2.78565574 3.32868852,2.79754098 L3.87827869,3.04918033 L3.31229508,2.83852459 C3.30737705,2.84959016 3.30040984,2.85942623 3.29508197,2.87008197 L4.51885246,3.32377049 C4.52295082,3.32540984 4.54221311,3.33114754 4.54508197,3.32418033 C4.54590164,3.32254098 4.5454918,3.32172131 4.54508197,3.3204918 C4.54262295,3.3147541 4.53155738,3.30778689 4.52663934,3.3057377 L3.34016393,2.76106557 Z" fill="#F8A24B"></path>
                            <path d="M3.55409836,4.04221311 C3.48442623,3.97827869 3.40532787,3.9057377 3.3352459,3.68852459 C3.28483607,3.53196721 3.21516393,3.45081967 3.14754098,3.37254098 C3.10327869,3.32090164 3.06270492,3.26516393 3.02663934,3.19754098 C3.01762295,3.2045082 3.00942623,3.21270492 3,3.21967213 C3.11803279,3.43729508 3.28893443,3.53606557 3.30163934,3.73319672 C3.2397541,3.5102459 3.08401639,3.42827869 2.9602459,3.24672131 C2.94795082,3.2545082 2.93442623,3.2602459 2.92172131,3.26762295 C2.96434426,3.3295082 3.01065574,3.38442623 3.05778689,3.43565574 C3.1442623,3.52868852 3.22581967,3.61680328 3.26844262,3.75327869 C3.32704918,3.94139344 3.44795082,4.03770492 3.53647541,4.10819672 C3.5704918,4.1352459 3.60040984,4.15901639 3.62131148,4.18360656 C3.66803279,4.23811475 3.67172131,4.29262295 3.67418033,4.32868852 C3.67459016,4.33606557 3.67540984,4.3454918 3.67622951,4.35081967 C3.67827869,4.34918033 3.68114754,4.3454918 3.68360656,4.33893443 C3.6954918,4.31106557 3.70081967,4.23893443 3.6442623,4.14467213 C3.6192623,4.10163934 3.58893443,4.07377049 3.55409836,4.04221311 Z" fill="#F8A24B"></path>
                            <path d="M4.05614754,4.05696721 C4.06147541,4.05163934 4.04877049,4.03565574 4.04631148,4.03319672 L3.15778689,3.07540984 C3.14918033,3.08483607 3.14221311,3.0954918 3.13360656,3.10491803 L3.54508197,3.54754098 L3.10204918,3.13565574 C3.09344262,3.14385246 3.08319672,3.15040984 3.07418033,3.15860656 L4.03155738,4.04672131 C4.03483607,4.04959016 4.05040984,4.06270492 4.05614754,4.05696721 Z" fill="#F8A24B"></path>
                            <path d="M2.01270492,2.36156557 C2.05370492,2.39406557 2.10620492,2.41206557 2.15920492,2.41256557 C2.12770492,2.40306557 2.10220492,2.37856557 2.10220492,2.34406557 C2.10220492,2.31906557 2.11570492,2.30006557 2.13420492,2.28606557 C2.08770492,2.29406557 2.04220492,2.31356557 2.01270492,2.36156557 Z" fill="#F8A24B"></path>
                            <path d="M2.2812541,2.34316393 C2.2747541,2.32066393 2.2382541,2.30216393 2.1952541,2.29016393 C2.2082541,2.30416393 2.2172541,2.32216393 2.2172541,2.34316393 C2.2172541,2.36616393 2.2062541,2.38566393 2.1897541,2.39966393 C2.2227541,2.38866393 2.2547541,2.37216393 2.2812541,2.34316393 Z" fill="#F8A24B"></path>
                            <path d="M3.34508197,2.45983607 C3.34508197,1.97131148 2.94754098,1.57377049 2.45901639,1.57377049 C1.9704918,1.57377049 1.57295082,1.97131148 1.57295082,2.45983607 C1.57295082,2.94836066 1.9704918,3.34590164 2.45901639,3.34590164 C2.94754098,3.34590164 3.34508197,2.94836066 3.34508197,2.45983607 Z M2.45901639,2.81434426 L2.45778689,2.81434426 C2.42991803,2.81434426 2.38811475,2.78032787 2.33893443,2.80819672 C2.2897541,2.83647541 2.26229508,2.86393443 2.22704918,2.87786885 C2.29016393,2.83565574 2.31762295,2.77213115 2.38811475,2.77213115 C2.40204918,2.77213115 2.42991803,2.7795082 2.45778689,2.79344262 L2.45901639,2.79344262 C2.48688525,2.7795082 2.5147541,2.77213115 2.52868852,2.77213115 C2.59877049,2.77213115 2.62745902,2.83565574 2.69057377,2.87786885 C2.65532787,2.86393443 2.62704918,2.83606557 2.57786885,2.80819672 C2.52868852,2.77991803 2.48688525,2.81434426 2.45901639,2.81434426 Z M1.98401639,2.34795082 C2.0192623,2.29180328 2.07868852,2.2647541 2.14098361,2.2647541 C2.20327869,2.2647541 2.26844262,2.29139344 2.31434426,2.34057377 C2.26721311,2.375 2.2102459,2.39057377 2.15532787,2.39385246 C2.15327869,2.3942623 2.15163934,2.39631148 2.14959016,2.39631148 C2.14836066,2.39631148 2.14795082,2.39508197 2.14672131,2.39508197 C2.08155738,2.39754098 2.02090164,2.38114754 1.98401639,2.34795082 Z M2.14508197,2.22172131 C2.23606557,2.22172131 2.25696721,2.24262295 2.29918033,2.27786885 C2.34139344,2.31311475 2.36229508,2.3057377 2.3692623,2.31311475 C2.37622951,2.32008197 2.3692623,2.34098361 2.35532787,2.33401639 C2.34139344,2.32704918 2.31311475,2.31311475 2.27131148,2.27786885 C2.22909836,2.24262295 2.18729508,2.24262295 2.14508197,2.24262295 C2.01885246,2.24262295 1.94877049,2.34754098 1.93483607,2.34057377 C1.92090164,2.33360656 2.00491803,2.22172131 2.14508197,2.22172131 Z M2.78114754,2.22172131 C2.92131148,2.22172131 3.00532787,2.33360656 2.99139344,2.34098361 C2.97745902,2.34795082 2.90737705,2.24303279 2.78114754,2.24303279 C2.73893443,2.24303279 2.69713115,2.24303279 2.65491803,2.27827869 C2.61311475,2.31352459 2.58483607,2.32745902 2.57090164,2.33442623 C2.55696721,2.34139344 2.55,2.3204918 2.55696721,2.31352459 C2.56393443,2.30655738 2.58483607,2.31352459 2.62704918,2.27827869 C2.6692623,2.24303279 2.69016393,2.22172131 2.78114754,2.22172131 Z M2.76721311,2.39631148 C2.7057377,2.39672131 2.64836066,2.37991803 2.61270492,2.34795082 C2.64795082,2.29180328 2.70737705,2.2647541 2.76967213,2.2647541 C2.83196721,2.2647541 2.89713115,2.29139344 2.94262295,2.34057377 C2.89098361,2.37868852 2.82704918,2.39590164 2.76721311,2.39631148 C2.76721311,2.39631148 2.76721311,2.39631148 2.76721311,2.39631148 Z M2.65778689,2.64795082 C2.65778689,2.68278689 2.62909836,2.71065574 2.5942623,2.71065574 C2.57377049,2.71065574 2.55491803,2.70081967 2.54303279,2.68401639 C2.51885246,2.70204918 2.4852459,2.70409836 2.46721311,2.7045082 C2.46516393,2.7045082 2.46188525,2.7045082 2.45901639,2.7045082 C2.44098361,2.70409836 2.40737705,2.70245902 2.38319672,2.68401639 C2.37131148,2.70081967 2.35245902,2.71065574 2.33196721,2.71065574 C2.29713115,2.71065574 2.26844262,2.68278689 2.26844262,2.64795082 C2.26844262,2.61762295 2.2897541,2.59098361 2.31967213,2.58565574 C2.30286885,2.59139344 2.29180328,2.60778689 2.29180328,2.62540984 C2.29180328,2.64877049 2.31065574,2.66762295 2.33360656,2.66762295 C2.35614754,2.66762295 2.37418033,2.65 2.37540984,2.62745902 C2.38237705,2.64098361 2.40942623,2.68155738 2.46270492,2.68401639 C2.51598361,2.68196721 2.54303279,2.64139344 2.54959016,2.62745902 C2.55081967,2.64959016 2.5692623,2.66762295 2.59180328,2.66762295 C2.61516393,2.66762295 2.63360656,2.64877049 2.63360656,2.62540984 C2.63360656,2.60778689 2.62295082,2.59139344 2.60614754,2.58565574 C2.63647541,2.59098361 2.65778689,2.61762295 2.65778689,2.64795082 Z M2.64139344,2.41762295 C2.57131148,2.37540984 2.57131148,2.36147541 2.5852459,2.36147541 C2.59918033,2.36147541 2.61311475,2.37540984 2.6692623,2.40368852 C2.72540984,2.43155738 2.80942623,2.43155738 2.94959016,2.37581967 C2.83032787,2.46680328 2.71147541,2.45983607 2.64139344,2.41762295 Z M3.03319672,2.26352459 C3.03319672,2.26352459 3.03319672,2.26352459 3.03319672,2.26352459 C3.03319672,2.26352459 3.03319672,2.26352459 3.03319672,2.26352459 C2.87213115,2.12377049 2.6692623,2.10245902 2.55696721,2.20778689 C2.5295082,2.24467213 2.51188525,2.28360656 2.5045082,2.325 C2.49057377,2.40491803 2.51516393,2.49098361 2.57786885,2.57909836 C2.57090164,2.57909836 2.55655738,2.58606557 2.54959016,2.59303279 C2.49385246,2.48647541 2.47418033,2.37745902 2.49262295,2.27336066 C2.49754098,2.24631148 2.50491803,2.21967213 2.5147541,2.19344262 C2.66885246,2.06762295 2.87909836,2.05368852 3.03319672,2.26352459 Z M2.41106557,2.19344262 C2.42090164,2.2192623 2.42827869,2.24631148 2.43319672,2.27336066 C2.45163934,2.37745902 2.43196721,2.48647541 2.37622951,2.59303279 C2.3692623,2.58606557 2.35532787,2.57909836 2.34795082,2.57909836 C2.41065574,2.49057377 2.4352459,2.4045082 2.42131148,2.325 C2.41393443,2.28401639 2.39631148,2.24467213 2.36885246,2.20778689 C2.25696721,2.10286885 2.05368852,2.12377049 1.89262295,2.26352459 C1.89262295,2.26352459 1.89262295,2.26352459 1.89262295,2.26352459 C1.89262295,2.26352459 1.89262295,2.26352459 1.89262295,2.26352459 C2.04713115,2.05368852 2.25737705,2.06762295 2.41106557,2.19344262 Z M1.97663934,2.37581967 C2.11680328,2.43196721 2.20081967,2.43196721 2.25696721,2.40368852 C2.31311475,2.37581967 2.32704918,2.36147541 2.34098361,2.36147541 C2.35491803,2.36147541 2.35491803,2.37540984 2.28483607,2.41762295 C2.2147541,2.45983607 2.09590164,2.46680328 1.97663934,2.37581967 Z M2.45901639,3.0045082 C2.39918033,3.0045082 2.34672131,3.04590164 2.33278689,3.10409836 C2.33278689,3.03442623 2.38934426,2.97786885 2.45901639,2.97786885 C2.52868852,2.97786885 2.5852459,3.03442623 2.5852459,3.10409836 C2.57131148,3.04590164 2.5192623,3.0045082 2.45901639,3.0045082 Z M2.45901639,2.97622951 L2.45778689,2.97622951 C2.30368852,2.97622951 2.37459016,2.89180328 2.22745902,2.87786885 C2.23606557,2.87704918 2.24344262,2.87704918 2.25081967,2.87704918 C2.30122951,2.86229508 2.33729508,2.85655738 2.36434426,2.85532787 C2.4102459,2.85327869 2.43114754,2.86352459 2.45778689,2.86352459 L2.45901639,2.86352459 C2.50122951,2.86352459 2.52909836,2.83565574 2.6692623,2.87786885 C2.54303279,2.85 2.51516393,2.89221311 2.45901639,2.89221311 L2.45819672,2.89221311 C2.40327869,2.89221311 2.37418033,2.85245902 2.25491803,2.87704918 C2.37622951,2.87581967 2.34016393,2.95491803 2.45819672,2.95491803 L2.45901639,2.95491803 C2.5852459,2.95491803 2.53647541,2.86393443 2.69057377,2.87786885 C2.54344262,2.89180328 2.61311475,2.97622951 2.45901639,2.97622951 Z" fill="#F8A24B"></path>
                            <path d="M2.83781148,2.34388525 C2.83781148,2.37238525 2.81981148,2.39288525 2.79631148,2.40588525 C2.83931148,2.39788525 2.88131148,2.38088525 2.91481148,2.34388525 C2.90731148,2.31838525 2.86231148,2.29738525 2.80981148,2.28688525 C2.82631148,2.30138525 2.83781148,2.32038525 2.83781148,2.34388525 Z" fill="#F8A24B"></path>
                            <path d="M2.71789344,2.34316393 C2.71789344,2.32266393 2.72639344,2.30416393 2.73989344,2.29016393 C2.70239344,2.30166393 2.66639344,2.32066393 2.64139344,2.36066393 C2.67689344,2.38916393 2.72139344,2.40366393 2.76689344,2.40816393 C2.73989344,2.39666393 2.71789344,2.37466393 2.71789344,2.34316393 Z" fill="#F8A24B"></path>
                            <path d="M3.01520492,2.3572541 C2.95970492,2.2972541 2.87970492,2.2647541 2.80420492,2.2647541 C2.72820492,2.2647541 2.65570492,2.2977541 2.61270492,2.3662541 C2.65620492,2.4052541 2.72620492,2.4262541 2.80120492,2.4252541 C2.79020492,2.4252541 2.78270492,2.4177541 2.77370492,2.4137541 C2.72820492,2.4092541 2.68320492,2.3942541 2.64820492,2.3662541 C2.67320492,2.3262541 2.70920492,2.3072541 2.74670492,2.2957541 C2.76070492,2.2812541 2.77970492,2.2717541 2.80170492,2.2717541 C2.82070492,2.2717541 2.83720492,2.2807541 2.85070492,2.2922541 C2.90320492,2.3022541 2.94820492,2.3232541 2.95570492,2.3492541 C2.92220492,2.3862541 2.88020492,2.4032541 2.83720492,2.4112541 C2.82620492,2.4177541 2.81570492,2.4257541 2.80170492,2.4257541 C2.87420492,2.4247541 2.95220492,2.4037541 3.01520492,2.3572541 Z" fill="#84371B"></path>
                            <path d="M2.63723099,2.29031148 C2.58911518,2.33331148 2.56529085,2.32431148 2.55734941,2.33331148 C2.54940796,2.34181148 2.55734941,2.36731148 2.5732323,2.35881148 C2.58911518,2.35031148 2.6213481,2.33331148 2.66899676,2.29031148 C2.71711257,2.24731148 2.76476123,2.24731148 2.81287703,2.24731148 C2.95675731,2.24731148 3.03663889,2.37531148 3.05252177,2.36681148 C3.06840466,2.35831148 2.97264019,2.22131148 2.81287703,2.22131148 C2.70917112,2.22181148 2.68534679,2.24731148 2.63723099,2.29031148 Z" fill="#85361B"></path>
                            <path d="M2.5147541,2.19506509 C2.50491803,2.2213415 2.49754098,2.24886917 2.49262295,2.27639684 C2.47459016,2.38233665 2.4942623,2.4932815 2.54959016,2.60172383 C2.55655738,2.59463337 2.5704918,2.58754291 2.57786885,2.58754291 C2.51516393,2.49745236 2.49057377,2.40986432 2.5045082,2.32894966 C2.51188525,2.28724107 2.52909836,2.24720082 2.55696721,2.20966309 C2.66885246,2.10288911 2.87213115,2.12416049 3.03319672,2.26638677 C2.87909836,2.0528388 2.66885246,2.06701972 2.5147541,2.19506509 Z" fill="#85361B"></path>
                            <polygon fill="#85361B" points="3.03369672 2.26352459 3.03319672 2.26352459 3.03319672 2.26352459"></polygon>
                            <path d="M2.85809836,2.3474918 C2.85809836,2.3239918 2.84659836,2.3049918 2.83009836,2.2909918 C2.81659836,2.2794918 2.80009836,2.2704918 2.78109836,2.2704918 C2.75909836,2.2704918 2.74009836,2.2799918 2.72609836,2.2944918 C2.71259836,2.3084918 2.70409836,2.3269918 2.70409836,2.3474918 C2.70409836,2.3789918 2.72609836,2.4009918 2.75309836,2.4129918 C2.76259836,2.4169918 2.77009836,2.4244918 2.78059836,2.4244918 C2.78059836,2.4244918 2.78059836,2.4244918 2.78059836,2.4244918 C2.79459836,2.4244918 2.80509836,2.4159918 2.81609836,2.4099918 C2.84009836,2.3959918 2.85809836,2.3759918 2.85809836,2.3474918 Z" fill="#85361B"></path>
                            <path d="M3.03134514,2.37897541 C2.86034514,2.44747541 2.75784514,2.44747541 2.68934514,2.41297541 C2.62084514,2.37897541 2.60384514,2.36147541 2.58684514,2.36147541 C2.56984514,2.36147541 2.56984514,2.37847541 2.65534514,2.42997541 C2.74084514,2.48147541 2.88584514,2.48997541 3.03134514,2.37897541 Z" fill="#85361B"></path>
                            <path d="M2.68085246,2.58565574 C2.70135246,2.59265574 2.71435246,2.61265574 2.71435246,2.63415574 C2.71435246,2.66265574 2.69135246,2.68565574 2.66335246,2.68565574 C2.63635246,2.68565574 2.61385246,2.66415574 2.61185246,2.63665574 C2.60335246,2.65315574 2.57035246,2.70265574 2.50585246,2.70565574 C2.44085246,2.70315574 2.40785246,2.65365574 2.39935246,2.63665574 C2.39785246,2.66365574 2.37535246,2.68565574 2.34835246,2.68565574 C2.31985246,2.68565574 2.29735246,2.66265574 2.29735246,2.63415574 C2.29735246,2.61265574 2.31035246,2.59265574 2.33135246,2.58565574 C2.29485246,2.59215574 2.26885246,2.62465574 2.26885246,2.66165574 C2.26885246,2.70415574 2.30385246,2.73815574 2.34635246,2.73815574 C2.37135246,2.73815574 2.39435246,2.72615574 2.40885246,2.70565574 C2.43835246,2.72765574 2.47935246,2.73015574 2.50135246,2.73065574 C2.50485246,2.73065574 2.50885246,2.73065574 2.51135246,2.73065574 C2.53335246,2.73015574 2.57435246,2.72815574 2.60385246,2.70565574 C2.61835246,2.72615574 2.64135246,2.73815574 2.66635246,2.73815574 C2.70885246,2.73815574 2.74385246,2.70415574 2.74385246,2.66165574 C2.74335246,2.62465574 2.71735246,2.59215574 2.68085246,2.58565574 Z" fill="#85361B"></path>
                            <path d="M2.72704918,2.90113115 C2.65896784,2.84963115 2.62802177,2.77213115 2.55242495,2.77213115 C2.53739401,2.77213115 2.50733212,2.78113115 2.47727022,2.79813115 L2.47594396,2.79813115 C2.44588207,2.78113115 2.41582018,2.77213115 2.40078923,2.77213115 C2.32519242,2.77213115 2.29513052,2.84963115 2.22704918,2.90113115 C2.26506863,2.88413115 2.29468844,2.85013115 2.34773884,2.81613115 C2.40078923,2.78213115 2.44588207,2.82363115 2.47594396,2.82363115 L2.47727022,2.82363115 C2.50733212,2.82363115 2.55242495,2.78213115 2.60547535,2.81613115 C2.65808366,2.85013115 2.68902973,2.88363115 2.72704918,2.90113115 Z" fill="#85361B"></path>
                            <path d="M2.47764742,2.97660004 L2.47631881,2.97660004 C2.34877231,2.97660004 2.38774485,2.88010004 2.25665539,2.88160004 C2.3855305,2.85160004 2.41697426,2.90010004 2.47631881,2.90010004 L2.47764742,2.90010004 C2.53832058,2.90010004 2.56843573,2.84860004 2.70483962,2.88260004 C2.55337815,2.83110004 2.52326301,2.86510004 2.47764742,2.86510004 L2.47676168,2.86510004 C2.44841801,2.86510004 2.42583165,2.85260004 2.37578736,2.85510004 C2.34655796,2.85660004 2.30758542,2.86360004 2.25311243,2.88160004 C2.24514077,2.88160004 2.23672625,2.88160004 2.22786885,2.88260004 C2.38685911,2.89960004 2.31024263,3.00260004 2.47676168,3.00260004 L2.47764742,3.00260004 C2.64416646,3.00260004 2.5688786,2.89960004 2.72786885,2.88260004 C2.56134981,2.86610004 2.61405131,2.97660004 2.47764742,2.97660004 Z" fill="#85361B"></path>
                            <path d="M2.64078689,3.13186885 C2.64078689,3.04686885 2.57178689,2.97786885 2.48678689,2.97786885 C2.40178689,2.97786885 2.33278689,3.04686885 2.33278689,3.13186885 C2.34978689,3.06086885 2.41328689,3.01036885 2.48678689,3.01036885 C2.56028689,3.01036885 2.62378689,3.06086885 2.64078689,3.13186885 Z" fill="#85361B"></path>
                            <polygon fill="#85361B" points="1.89312295 2.26352459 1.89312295 2.26352459 1.89262295 2.26352459"></polygon>
                            <path d="M2.3692623,2.20963484 C2.39672131,2.2471619 2.41434426,2.2867738 2.42172131,2.3288875 C2.43565574,2.41019612 2.41106557,2.49775926 2.34836066,2.58740724 C2.35532787,2.58740724 2.36967213,2.59449568 2.37663934,2.60158413 C2.43237705,2.49317262 2.45204918,2.38225931 2.43360656,2.27634961 C2.42868852,2.24882977 2.42131148,2.22172689 2.41147541,2.19504099 C2.25737705,2.06703202 2.04754098,2.05243816 1.89344262,2.2663424 C2.05409836,2.12415654 2.25696721,2.10247424 2.3692623,2.20963484 Z" fill="#85361B"></path>
                            <path d="M1.93504611,2.36672131 C1.950929,2.37522131 2.03081058,2.24722131 2.17469085,2.24722131 C2.22280665,2.24722131 2.27045531,2.24722131 2.31857112,2.29022131 C2.36621978,2.33322131 2.3984527,2.35022131 2.41433559,2.35872131 C2.43021847,2.36722131 2.43815992,2.34172131 2.43021847,2.33322131 C2.42227703,2.32472131 2.3984527,2.33322131 2.35033689,2.29022131 C2.30222109,2.24722131 2.27839676,2.22172131 2.17469085,2.22172131 C2.01492769,2.22172131 1.91916322,2.35822131 1.93504611,2.36672131 Z" fill="#85361B"></path>
                            <path d="M2.01919672,2.3662541 C2.04919672,2.3182541 2.09419672,2.2987541 2.14019672,2.2902541 C2.15319672,2.2802541 2.16769672,2.2717541 2.18519672,2.2717541 C2.20719672,2.2717541 2.22619672,2.2812541 2.24019672,2.2957541 C2.28369672,2.3077541 2.31969672,2.3262541 2.32619672,2.3487541 C2.29969672,2.3777541 2.26769672,2.3942541 2.23469672,2.4047541 C2.22319672,2.4147541 2.20819672,2.4207541 2.19219672,2.4222541 C2.25919672,2.4182541 2.32869672,2.3992541 2.38619672,2.3572541 C2.33069672,2.2972541 2.25069672,2.2647541 2.17469672,2.2647541 C2.09869672,2.2647541 2.02619672,2.2977541 1.98319672,2.3662541 C2.02819672,2.4067541 2.10269672,2.4267541 2.18119672,2.4242541 C2.17469672,2.4237541 2.17069672,2.4192541 2.16469672,2.4172541 C2.11219672,2.4167541 2.05969672,2.3987541 2.01919672,2.3662541 Z" fill="#84371B"></path>
                            <path d="M2.17006557,2.42108197 C2.18606557,2.41958197 2.20106557,2.41358197 2.21256557,2.40358197 C2.22856557,2.38958197 2.24006557,2.37058197 2.24006557,2.34708197 C2.24006557,2.32658197 2.23156557,2.30808197 2.21806557,2.29408197 C2.20406557,2.27958197 2.18506557,2.27008197 2.16306557,2.27008197 C2.14556557,2.27008197 2.13106557,2.27858197 2.11806557,2.28858197 C2.09956557,2.30258197 2.08606557,2.32208197 2.08606557,2.34658197 C2.08606557,2.38108197 2.11156557,2.40558197 2.14306557,2.41508197 C2.14906557,2.41708197 2.15306557,2.42158197 2.15956557,2.42208197 C2.16106557,2.42208197 2.16156557,2.42358197 2.16306557,2.42358197 C2.16556557,2.42408197 2.16706557,2.42158197 2.17006557,2.42108197 Z" fill="#85361B"></path>
                            <path d="M2.35263934,2.42997541 C2.43813934,2.37847541 2.43813934,2.36147541 2.42113934,2.36147541 C2.40413934,2.36147541 2.38713934,2.37847541 2.31863934,2.41297541 C2.25013934,2.44697541 2.14763934,2.44697541 1.97663934,2.37897541 C2.12213934,2.48997541 2.26713934,2.48147541 2.35263934,2.42997541 Z" fill="#85361B"></path>
                        </g>
                    </g>
                    <g id="Group" opacity="0.1" fill="#000000">
                        <path d="M23.3741803,0.410655738 C23.8262295,0.410655738 24.1938525,0.778278689 24.1938525,1.23032787 L24.1938525,15.1647541 C24.1938525,15.6168033 23.8262295,15.9844262 23.3741803,15.9844262 L1.24303279,15.9844262 C0.790983607,15.9844262 0.423360656,15.6168033 0.423360656,15.1647541 L0.423360656,1.23032787 C0.423360656,0.778278689 0.790983607,0.410655738 1.24303279,0.410655738 L23.3741803,0.410655738 Z M23.3741803,0.000819672131 L1.24303279,0.000819672131 C0.563934426,0.000819672131 0.0135245902,0.551229508 0.0135245902,1.23032787 L0.0135245902,15.1647541 C0.0135245902,15.8438525 0.563934426,16.3942623 1.24303279,16.3942623 L23.3741803,16.3942623 C24.0532787,16.3942623 24.6036885,15.8438525 24.6036885,15.1647541 L24.6036885,1.23032787 C24.6036885,0.551229508 24.0532787,0.000819672131 23.3741803,0.000819672131 Z" id="Shape"></path>
                    </g>
                </g>
            </g>
        </g>
    </g>
</svg>