
<svg width="25px" height="17px" viewBox="0 0 25 17" version="1.1" xmlns="http://www.w3.org/2000/svg" xmlns:xlink="http://www.w3.org/1999/xlink">
    <!-- Generator: Sketch 50.2 (55047) - http://www.bohemiancoding.com/sketch -->
    <desc>Created with Sketch.</desc>
    <defs></defs>
    <g id="Dashboard_light_10x-fonts" stroke="none" stroke-width="1" fill="none" fill-rule="evenodd">
        <g id="EMP100---APAC-Overview-Dashboard-Copy" transform="translate(-224.000000, -316.000000)" fill-rule="nonzero">
            <g id="south-korea" transform="translate(224.000000, 316.000000)">
                <g id="Group">
                    <rect id="Rectangle-path" fill="#FFFFFF" x="0" y="0" width="24.5901639" height="16.3934426"></rect>
                    <g transform="translate(4.098361, 2.049180)">
                        <g transform="translate(11.885246, 0.000000)" fill="#1E2C36" id="Rectangle-path">
                            <rect transform="translate(2.307020, 0.856136) rotate(56.311522) translate(-2.307020, -0.856136) " x="1.48280602" y="0.602642187" width="1.64842865" height="1"></rect>
                            <rect transform="translate(2.113508, 2.278557) rotate(-123.688478) translate(-2.113508, -2.278557) " x="0.211585034" y="2.0250634" width="3.80384542" height="1"></rect>
                            <rect transform="translate(3.501427, 2.648905) rotate(-33.691657) translate(-3.501427, -2.648905) " x="3.24795412" y="1.82475882" width="1" height="1.6482915"></rect>
                            <g transform="translate(0.000000, 0.819672)">
                                <rect transform="translate(0.724593, 1.091325) rotate(56.311522) translate(-0.724593, -1.091325) " x="-0.0996210664" y="0.837830589" width="1.64842865" height="1"></rect>
                                <rect transform="translate(1.920818, 2.884383) rotate(-33.688478) translate(-1.920818, -2.884383) " x="1.66732411" y="2.0601691" width="1" height="1.64842865"></rect>
                            </g>
                        </g>
                        <path d="M2.34180328,4.52991803 L1.91967213,4.24877049 L4.0295082,1.08401639 L4.45163934,1.36516393 L2.34180328,4.52991803 Z M1.55081967,4.00245902 L1.12868852,3.72131148 L3.23852459,0.556557377 L3.66065574,0.837704918 L1.55081967,4.00245902 Z M0.75942623,3.475 L0.337295082,3.19385246 L2.44713115,0.0290983607 L2.8692623,0.310245902 L0.75942623,3.475 Z" id="Shape" fill="#1E2C36"></path>
                        <g transform="translate(0.000000, 7.377049)" fill="#1E2C36" id="Rectangle-path">
                            <rect transform="translate(3.186298, 2.111804) rotate(-33.688478) translate(-3.186298, -2.111804) " x="2.93280364" y="0.209881673" width="1" height="3.80384542"></rect>
                            <rect transform="translate(1.796660, 1.742236) rotate(56.311522) translate(-1.796660, -1.742236) " x="0.972445737" y="1.48874206" width="1.64842865" height="1"></rect>
                            <rect transform="translate(1.603890, 3.165831) rotate(-123.688478) translate(-1.603890, -3.165831) " x="-0.298032261" y="2.91233733" width="3.80384542" height="1"></rect>
                            <rect transform="translate(2.992811, 3.534853) rotate(-123.688478) translate(-2.992811, -3.534853) " x="2.1685968" y="3.28135879" width="1.64842865" height="1"></rect>
                        </g>
                        <g transform="translate(11.885246, 7.377049)" fill="#1E2C36" id="Rectangle-path">
                            <rect transform="translate(3.502218, 2.270381) rotate(123.688478) translate(-3.502218, -2.270381) " x="2.67800377" y="2.01688711" width="1.64842865" height="1"></rect>
                            <rect transform="translate(2.710941, 1.743064) rotate(123.688478) translate(-2.710941, -1.743064) " x="1.8867266" y="1.48956985" width="1.64842865" height="1"></rect>
                            <rect transform="translate(1.919891, 1.215406) rotate(123.688478) translate(-1.919891, -1.215406) " x="1.09567676" y="0.961911573" width="1.64842865" height="1"></rect>
                            <rect transform="translate(2.307458, 4.061669) rotate(-56.311522) translate(-2.307458, -4.061669) " x="1.48324369" y="3.80817514" width="1.64842865" height="1"></rect>
                            <rect transform="translate(0.725031, 3.006809) rotate(-56.311522) translate(-0.725031, -3.006809) " x="-0.0991834025" y="2.75331461" width="1.64842865" height="1"></rect>
                            <rect transform="translate(1.516358, 3.534068) rotate(-56.311522) translate(-1.516358, -3.534068) " x="0.692143811" y="3.28057436" width="1.64842865" height="1"></rect>
                        </g>
                        <path d="M10.3065574,2.98278689 C8.55860656,1.81762295 6.19713115,2.2897541 5.03196721,4.03770492 C4.44918033,4.91147541 4.68565574,6.09221311 5.55942623,6.675 C6.43319672,7.25778689 7.61393443,7.02131148 8.19672131,6.14754098 C8.7795082,5.27377049 9.9602459,5.03729508 10.8340164,5.62008197 C11.7077869,6.20286885 11.9442623,7.38360656 11.3614754,8.25737705 C12.5266393,6.50942623 12.0545082,4.14795082 10.3065574,2.98278689 Z" id="Shape" fill="#F04F4D"></path>
                        <path d="M5.03196721,4.03770492 C4.44918033,4.91147541 4.68565574,6.09221311 5.55942623,6.675 C6.43319672,7.25778689 7.61393443,7.02131148 8.19672131,6.14754098 C8.7795082,5.27377049 9.9602459,5.03729508 10.8340164,5.62008197 C11.7077869,6.20286885 11.9442623,7.38360656 11.3614754,8.25737705 C10.1963115,10.0053279 7.83483607,10.477459 6.08688525,9.31229508 C4.33893443,8.14713115 3.86680328,5.78565574 5.03196721,4.03770492 Z" id="Shape" fill="#205BA8"></path>
                    </g>
                </g>
                <g id="Group" opacity="0.1" fill="#000000">
                    <path d="M23.3881148,0.41557377 C23.8401639,0.41557377 24.2077869,0.783196721 24.2077869,1.2352459 L24.2077869,15.1696721 C24.2077869,15.6217213 23.8401639,15.9893443 23.3881148,15.9893443 L1.25696721,15.9893443 C0.804918033,15.9893443 0.437295082,15.6217213 0.437295082,15.1696721 L0.437295082,1.2352459 C0.437295082,0.783196721 0.804918033,0.41557377 1.25696721,0.41557377 L23.3881148,0.41557377 Z M23.3881148,0.00573770492 L1.25696721,0.00573770492 C0.577868852,0.00573770492 0.0274590164,0.556147541 0.0274590164,1.2352459 L0.0274590164,15.1696721 C0.0274590164,15.8487705 0.577868852,16.3991803 1.25696721,16.3991803 L23.3881148,16.3991803 C24.0672131,16.3991803 24.617623,15.8487705 24.617623,15.1696721 L24.617623,1.2352459 C24.617623,0.556147541 24.0672131,0.00573770492 23.3881148,0.00573770492 Z" id="Shape"></path>
                </g>
            </g>
        </g>
    </g>
</svg>