
<svg width="25px" height="17px" viewBox="0 0 25 17" version="1.1" xmlns="http://www.w3.org/2000/svg" xmlns:xlink="http://www.w3.org/1999/xlink">
    <!-- Generator: Sketch 50.2 (55047) - http://www.bohemiancoding.com/sketch -->
    <desc>Created with Sketch.</desc>
    <defs></defs>
    <g id="Dashboard_light_10x-fonts" stroke="none" stroke-width="1" fill="none" fill-rule="evenodd">
        <g id="EMP100---APAC-Overview-Dashboard-Copy" transform="translate(-224.000000, -194.000000)" fill-rule="nonzero">
            <g id="japan" transform="translate(224.000000, 194.000000)">
                <g id="Group">
                    <rect id="Rectangle-path" fill="#FFFFFF" x="0" y="0" width="24.5901639" height="16.3934426"></rect>
                    <circle id="Oval" fill="#F04F4D" cx="12.295082" cy="8.19672131" r="3.68852459"></circle>
                </g>
                <g id="Group" opacity="0.1" fill="#000000">
                    <path d="M23.3815574,0.41557377 C23.8336066,0.41557377 24.2012295,0.783196721 24.2012295,1.2352459 L24.2012295,15.1696721 C24.2012295,15.6217213 23.8336066,15.9893443 23.3815574,15.9893443 L1.25040984,15.9893443 C0.798360656,15.9893443 0.430737705,15.6217213 0.430737705,15.1696721 L0.430737705,1.2352459 C0.430737705,0.783196721 0.798360656,0.41557377 1.25040984,0.41557377 L23.3815574,0.41557377 Z M23.3815574,0.00573770492 L1.25040984,0.00573770492 C0.571311475,0.00573770492 0.0209016393,0.556147541 0.0209016393,1.2352459 L0.0209016393,15.1696721 C0.0209016393,15.8487705 0.571311475,16.3991803 1.25040984,16.3991803 L23.3815574,16.3991803 C24.0606557,16.3991803 24.6110656,15.8487705 24.6110656,15.1696721 L24.6110656,1.2352459 C24.6110656,0.556147541 24.0606557,0.00573770492 23.3815574,0.00573770492 Z" id="Shape"></path>
                </g>
            </g>
        </g>
    </g>
</svg>