
<svg width="25px" height="18px" viewBox="0 0 25 18" version="1.1" xmlns="http://www.w3.org/2000/svg" xmlns:xlink="http://www.w3.org/1999/xlink">
    <!-- Generator: Sketch 50.2 (55047) - http://www.bohemiancoding.com/sketch -->
    <desc>Created with Sketch.</desc>
    <defs>
        <rect id="path-1" x="0" y="0" width="25" height="18"></rect>
    </defs>
    <g id="Dashboard_light_10x-fonts" stroke="none" stroke-width="1" fill="none" fill-rule="evenodd">
        <g id="EMP100---EMEA-Overview-Dashboard" transform="translate(-224.000000, -397.000000)">
            <g id="Sub-menu" transform="translate(186.000000, -1.000000)">
                <g id="ES" transform="translate(38.000000, 398.000000)">
                    <mask id="mask-2" fill="white">
                        <use xlink:href="#path-1"></use>
                    </mask>
                    <use id="Mask" fill="#FFFFFF" xlink:href="#path-1"></use>
                    <rect id="Rectangle-2" fill="#DD172C" mask="url(#mask-2)" x="0" y="0" width="25" height="4.8"></rect>
                    <rect id="Rectangle-2" fill="#DD172C" mask="url(#mask-2)" x="0" y="13.2" width="25" height="4.8"></rect>
                    <rect id="Rectangle-2" fill="#FFD133" mask="url(#mask-2)" x="0" y="4.8" width="25" height="8.4"></rect>
                    <polygon id="Rectangle-139-Copy" fill="#FFEDB1" mask="url(#mask-2)" points="6.54761905 8.4 7.73809524 8.4 7.73809524 9 6.54761905 9"></polygon>
                    <path d="M6.54740411,11.0571609 C6.50161115,11.0634259 6.45519516,11.0666667 6.40839395,11.0666667 L6.40839395,11.7333333 L6.68684414,11.7333333 L6.68684414,11.0666667 C6.63987165,11.0666667 6.59331362,11.0634258 6.54740411,11.0571609 Z" id="Rectangle-137" stroke="#A41517" stroke-width="0.666666667" mask="url(#mask-2)"></path>
                    <polygon id="Rectangle-139" fill="#A41517" mask="url(#mask-2)" points="5.35714286 9 7.73809524 9 7.73809524 9.6 7.14285714 9.6 6.54761905 10.8 5.95238095 9.6 5.35714286 9.6"></polygon>
                    <rect id="Rectangle-135" fill="#A41517" mask="url(#mask-2)" x="3.57142857" y="7.2" width="1.19047619" height="4.2"></rect>
                    <rect id="Rectangle-135-Copy" fill="#A41517" mask="url(#mask-2)" x="8.33333333" y="7.2" width="1.19047619" height="4.2"></rect>
                    <path d="M5.35714286,6.6 C5.35714286,6.26862915 5.63026837,6 5.95795768,6 L7.13728042,6 C7.46910128,6 7.73809524,6.27832031 7.73809524,6.6 L7.73809524,6.87209473 C7.73809524,7.05319181 7.5818743,7.2 7.40703401,7.2 L5.68820408,7.2 C5.50536402,7.2 5.35714286,7.05285645 5.35714286,6.87209473 L5.35714286,6.6 Z" id="Rectangle-138" fill="#A41517" mask="url(#mask-2)"></path>
                </g>
            </g>
        </g>
    </g>
</svg>