
<svg width="25px" height="18px" viewBox="0 0 25 18" version="1.1" xmlns="http://www.w3.org/2000/svg" xmlns:xlink="http://www.w3.org/1999/xlink">
    <!-- Generator: Sketch 50.2 (55047) - http://www.bohemiancoding.com/sketch -->
    <desc>Created with Sketch.</desc>
    <defs></defs>
    <g id="Dashboard_light_10x-fonts" stroke="none" stroke-width="1" fill="none" fill-rule="evenodd">
        <g id="EMP100---AMER-Overview-Dashboard" transform="translate(-221.000000, -207.000000)" fill-rule="nonzero">
            <g id="Group-2" transform="translate(221.000000, 207.000000)">
                <g id="united-states">
                    <g id="Group">
                        <rect id="Rectangle-path" fill="#F04F4D" x="0" y="0" width="25" height="17.2222222"></rect>
                        <rect id="stripe_13_" fill="#FFFFFF" x="0" y="1.11111111" width="25" height="1.11111111"></rect>
                        <rect id="stripe_12_" fill="#FFFFFF" x="0" y="3.88888889" width="25" height="1.11111111"></rect>
                        <rect id="stripe_11_" fill="#FFFFFF" x="0" y="6.66666667" width="25" height="1.11111111"></rect>
                        <rect id="stripe_10_" fill="#FFFFFF" x="0" y="9.44444444" width="25" height="1.11111111"></rect>
                        <rect id="stripe_9_" fill="#FFFFFF" x="0" y="12.2222222" width="25" height="1.11111111"></rect>
                        <rect id="stripe_8_" fill="#FFFFFF" x="0" y="14.4444444" width="25" height="1.11111111"></rect>
                        <rect id="Rectangle-path" fill="#205BA8" x="0" y="0" width="12.7777778" height="9.44444444"></rect>
                        <g transform="translate(0.555556, 0.555556)" fill="#FFFFFF" id="Shape">
                            <polygon points="0.470833333 0.596 0.356666667 0.963555556 0.655833333 0.736444444 0.954583333 0.963555556 0.840416667 0.596 1.13916667 0.368888889 0.77 0.368888889 0.655833333 0.00133333333 0.541666667 0.368888889 0.172083333 0.368888889"></polygon>
                            <polygon points="2.55125 0.596 2.43708333 0.963555556 2.73625 0.736444444 3.035 0.963555556 2.92083333 0.596 3.21958333 0.368888889 2.85041667 0.368888889 2.73625 0.00133333333 2.62208333 0.368888889 2.2525 0.368888889"></polygon>
                            <polygon points="4.63166667 0.596 4.5175 0.963555556 4.81625 0.736444444 5.11541667 0.963555556 5.00125 0.596 5.3 0.368888889 4.93041667 0.368888889 4.81625 0.00133333333 4.70208333 0.368888889 4.33291667 0.368888889"></polygon>
                            <polygon points="6.71208333 0.596 6.59791667 0.963555556 6.89666667 0.736444444 7.19583333 0.963555556 7.08166667 0.596 7.38041667 0.368888889 7.01083333 0.368888889 6.89666667 0.00133333333 6.7825 0.368888889 6.41291667 0.368888889"></polygon>
                            <polygon points="8.7925 0.596 8.67833333 0.963555556 8.97708333 0.736444444 9.27583333 0.963555556 9.16166667 0.596 9.46083333 0.368888889 9.09125 0.368888889 8.97708333 0.00133333333 8.86291667 0.368888889 8.49333333 0.368888889"></polygon>
                            <polygon points="10.8725 0.596 10.7583333 0.963555556 11.0575 0.736444444 11.35625 0.963555556 11.2420833 0.596 11.54125 0.368888889 11.1716667 0.368888889 11.0575 0.00133333333 10.9433333 0.368888889 10.57375 0.368888889"></polygon>
                            <polygon points="1.51125 1.52844444 1.39708333 1.89555556 1.69583333 1.66844444 1.995 1.89555556 1.88041667 1.52844444 2.17958333 1.30133333 1.81 1.30133333 1.69583333 0.933777778 1.58166667 1.30133333 1.21208333 1.30133333"></polygon>
                            <polygon points="3.59166667 1.52844444 3.4775 1.89555556 3.77625 1.66844444 4.075 1.89555556 3.96083333 1.52844444 4.26 1.30133333 3.89041667 1.30133333 3.77625 0.933777778 3.66208333 1.30133333 3.2925 1.30133333"></polygon>
                            <polygon points="5.67166667 1.52844444 5.5575 1.89555556 5.85666667 1.66844444 6.15541667 1.89555556 6.04125 1.52844444 6.34041667 1.30133333 5.97083333 1.30133333 5.85666667 0.933777778 5.7425 1.30133333 5.37291667 1.30133333"></polygon>
                            <polygon points="7.75208333 1.52844444 7.63791667 1.89555556 7.93708333 1.66844444 8.23583333 1.89555556 8.12166667 1.52844444 8.42041667 1.30133333 8.05125 1.30133333 7.93708333 0.933777778 7.82291667 1.30133333 7.45333333 1.30133333"></polygon>
                            <polygon points="9.8325 1.52844444 9.71833333 1.89555556 10.0170833 1.66844444 10.31625 1.89555556 10.2020833 1.52844444 10.5008333 1.30133333 10.13125 1.30133333 10.0170833 0.933777778 9.90291667 1.30133333 9.53375 1.30133333"></polygon>
                            <polygon points="0.356666667 2.828 0.655833333 2.60088889 0.954583333 2.828 0.840416667 2.46044444 1.13916667 2.23333333 0.77 2.23333333 0.655833333 1.86622222 0.541666667 2.23333333 0.172083333 2.23333333 0.470833333 2.46044444"></polygon>
                            <polygon points="2.43708333 2.828 2.73625 2.60088889 3.035 2.828 2.92083333 2.46044444 3.21958333 2.23333333 2.85041667 2.23333333 2.73625 1.86622222 2.62208333 2.23333333 2.2525 2.23333333 2.55125 2.46044444"></polygon>
                            <polygon points="4.5175 2.828 4.81625 2.60088889 5.11541667 2.828 5.00125 2.46044444 5.3 2.23333333 4.93041667 2.23333333 4.81625 1.86622222 4.70208333 2.23333333 4.33291667 2.23333333 4.63166667 2.46044444"></polygon>
                            <polygon points="6.59791667 2.828 6.89666667 2.60088889 7.19583333 2.828 7.08166667 2.46044444 7.38041667 2.23333333 7.01083333 2.23333333 6.89666667 1.86622222 6.7825 2.23333333 6.41291667 2.23333333 6.71208333 2.46044444"></polygon>
                            <polygon points="8.67833333 2.828 8.97708333 2.60088889 9.27583333 2.828 9.16166667 2.46044444 9.46083333 2.23333333 9.09125 2.23333333 8.97708333 1.86622222 8.86291667 2.23333333 8.49333333 2.23333333 8.7925 2.46044444"></polygon>
                            <polygon points="10.7583333 2.828 11.0575 2.60088889 11.35625 2.828 11.2420833 2.46044444 11.54125 2.23333333 11.1716667 2.23333333 11.0575 1.86622222 10.9433333 2.23333333 10.57375 2.23333333 10.8725 2.46044444"></polygon>
                            <polygon points="1.39708333 3.89777778 1.69583333 3.67066667 1.995 3.89777778 1.88041667 3.53022222 2.17958333 3.30311111 1.81 3.30311111 1.69583333 2.936 1.58166667 3.30311111 1.21208333 3.30311111 1.51125 3.53022222"></polygon>
                            <polygon points="3.4775 3.89777778 3.77625 3.67066667 4.075 3.89777778 3.96083333 3.53022222 4.26 3.30311111 3.89041667 3.30311111 3.77625 2.936 3.66208333 3.30311111 3.2925 3.30311111 3.59166667 3.53022222"></polygon>
                            <polygon points="5.5575 3.89777778 5.85666667 3.67066667 6.15541667 3.89777778 6.04125 3.53022222 6.34041667 3.30311111 5.97083333 3.30311111 5.85666667 2.936 5.7425 3.30311111 5.37291667 3.30311111 5.67166667 3.53022222"></polygon>
                            <polygon points="7.63791667 3.89777778 7.93708333 3.67066667 8.23583333 3.89777778 8.12166667 3.53022222 8.42041667 3.30311111 8.05125 3.30311111 7.93708333 2.936 7.82291667 3.30311111 7.45333333 3.30311111 7.75208333 3.53022222"></polygon>
                            <polygon points="9.71833333 3.89777778 10.0170833 3.67066667 10.31625 3.89777778 10.2020833 3.53022222 10.5008333 3.30311111 10.13125 3.30311111 10.0170833 2.936 9.90291667 3.30311111 9.53375 3.30311111 9.8325 3.53022222"></polygon>
                            <polygon points="0.356666667 4.83022222 0.655833333 4.60311111 0.954583333 4.83022222 0.840416667 4.46266667 1.13916667 4.23555556 0.77 4.23555556 0.655833333 3.868 0.541666667 4.23555556 0.172083333 4.23555556 0.470833333 4.46266667"></polygon>
                            <polygon points="2.43708333 4.83022222 2.73625 4.60311111 3.035 4.83022222 2.92083333 4.46266667 3.21958333 4.23555556 2.85041667 4.23555556 2.73625 3.868 2.62208333 4.23555556 2.2525 4.23555556 2.55125 4.46266667"></polygon>
                            <polygon points="4.5175 4.83022222 4.81625 4.60311111 5.11541667 4.83022222 5.00125 4.46266667 5.3 4.23555556 4.93041667 4.23555556 4.81625 3.868 4.70208333 4.23555556 4.33291667 4.23555556 4.63166667 4.46266667"></polygon>
                            <polygon points="6.59791667 4.83022222 6.89666667 4.60311111 7.19583333 4.83022222 7.08166667 4.46266667 7.38041667 4.23555556 7.01083333 4.23555556 6.89666667 3.868 6.7825 4.23555556 6.41291667 4.23555556 6.71208333 4.46266667"></polygon>
                            <polygon points="8.67833333 4.83022222 8.97708333 4.60311111 9.27583333 4.83022222 9.16166667 4.46266667 9.46083333 4.23555556 9.09125 4.23555556 8.97708333 3.868 8.86291667 4.23555556 8.49333333 4.23555556 8.7925 4.46266667"></polygon>
                            <polygon points="10.7583333 4.83022222 11.0575 4.60311111 11.35625 4.83022222 11.2420833 4.46266667 11.54125 4.23555556 11.1716667 4.23555556 11.0575 3.868 10.9433333 4.23555556 10.57375 4.23555556 10.8725 4.46266667"></polygon>
                            <polygon points="1.73458333 4.91866667 1.62041667 5.28622222 1.25083333 5.28622222 1.55 5.51333333 1.43583333 5.88044444 1.73458333 5.65333333 2.03333333 5.88044444 1.91916667 5.51333333 2.21833333 5.28622222 1.84875 5.28622222"></polygon>
                            <polygon points="3.815 4.91866667 3.70083333 5.28622222 3.33125 5.28622222 3.63 5.51333333 3.51583333 5.88044444 3.815 5.65333333 4.11375 5.88044444 3.99958333 5.51333333 4.29875 5.28622222 3.92916667 5.28622222"></polygon>
                            <polygon points="5.89541667 4.91866667 5.78125 5.28622222 5.41166667 5.28622222 5.71041667 5.51333333 5.59625 5.88044444 5.89541667 5.65333333 6.19416667 5.88044444 6.08 5.51333333 6.37875 5.28622222 6.00958333 5.28622222"></polygon>
                            <polygon points="7.97583333 4.91866667 7.86125 5.28622222 7.49208333 5.28622222 7.79083333 5.51333333 7.67666667 5.88044444 7.97583333 5.65333333 8.27458333 5.88044444 8.16041667 5.51333333 8.45916667 5.28622222 8.09 5.28622222"></polygon>
                            <polygon points="10.0558333 4.91866667 9.94166667 5.28622222 9.5725 5.28622222 9.87125 5.51333333 9.75708333 5.88044444 10.0558333 5.65333333 10.355 5.88044444 10.2408333 5.51333333 10.5395833 5.28622222 10.17 5.28622222"></polygon>
                            <polygon points="0.694583333 5.85066667 0.580416667 6.21822222 0.210833333 6.21822222 0.509583333 6.44533333 0.395416667 6.81288889 0.694583333 6.58577778 0.993333333 6.81288889 0.879166667 6.44533333 1.17791667 6.21822222 0.80875 6.21822222"></polygon>
                            <polygon points="2.77458333 5.85066667 2.66041667 6.21822222 2.29125 6.21822222 2.59 6.44533333 2.47583333 6.81288889 2.77458333 6.58577778 3.07375 6.81288889 2.95958333 6.44533333 3.25833333 6.21822222 2.88875 6.21822222"></polygon>
                            <polygon points="4.855 5.85066667 4.74083333 6.21822222 4.37166667 6.21822222 4.67041667 6.44533333 4.55625 6.81288889 4.855 6.58577778 5.15416667 6.81288889 5.04 6.44533333 5.33875 6.21822222 4.96916667 6.21822222"></polygon>
                            <polygon points="6.93541667 5.85066667 6.82125 6.21822222 6.45166667 6.21822222 6.75083333 6.44533333 6.63666667 6.81288889 6.93541667 6.58577778 7.23416667 6.81288889 7.12 6.44533333 7.41916667 6.21822222 7.04958333 6.21822222"></polygon>
                            <polygon points="9.01583333 5.85066667 8.90166667 6.21822222 8.53208333 6.21822222 8.83125 6.44533333 8.71708333 6.81288889 9.01583333 6.58577778 9.31458333 6.81288889 9.20041667 6.44533333 9.49958333 6.21822222 9.13 6.21822222"></polygon>
                            <polygon points="11.2104167 6.21822222 11.09625 5.85066667 10.9820833 6.21822222 10.6125 6.21822222 10.91125 6.44533333 10.7970833 6.81288889 11.09625 6.58577778 11.395 6.81288889 11.2808333 6.44533333 11.5795833 6.21822222"></polygon>
                            <polygon points="1.84875 7.19466667 1.73458333 6.82711111 1.62041667 7.19466667 1.25083333 7.19466667 1.55 7.42177778 1.43583333 7.78933333 1.73458333 7.56222222 2.03333333 7.78933333 1.91916667 7.42177778 2.21833333 7.19466667"></polygon>
                            <polygon points="3.92916667 7.19466667 3.815 6.82711111 3.70083333 7.19466667 3.33125 7.19466667 3.63 7.42177778 3.51583333 7.78933333 3.815 7.56222222 4.11375 7.78933333 3.99958333 7.42177778 4.29875 7.19466667"></polygon>
                            <polygon points="6.00958333 7.19466667 5.89541667 6.82711111 5.78125 7.19466667 5.41166667 7.19466667 5.71041667 7.42177778 5.59625 7.78933333 5.89541667 7.56222222 6.19416667 7.78933333 6.08 7.42177778 6.37875 7.19466667"></polygon>
                            <polygon points="8.08958333 7.19466667 7.97583333 6.82711111 7.86125 7.19466667 7.49208333 7.19466667 7.79083333 7.42177778 7.67666667 7.78933333 7.97583333 7.56222222 8.27458333 7.78933333 8.16041667 7.42177778 8.45916667 7.19466667"></polygon>
                            <polygon points="10.17 7.19466667 10.0558333 6.82711111 9.94166667 7.19466667 9.5725 7.19466667 9.87125 7.42177778 9.75708333 7.78933333 10.0558333 7.56222222 10.355 7.78933333 10.2408333 7.42177778 10.5395833 7.19466667"></polygon>
                            <polygon points="0.80875 8.12711111 0.694583333 7.75955556 0.580416667 8.12711111 0.210833333 8.12711111 0.509583333 8.35422222 0.395416667 8.72133333 0.694583333 8.49422222 0.993333333 8.72133333 0.879166667 8.35422222 1.17791667 8.12711111"></polygon>
                            <polygon points="2.88875 8.12711111 2.77458333 7.75955556 2.66041667 8.12711111 2.29125 8.12711111 2.59 8.35422222 2.47583333 8.72133333 2.77458333 8.49422222 3.07375 8.72133333 2.95958333 8.35422222 3.25833333 8.12711111"></polygon>
                            <polygon points="4.96916667 8.12711111 4.855 7.75955556 4.74083333 8.12711111 4.37166667 8.12711111 4.67041667 8.35422222 4.55625 8.72133333 4.855 8.49422222 5.15416667 8.72133333 5.04 8.35422222 5.33875 8.12711111"></polygon>
                            <polygon points="7.04958333 8.12711111 6.93541667 7.75955556 6.82125 8.12711111 6.45166667 8.12711111 6.75083333 8.35422222 6.63666667 8.72133333 6.93541667 8.49422222 7.23416667 8.72133333 7.12 8.35422222 7.41916667 8.12711111"></polygon>
                            <polygon points="9.13 8.12711111 9.01583333 7.75955556 8.90166667 8.12711111 8.53208333 8.12711111 8.83125 8.35422222 8.71708333 8.72133333 9.01583333 8.49422222 9.31458333 8.72133333 9.20041667 8.35422222 9.49958333 8.12711111"></polygon>
                            <polygon points="11.2104167 8.12711111 11.09625 7.75955556 10.9820833 8.12711111 10.6125 8.12711111 10.91125 8.35422222 10.7970833 8.72133333 11.09625 8.49422222 11.395 8.72133333 11.2808333 8.35422222 11.5795833 8.12711111"></polygon>
                        </g>
                    </g>
                    <g id="Group" opacity="0.1" fill="#000000">
                        <path d="M23.75,0.444444444 C24.2095833,0.444444444 24.5833333,0.843111111 24.5833333,1.33333333 L24.5833333,16.4444444 C24.5833333,16.9346667 24.2095833,17.3333333 23.75,17.3333333 L1.25,17.3333333 C0.790416667,17.3333333 0.416666667,16.9346667 0.416666667,16.4444444 L0.416666667,1.33333333 C0.416666667,0.843111111 0.790416667,0.444444444 1.25,0.444444444 L23.75,0.444444444 Z M23.75,0 L1.25,0 C0.559583333,0 0,0.596888889 0,1.33333333 L0,16.4444444 C0,17.1808889 0.559583333,17.7777778 1.25,17.7777778 L23.75,17.7777778 C24.4404167,17.7777778 25,17.1808889 25,16.4444444 L25,1.33333333 C25,0.596888889 24.4404167,0 23.75,0 Z" id="Shape"></path>
                    </g>
                </g>
            </g>
        </g>
    </g>
</svg>