
<svg width="25px" height="17px" viewBox="0 0 25 17" version="1.1" xmlns="http://www.w3.org/2000/svg" xmlns:xlink="http://www.w3.org/1999/xlink">
    <!-- Generator: Sketch 50.2 (55047) - http://www.bohemiancoding.com/sketch -->
    <desc>Created with Sketch.</desc>
    <defs></defs>
    <g id="Dashboard_light_10x-fonts" stroke="none" stroke-width="1" fill="none" fill-rule="evenodd">
        <g id="EMP100---APAC-Overview-Dashboard-Copy" transform="translate(-224.000000, -234.000000)" fill-rule="nonzero">
            <g id="australia" transform="translate(224.000000, 234.000000)">
                <g id="Group">
                    <g id="Shape">
                        <polyline fill="#205BA8" points="0.00860655738 2.73155738 2.60163934 2.73155738 0.00860655738 0.996311475"></polyline>
                        <polyline fill="#205BA8" points="0.00860655738 7.2 2.60163934 5.46516393 0.00860655738 5.46516393"></polyline>
                        <polyline fill="#205BA8" points="0 16.3934426 24.5901639 16.3934426 24.5901639 0 12.2864754 0 12.2864754 0.996311475 9.68032787 2.73155738 12.2864754 2.73155738 12.2864754 5.46516393 9.68032787 5.46516393 12.2864754 7.2 12.2864754 8.19672131 10.7901639 8.19672131 7.16270492 5.7852459 7.16270492 8.19672131 5.11967213 8.19672131 5.11967213 5.7852459 1.49221311 8.19672131 0.00860655738 8.19672131"></polyline>
                        <polygon fill="#205BA8" points="10.7901639 0 7.16270492 0 7.16270492 2.41147541"></polygon>
                        <polygon fill="#205BA8" points="5.11967213 0 1.49221311 0 5.11967213 2.41147541"></polygon>
                        <g transform="translate(4.508197, 2.459016)" fill="#FFFFFF">
                            <polygon points="2.91639344 9.09959016 3.55942623 8.13237705 2.47295082 8.54344262 2.11762295 7.43770492 1.76188525 8.54344262 0.675409836 8.13237705 1.31844262 9.09959016 0.319262295 9.69262295 1.47663934 9.79303279 1.31721311 10.9438525 2.11762295 10.1016393 2.91762295 10.9438525 2.75819672 9.79303279 3.91557377 9.69262295"></polygon>
                            <polygon points="14.7930328 10.2196721 15.0991803 9.75901639 14.5819672 9.95491803 14.4127049 9.42827869 14.2430328 9.95491803 13.7258197 9.75901639 14.0319672 10.2196721 13.5565574 10.5020492 14.107377 10.55 14.0315574 11.0979508 14.4127049 10.6971311 14.7934426 11.0979508 14.717623 10.55 15.2688525 10.5020492"></polygon>
                            <polygon points="11.7192623 4.94303279 12.0254098 4.48237705 11.5081967 4.67827869 11.3389344 4.15163934 11.1692623 4.67827869 10.6520492 4.48237705 10.9581967 4.94303279 10.4827869 5.22540984 11.0336066 5.27336066 10.9577869 5.82131148 11.3389344 5.4204918 11.7196721 5.82131148 11.6438525 5.27336066 12.195082 5.22540984"></polygon>
                            <polygon points="14.107377 1.12377049 14.0315574 1.67172131 14.4127049 1.27090164 14.7934426 1.67172131 14.717623 1.12377049 15.2688525 1.07581967 14.7930328 0.793442623 15.0991803 0.332786885 14.5819672 0.528688525 14.4127049 0.00204918033 14.2430328 0.528688525 13.7258197 0.332786885 14.0319672 0.793442623 13.5565574 1.07581967"></polygon>
                            <polygon points="18.0012295 3.99590164 17.5254098 3.71352459 17.8315574 3.25286885 17.3143443 3.44877049 17.1446721 2.92213115 16.9754098 3.44877049 16.4581967 3.25286885 16.7643443 3.71352459 16.2885246 3.99590164 16.8397541 4.04385246 16.7639344 4.59180328 17.1446721 4.19098361 17.5258197 4.59180328 17.45 4.04385246"></polygon>
                            <polygon points="15.7758197 6.12663934 15.6422131 5.79836066 15.5081967 6.12663934 15.154918 6.15245902 15.4254098 6.38114754 15.3409836 6.72540984 15.6422131 6.53852459 15.9430328 6.72540984 15.8586066 6.38114754 16.1290984 6.15245902"></polygon>
                        </g>
                    </g>
                    <g id="Shape">
                        <polygon fill="#FFFFFF" points="4.11188525 2.73319672 3.12090164 2.73319672 0.00860655738 0.658606557 0.00860655738 0.996311475 2.60163934 2.73155738 0.00860655738 2.73155738 0.00860655738 3.29836066 5.55409836 3.29836066 5.55409836 0 5.11967213 0 5.11967213 2.41147541 1.49221311 0 0.00860655738 0 0.00860655738 0.00573770492"></polygon>
                        <polygon fill="#FFFFFF" points="12.2864754 3.29836066 12.2864754 2.73155738 9.68032787 2.73155738 12.2864754 0.996311475 12.2864754 0.00573770492 8.20696721 2.73319672 7.22459016 2.73319672 11.3286885 0 10.7901639 0 7.16270492 2.41147541 7.16270492 0 6.75614754 0 6.75614754 3.29836066"></polygon>
                        <polygon fill="#FFFFFF" points="8.20286885 5.4647541 9.18934426 5.4647541 12.2864754 7.5397541 12.2864754 7.20040984 9.68032787 5.46516393 12.2864754 5.46516393 12.2864754 4.89918033 6.75614754 4.89918033 6.75614754 8.19672131 7.16270492 8.19672131 7.16270492 5.7852459 10.7901639 8.19672131 12.2864754 8.19672131 12.2864754 8.19098361"></polygon>
                        <polygon fill="#FFFFFF" points="0.00860655738 4.89918033 0.00860655738 5.46516393 2.60163934 5.46516393 0.00860655738 7.20040984 0.00860655738 8.19098361 4.10327869 5.4647541 5.08565574 5.4647541 0.981967213 8.19672131 1.49221311 8.19672131 5.11967213 5.7852459 5.11967213 8.19672131 5.55409836 8.19672131 5.55409836 4.89918033"></polygon>
                        <g fill="#E03B3F">
                            <polygon points="11.3286885 0 7.22459016 2.73319672 8.20696721 2.73319672 12.295082 0"></polygon>
                            <polygon points="12.295082 8.19672131 8.20286885 5.4647541 9.18934426 5.4647541 12.295082 7.5454918"></polygon>
                            <polygon points="4.11188525 2.73319672 0 0 0 0.652868852 3.12090164 2.73319672"></polygon>
                            <polygon points="4.10327869 5.4647541 0 8.19672131 0.981967213 8.19672131 5.08565574 5.4647541"></polygon>
                            <polygon points="0 3.29836066 5.55409836 3.29836066 5.55409836 0 6.75614754 0 6.75614754 3.29836066 12.295082 3.29836066 12.295082 4.89918033 6.75614754 4.89918033 6.75614754 8.19672131 5.55409836 8.19672131 5.55409836 4.89918033 0 4.89918033"></polygon>
                        </g>
                    </g>
                </g>
                <g id="Group" opacity="0.1" fill="#000000">
                    <path d="M23.3827869,0.409836066 C23.8348361,0.409836066 24.202459,0.777459016 24.202459,1.2295082 L24.202459,15.1639344 C24.202459,15.6159836 23.8348361,15.9836066 23.3827869,15.9836066 L1.25163934,15.9836066 C0.799590164,15.9836066 0.431967213,15.6159836 0.431967213,15.1639344 L0.431967213,1.2295082 C0.431967213,0.777459016 0.799590164,0.409836066 1.25163934,0.409836066 L23.3827869,0.409836066 Z M23.3827869,0 L1.25163934,0 C0.572540984,0 0.0221311475,0.550409836 0.0221311475,1.2295082 L0.0221311475,15.1639344 C0.0221311475,15.8430328 0.572540984,16.3934426 1.25163934,16.3934426 L23.3827869,16.3934426 C24.0618852,16.3934426 24.6122951,15.8430328 24.6122951,15.1639344 L24.6122951,1.2295082 C24.6122951,0.550409836 24.0618852,0 23.3827869,0 Z" id="Shape"></path>
                </g>
            </g>
        </g>
    </g>
</svg>