
<svg width="25px" height="17px" viewBox="0 0 25 17" version="1.1" xmlns="http://www.w3.org/2000/svg" xmlns:xlink="http://www.w3.org/1999/xlink">
    <!-- Generator: Sketch 50.2 (55047) - http://www.bohemiancoding.com/sketch -->
    <desc>Created with Sketch.</desc>
    <defs></defs>
    <g id="Dashboard_light_10x-fonts" stroke="none" stroke-width="1" fill="none" fill-rule="evenodd">
        <g id="EMP100---AMER-Overview-Dashboard" transform="translate(-221.000000, -289.000000)" fill-rule="nonzero">
            <g id="Group-2" transform="translate(221.000000, 207.000000)">
                <g id="brazil" transform="translate(0.000000, 82.000000)">
                    <g id="Group">
                        <rect id="Rectangle-path" fill="#58B55C" x="0" y="0" width="24.5901639" height="16.3934426"></rect>
                        <polygon id="Shape" fill="#FFE527" points="12.2852459 2.01967213 1.10819672 8.21885246 12.2852459 14.3016393 12.3077869 14.3016393 23.4848361 8.21885246 12.3077869 2.01967213"></polygon>
                        <ellipse id="Oval" fill="#0C5FAC" cx="12.2778689" cy="8.19836066" rx="4.05122951" ry="4.0647541"></ellipse>
                        <path d="M16.3106557,8.88893443 L16.1401639,9.54262295 C16.1401639,9.54262295 13.4221311,6.62786885 8.30532787,7.23278689 L8.53770492,6.55368852 C8.53770492,6.55368852 13.0643443,5.80245902 16.3106557,8.88893443 Z" id="Shape" fill="#FFFFFF"></path>
                        <polygon id="Shape" fill="#F7FBFE" points="13.6198443 6.76762295 13.6683443 6.92112295 13.8253443 6.92112295 13.6983443 7.01562295 13.7468443 7.16912295 13.6198443 7.07412295 13.4928443 7.16912295 13.5413443 7.01562295 13.4143443 6.92112295 13.5713443 6.92112295"></polygon>
                        <polygon id="Shape" fill="#F7FBFE" points="15.2218934 9.48483607 15.2703934 9.63833607 15.4273934 9.63833607 15.3003934 9.73283607 15.3493934 9.88583607 15.2218934 9.79133607 15.0948934 9.88583607 15.1438934 9.73283607 15.0163934 9.63833607 15.1733934 9.63833607"></polygon>
                        <polygon id="Shape" fill="#F7FBFE" points="12.4165656 9.86270492 12.4650656 10.0162049 12.6220656 10.0162049 12.4950656 10.1107049 12.5435656 10.2637049 12.4165656 10.1692049 12.2895656 10.2637049 12.3380656 10.1107049 12.2110656 10.0162049 12.3680656 10.0162049"></polygon>
                        <polygon id="Shape" fill="#F7FBFE" points="14.5221803 10.675 14.5631803 10.804 14.6956803 10.804 14.5886803 10.884 14.6291803 11.013 14.5221803 10.9335 14.4151803 11.013 14.4561803 10.884 14.3491803 10.804 14.4816803 10.804"></polygon>
                        <polygon id="Shape" fill="#F7FBFE" points="15.1000492 10.1155738 15.1410492 10.2445738 15.2735492 10.2445738 15.1665492 10.3245738 15.2070492 10.4535738 15.1000492 10.3740738 14.9930492 10.4535738 15.0340492 10.3245738 14.9270492 10.2445738 15.0595492 10.2445738"></polygon>
                        <polygon id="Shape" fill="#F7FBFE" points="15.2832459 9.88442623 15.3242459 10.0134262 15.4567459 10.0134262 15.3497459 10.0934262 15.3907459 10.2224262 15.2832459 10.1424262 15.1762459 10.2224262 15.2172459 10.0934262 15.1102459 10.0134262 15.2427459 10.0134262"></polygon>
                        <polygon id="Shape" fill="#F7FBFE" points="13.389582 7.93360656 13.423582 8.04110656 13.533582 8.04110656 13.444582 8.10760656 13.478582 8.21510656 13.389582 8.14860656 13.300082 8.21510656 13.334582 8.10760656 13.245082 8.04110656 13.355082 8.04110656"></polygon>
                        <polygon id="Shape" fill="#F7FBFE" points="12.3521557 8.66106557 12.3916557 8.78656557 12.5186557 8.78656557 12.4156557 8.86456557 12.4551557 8.99006557 12.3521557 8.91256557 12.2491557 8.99006557 12.2886557 8.86456557 12.1856557 8.78656557 12.3126557 8.78656557"></polygon>
                        <polygon id="Shape" fill="#F7FBFE" points="10.8902705 8.2045082 10.9292705 8.3305082 11.0562705 8.3305082 10.9537705 8.4080082 10.9932705 8.5340082 10.8902705 8.4560082 10.7872705 8.5340082 10.8262705 8.4080082 10.7237705 8.3305082 10.8507705 8.3305082"></polygon>
                        <polygon id="Shape" fill="#F7FBFE" points="9.4042623 8.9602459 9.4537623 9.1202459 9.6137623 9.1202459 9.4837623 9.2197459 9.5337623 9.3797459 9.4042623 9.2807459 9.2742623 9.3797459 9.3237623 9.2197459 9.1942623 9.1202459 9.3542623 9.1202459"></polygon>
                        <polygon id="Shape" fill="#F7FBFE" points="9.01810656 7.26680328 9.06760656 7.42680328 9.22760656 7.42680328 9.09810656 7.52580328 9.14760656 7.68630328 9.01810656 7.58730328 8.88860656 7.68630328 8.93810656 7.52580328 8.80860656 7.42680328 8.96860656 7.42680328"></polygon>
                        <polygon id="Shape" fill="#F7FBFE" points="10.8203934 10.2147541 10.8683934 10.3682541 11.0238934 10.3682541 10.8978934 10.4627541 10.9458934 10.6162541 10.8203934 10.5212541 10.6943934 10.6162541 10.7423934 10.4627541 10.6163934 10.3682541 10.7718934 10.3682541"></polygon>
                        <polygon id="Shape" fill="#F7FBFE" points="12.836582 9.09016393 12.876082 9.21566393 13.003082 9.21566393 12.900082 9.29366393 12.939582 9.41916393 12.836582 9.34166393 12.733582 9.41916393 12.773082 9.29366393 12.670082 9.21566393 12.797082 9.21566393"></polygon>
                        <polygon id="Shape" fill="#F7FBFE" points="13.6641721 10.8856557 13.6981721 10.9931557 13.8081721 10.9931557 13.7186721 11.0596557 13.7531721 11.1676557 13.6641721 11.1011557 13.5746721 11.1676557 13.6086721 11.0596557 13.5196721 10.9931557 13.6296721 10.9931557"></polygon>
                        <polygon id="Shape" fill="#F7FBFE" points="13.9104836 10.3258197 13.9444836 10.4333197 14.0544836 10.4333197 13.9654836 10.4998197 13.9994836 10.6073197 13.9104836 10.5408197 13.8214836 10.6073197 13.8554836 10.4998197 13.7659836 10.4333197 13.8764836 10.4333197"></polygon>
                        <polygon id="Shape" fill="#F7FBFE" points="11.9858934 9.07377049 12.0198934 9.18127049 12.1303934 9.18127049 12.0408934 9.24777049 12.0753934 9.35527049 11.9858934 9.28877049 11.8968934 9.35527049 11.9308934 9.24777049 11.8413934 9.18127049 11.9518934 9.18127049"></polygon>
                        <polygon id="Shape" fill="#F7FBFE" points="9.77605738 8.77336066 9.80455738 8.86486066 9.89605738 8.86486066 9.82205738 8.92136066 9.85005738 9.01286066 9.77605738 8.95636066 9.70255738 9.01286066 9.73055738 8.92136066 9.65655738 8.86486066 9.74805738 8.86486066"></polygon>
                        <polygon id="Shape" fill="#F7FBFE" points="14.5158115 10.3258197 14.5498115 10.4333197 14.6598115 10.4333197 14.5708115 10.4998197 14.6048115 10.6073197 14.5158115 10.5408197 14.4268115 10.6073197 14.4608115 10.4998197 14.3713115 10.4333197 14.4818115 10.4333197"></polygon>
                        <polygon id="Shape" fill="#F7FBFE" points="14.5127951 11.0168033 14.5422951 11.1108033 14.6382951 11.1108033 14.5602951 11.1683033 14.5902951 11.2623033 14.5127951 11.2043033 14.4352951 11.2623033 14.4647951 11.1683033 14.3872951 11.1108033 14.4827951 11.1108033"></polygon>
                        <polygon id="Shape" fill="#F7FBFE" points="10.214459 9.35122951 10.252959 9.47522951 10.376959 9.47522951 10.276459 9.55222951 10.314959 9.67622951 10.214459 9.59972951 10.114459 9.67622951 10.152459 9.55222951 10.052459 9.47522951 10.175959 9.47522951"></polygon>
                        <polygon id="Shape" fill="#F7FBFE" points="8.8824918 9.35122951 8.9209918 9.47522951 9.0449918 9.47522951 8.9444918 9.55222951 8.9829918 9.67622951 8.8824918 9.59972951 8.7824918 9.67622951 8.8204918 9.55222951 8.7204918 9.47522951 8.8439918 9.47522951"></polygon>
                        <polygon id="Shape" fill="#F7FBFE" points="12.2697623 9.40040984 12.2992623 9.49390984 12.3947623 9.49390984 12.3172623 9.55190984 12.3472623 9.64540984 12.2697623 9.58790984 12.1917623 9.64540984 12.2217623 9.55190984 12.1442623 9.49390984 12.2397623 9.49390984"></polygon>
                        <polygon id="Shape" fill="#F7FBFE" points="10.1000902 9.88647541 10.1295902 9.98047541 10.2255902 9.98047541 10.1475902 10.0379754 10.1775902 10.1314754 10.1000902 10.0739754 10.0225902 10.1314754 10.0520902 10.0379754 9.97459016 9.98047541 10.0700902 9.98047541"></polygon>
                        <polygon id="Shape" fill="#F7FBFE" points="15.7476311 9.56270492 15.7776311 9.65670492 15.8731311 9.65670492 15.7956311 9.71420492 15.8251311 9.80820492 15.7476311 9.75020492 15.6701311 9.80820492 15.6996311 9.71420492 15.6221311 9.65670492 15.7181311 9.65670492"></polygon>
                        <polygon id="Shape" fill="#F7FBFE" points="14.8181803 10.3258197 14.8526803 10.4333197 14.9626803 10.4333197 14.8731803 10.4998197 14.9076803 10.6073197 14.8181803 10.5408197 14.7291803 10.6073197 14.7631803 10.4998197 14.6741803 10.4333197 14.7841803 10.4333197"></polygon>
                        <polygon id="Shape" fill="#F7FBFE" points="13.3207295 10.3012295 13.3547295 10.4087295 13.4647295 10.4087295 13.3757295 10.4757295 13.4097295 10.5832295 13.3207295 10.5167295 13.2317295 10.5832295 13.2657295 10.4757295 13.1762295 10.4087295 13.2867295 10.4087295"></polygon>
                        <polygon id="Shape" fill="#F7FBFE" points="12.3703689 11.1852459 12.3858689 11.2362459 12.4373689 11.2362459 12.3958689 11.2682459 12.4118689 11.3197459 12.3703689 11.2877459 12.3283689 11.3197459 12.3443689 11.2682459 12.3028689 11.2362459 12.3543689 11.2362459"></polygon>
                        <g transform="translate(8.606557, 6.557377)" fill="#58B55C" id="Shape">
                            <path d="M0.289179842,0.136300432 C0.174179842,0.149800432 0.093179842,0.263800432 0.107679842,0.391300432 C0.122679842,0.518800432 0.227679842,0.611800432 0.342679842,0.598300432 C0.457679842,0.584800432 0.538679842,0.470800432 0.524179842,0.343300432 C0.509179842,0.215800432 0.404179842,0.122800432 0.289179842,0.136300432 Z M0.315179842,0.509300432 C0.157179842,0.508300432 0.159179842,0.224800432 0.317179842,0.225800432 C0.475179842,0.226800432 0.473179842,0.510300432 0.315179842,0.509300432 Z"></path>
                            <polygon points="1.66759836 0.335860656 1.93309836 0.346860656 1.93659836 0.267360656 1.67059836 0.255860656 1.67459836 0.162860656 1.99359836 0.176360656 1.99709836 0.0898606557 1.59859836 0.0733606557 1.57909836 0.538360656 1.99759836 0.555860656 2.00109836 0.469360656 1.66209836 0.455360656"></polygon>
                            <polygon points="2.28520492 0.434591387 2.22220492 0.109715765 2.10670492 0.0987704918 2.06270492 0.559467009 2.14220492 0.566929696 2.17220492 0.251009298 2.23470492 0.57588492 2.30770492 0.582850094 2.43020492 0.275387407 2.40020492 0.591307805 2.47970492 0.598770492 2.52370492 0.138073974 2.40770492 0.127128701"></polygon>
                            <polygon points="2.85245902 0.647245902 3.19595902 0.708745902 3.20995902 0.630245902 2.94495902 0.582745902 2.96395902 0.478245902 3.17945902 0.516745902 3.19395902 0.438245902 2.97795902 0.399745902 2.99045902 0.327745902 3.24745902 0.373745902 3.26145902 0.295245902 2.92595902 0.235245902"></polygon>
                            <polygon points="6.2881804 1.49262295 6.32540984 1.43114754 6.02627564 1.26803279 5.82540984 1.59877049 6.13969555 1.77008197 6.17692499 1.70860656 5.92237953 1.57008197 5.97389468 1.48483607 6.17346178 1.59344262 6.20809382 1.53688525 6.00852672 1.42827869 6.04878646 1.36229508"></polygon>
                            <path d="M6.67796459,1.63731552 C6.62746459,1.60481552 6.49446459,1.51081552 6.41546459,1.62981552 C6.32396459,1.76831552 6.61746459,1.88681552 6.56596459,1.96631552 C6.54946459,1.99131552 6.51146459,1.99231552 6.45546459,1.95631552 C6.39946459,1.92031552 6.37446459,1.87631552 6.39996459,1.83731552 L6.31196459,1.78031552 C6.24846459,1.87781552 6.34396459,1.97531552 6.40846459,2.01681552 C6.48396459,2.06531552 6.59696459,2.11081552 6.66296459,2.00931552 C6.75246459,1.87131552 6.46496459,1.74631552 6.50846459,1.68181552 C6.53446459,1.64131552 6.56996459,1.65431552 6.61296459,1.68231552 C6.65746459,1.71131552 6.68696459,1.75181552 6.65946459,1.79381552 L6.74446459,1.84881552 C6.80896459,1.75331552 6.72846459,1.66981552 6.67796459,1.63731552 Z"></path>
                            <path d="M7.09545004,1.92404753 C7.04695004,1.88906571 6.91895004,1.78811819 6.83395004,1.90305844 C6.73495004,2.03648908 7.02195004,2.17041945 6.96645004,2.24687971 C6.94895004,2.27086724 6.91045004,2.26986776 6.85695004,2.23088802 C6.80295004,2.19190828 6.78045004,2.14693166 6.80745004,2.10895141 L6.72245004,2.04748336 C6.65395004,2.14143452 6.74445004,2.24388127 6.80645004,2.28835815 C6.87895004,2.34083087 6.98995004,2.39230411 7.06095004,2.29385529 C7.15745004,2.16042465 6.87695004,2.02099713 6.92395004,1.95902934 C6.95245004,1.92004961 6.98695004,1.93454207 7.02845004,1.96502623 C7.07145004,1.99601012 7.09845004,2.03848804 7.06945004,2.07846726 L7.15145004,2.13793634 C7.21995004,2.04698362 7.14395004,1.95902934 7.09545004,1.92404753 Z"></path>
                            <path d="M7.45701306,2.2007024 C7.35451306,2.1467024 7.22301306,2.1952024 7.16351306,2.3087024 C7.10351306,2.4222024 7.13801306,2.5582024 7.24051306,2.6122024 C7.34301306,2.6662024 7.47451306,2.6177024 7.53401306,2.5042024 C7.59401306,2.3902024 7.55951306,2.2542024 7.45701306,2.2007024 Z M7.26751306,2.5227024 C7.13751306,2.4327024 7.29951306,2.1997024 7.42951306,2.2897024 C7.55951306,2.3802024 7.39751306,2.6132024 7.26751306,2.5227024 Z"></path>
                            <path d="M1.47748361,0.16045082 C1.42698361,0.0774508197 1.32348361,0.0729508197 1.32348361,0.0729508197 L1.09098361,0.0749508197 L1.09598361,0.54045082 C1.09598361,0.54045082 1.28048361,0.54195082 1.32948361,0.53745082 C1.37848361,0.53295082 1.43648361,0.50545082 1.47448361,0.45595082 C1.51248361,0.40695082 1.51248361,0.34795082 1.51248361,0.31195082 C1.51198361,0.27595082 1.51798361,0.22695082 1.47748361,0.16045082 Z M1.38898361,0.42095082 C1.34098361,0.45295082 1.31648361,0.45295082 1.28598361,0.45295082 C1.25048361,0.45245082 1.18148361,0.45295082 1.18148361,0.45295082 C1.18148361,0.45295082 1.17898361,0.21795082 1.17848361,0.16045082 C1.27498361,0.15995082 1.27798361,0.15995082 1.31548361,0.15995082 C1.38448361,0.16145082 1.41348361,0.21345082 1.42748361,0.24695082 C1.43248361,0.28395082 1.43248361,0.29895082 1.43348361,0.33145082 C1.42848361,0.36545082 1.41798361,0.39395082 1.38898361,0.42095082 Z"></path>
                            <path d="M0.950032787,0.354123676 C0.950032787,0.354123676 0.999032787,0.313123676 1.01203279,0.254623676 C1.02503279,0.195623676 0.989032787,0.147623676 0.973532787,0.133623676 C0.958032787,0.119623676 0.926032787,0.0866236762 0.878032787,0.0881236762 C0.830032787,0.0896236762 0.593032787,0.104623676 0.593032787,0.104623676 L0.615532787,0.569623676 L0.701532787,0.564123676 L0.690532787,0.391623676 L0.840032787,0.382123676 L0.876032787,0.379623676 C0.876032787,0.379623676 0.922032787,0.455623676 0.926032787,0.502623676 C0.929032787,0.530123676 0.928032787,0.553623676 0.928032787,0.553623676 L1.01203279,0.554123676 C1.01203279,0.554123676 1.01453279,0.471623676 0.991032787,0.421623676 C0.968032787,0.372123676 0.950032787,0.354123676 0.950032787,0.354123676 Z M0.898032787,0.281623676 C0.879532787,0.296623676 0.829032787,0.297123676 0.829032787,0.297123676 L0.685032787,0.305623676 C0.685032787,0.305623676 0.680032787,0.224623676 0.677532787,0.186123676 C0.699532787,0.186623676 0.814032787,0.177623676 0.816032787,0.177623676 C0.839032787,0.177123676 0.865032787,0.175123676 0.865032787,0.175123676 C0.865032787,0.175123676 0.884032787,0.175623676 0.902532787,0.192123676 C0.906032787,0.194623676 0.922032787,0.208623676 0.921032787,0.232123676 C0.920032787,0.255623676 0.906532787,0.277123676 0.898032787,0.281623676 Z"></path>
                            <path d="M4.81148145,0.701173092 C4.69698145,0.684673092 4.58948145,0.774173092 4.57098145,0.901173092 C4.55248145,1.02817309 4.63048145,1.14467309 4.74498145,1.16167309 C4.85948145,1.17817309 4.96698145,1.08867309 4.98548145,0.961673092 C5.00398145,0.834173092 4.92598145,0.717673092 4.81148145,0.701173092 Z M4.74048145,1.06817309 C4.58798145,1.02667309 4.66248145,0.753173092 4.81498145,0.794673092 C4.96798145,0.836173092 4.89348145,1.10967309 4.74048145,1.06817309 Z"></path>
                            <path d="M4.45140164,0.542310834 C4.40540164,0.529410478 4.17640164,0.473360656 4.17640164,0.473360656 L4.04590164,0.870602649 L4.12940164,0.891065282 L4.17540164,0.742933609 L4.31990164,0.778520798 L4.35490164,0.786972755 C4.35490164,0.786972755 4.37340164,0.864374891 4.36190164,0.904855318 C4.35540164,0.92887667 4.34740164,0.948449624 4.34740164,0.948449624 L4.42640164,0.973360656 C4.42640164,0.973360656 4.45590164,0.904410478 4.44990164,0.855922933 C4.44390164,0.807435389 4.43290164,0.786972755 4.43290164,0.786972755 C4.43290164,0.786972755 4.49240164,0.766954962 4.52390164,0.721136456 C4.55540164,0.675317951 4.53690164,0.624161367 4.52690164,0.608147133 C4.51690164,0.592132898 4.49740164,0.55476635 4.45140164,0.542310834 Z M4.44540164,0.675762791 C4.43690164,0.695335745 4.41690164,0.70957062 4.40790164,0.71090514 C4.38590164,0.718022577 4.33740164,0.703787702 4.33740164,0.703787702 L4.19840164,0.669090193 C4.19840164,0.669090193 4.21990164,0.599250335 4.23040164,0.566332186 C4.25090164,0.573004784 4.36190164,0.598805496 4.36390164,0.599250335 C4.38590164,0.605478093 4.41090164,0.611261012 4.41090164,0.611261012 C4.41090164,0.611261012 4.42840164,0.61748877 4.44090164,0.636616883 C4.44340164,0.639730762 4.45390164,0.656189837 4.44540164,0.675762791 Z"></path>
                            <path d="M5.91230061,1.18279464 C5.90403515,1.16644353 5.88847664,1.12943836 5.84520453,1.11394783 C5.80193242,1.0984573 5.58508568,1.02745902 5.58508568,1.02745902 L5.42172131,1.40095299 L5.50048627,1.42677055 L5.55883069,1.28735575 L5.69545386,1.33210618 L5.7285157,1.34286349 C5.7285157,1.34286349 5.73921217,1.41859499 5.72413987,1.45689103 C5.71587441,1.47969654 5.70615034,1.49776883 5.70615034,1.49776883 L5.78053947,1.52745902 C5.78053947,1.52745902 5.81554612,1.46334542 5.81457371,1.41601323 C5.8131151,1.36868105 5.80436344,1.3484573 5.80436344,1.3484573 C5.80436344,1.3484573 5.86416646,1.33339705 5.89868691,1.29165867 C5.93369356,1.24992029 5.92056606,1.19914576 5.91230061,1.18279464 Z M5.827215,1.24217502 C5.81700473,1.26067761 5.79658418,1.27229551 5.78734632,1.27315609 C5.76498096,1.27874989 5.71976403,1.2611079 5.71976403,1.2611079 L5.5884891,1.21764835 C5.5884891,1.21764835 5.6162027,1.15181358 5.62884399,1.1212628 C5.64829213,1.12900807 5.75331207,1.1621406 5.75525689,1.16300119 C5.77616364,1.17074645 5.79998761,1.17806143 5.79998761,1.17806143 C5.79998761,1.17806143 5.81651852,1.1853764 5.82624259,1.20473957 C5.82867361,1.20732132 5.83693907,1.22367244 5.827215,1.24217502 Z"></path>
                            <path d="M3.9760082,0.41895082 C3.9300082,0.40595082 3.6995082,0.34795082 3.6995082,0.34795082 L3.5795082,0.79745082 L3.6635082,0.81845082 L3.7055082,0.65095082 L3.8510082,0.68745082 L3.8860082,0.69645082 L3.9640082,0.69445082 C3.9640082,0.69445082 4.0230082,0.67045082 4.0530082,0.61845082 C4.0830082,0.56645082 4.0635082,0.50945082 4.0530082,0.49145082 C4.0430082,0.47295082 4.0225082,0.43195082 3.9760082,0.41895082 Z M3.9735082,0.56895082 C3.9655082,0.59145082 3.9460082,0.60745082 3.9370082,0.60945082 C3.9150082,0.61795082 3.8665082,0.60295082 3.8665082,0.60295082 L3.7270082,0.56745082 C3.7270082,0.56745082 3.7470082,0.48845082 3.7560082,0.45145082 C3.7765082,0.45845082 3.8885082,0.48495082 3.8905082,0.48545082 C3.9125082,0.49195082 3.9380082,0.49795082 3.9380082,0.49795082 C3.9380082,0.49795082 3.9555082,0.50445082 3.9685082,0.52595082 C3.9710082,0.52845082 3.9815082,0.54645082 3.9735082,0.56895082 Z"></path>
                            <path d="M5.3381606,0.906205411 C5.2356606,0.854784374 5.1041606,0.900968083 5.0446606,1.00904749 C4.9846606,1.11712689 5.0191606,1.24663172 5.1216606,1.29805276 C5.1741606,1.3242394 5.2341606,1.32471552 5.2881606,1.30471845 L5.2626606,1.35947233 L5.3236606,1.38518285 L5.3911606,1.24044215 L5.4026606,1.21616 C5.4071606,1.20949431 5.4116606,1.20235249 5.4161606,1.19473456 C5.4186606,1.19044948 5.4206606,1.18616439 5.4226606,1.1818793 C5.4071606,1.17521361 5.3916606,1.16854792 5.3761606,1.16188223 C5.3641606,1.15664491 5.3516606,1.15331206 5.3391606,1.1495031 L5.2576606,1.1152224 L5.2306606,1.17330913 L5.2961606,1.20092413 C5.2551606,1.23425258 5.2006606,1.24710784 5.1501606,1.21377939 C5.0201606,1.12807766 5.1821606,0.906205411 5.3121606,0.991907139 C5.3436606,1.01285645 5.3576606,1.04142369 5.3596606,1.07189542 C5.3791606,1.07998947 5.4006606,1.08379844 5.4201606,1.09284473 C5.4286606,1.0966537 5.4366606,1.10046266 5.4451606,1.10427163 C5.4506606,1.02190274 5.4126606,0.943342827 5.3381606,0.906205411 Z"></path>
                        </g>
                    </g>
                    <g id="Group" opacity="0.1" fill="#000000">
                        <path d="M23.3889344,0.41147541 C23.8409836,0.41147541 24.2086066,0.779098361 24.2086066,1.23114754 L24.2086066,15.1655738 C24.2086066,15.617623 23.8409836,15.9852459 23.3889344,15.9852459 L1.25778689,15.9852459 C0.805737705,15.9852459 0.438114754,15.617623 0.438114754,15.1655738 L0.438114754,1.23114754 C0.438114754,0.779098361 0.805737705,0.41147541 1.25778689,0.41147541 L23.3889344,0.41147541 Z M23.3889344,0.00163934426 L1.25778689,0.00163934426 C0.578688525,0.00163934426 0.0282786885,0.55204918 0.0282786885,1.23114754 L0.0282786885,15.1655738 C0.0282786885,15.8446721 0.578688525,16.395082 1.25778689,16.395082 L23.3889344,16.395082 C24.0680328,16.395082 24.6184426,15.8446721 24.6184426,15.1655738 L24.6184426,1.23114754 C24.6184426,0.55204918 24.0680328,0.00163934426 23.3889344,0.00163934426 Z" id="Shape"></path>
                    </g>
                </g>
            </g>
        </g>
    </g>
</svg>