
<svg width="25px" height="17px" viewBox="0 0 25 17" version="1.1" xmlns="http://www.w3.org/2000/svg" xmlns:xlink="http://www.w3.org/1999/xlink">
    <!-- Generator: Sketch 50.2 (55047) - http://www.bohemiancoding.com/sketch -->
    <desc>Created with Sketch.</desc>
    <defs></defs>
    <g id="Dashboard_light_10x-fonts" stroke="none" stroke-width="1" fill="none" fill-rule="evenodd">
        <g id="EMP100---APAC-Overview-Dashboard-Copy" transform="translate(-224.000000, -274.000000)" fill-rule="nonzero">
            <g id="china" transform="translate(224.000000, 274.000000)">
                <g id="Group">
                    <rect id="Rectangle-path" fill="#F04F4D" x="0" y="0" width="24.5901639" height="16.3934426"></rect>
                    <g transform="translate(0.819672, 0.819672)" fill="#FDE345" id="Shape">
                        <polygon points="2.34918033 4.16967213 3.78032787 5.25942623 3.24385246 3.55163934 4.64221311 2.46229508 2.88606557 2.46229508 2.34918033 0.786885246 1.81270492 2.46229508 0.056147541 2.46229508 1.45491803 3.55163934 0.918032787 5.25942623"></polygon>
                        <polygon points="8.20409836 5.2057377 8.675 5.56393443 8.49836066 5.00245902 8.95860656 4.64385246 8.3807377 4.64385246 8.20409836 4.09262295 8.02745902 4.64385246 7.44959016 4.64385246 7.90983607 5.00245902 7.73319672 5.56393443"></polygon>
                        <polygon points="6.39713115 6.86803279 6.70368852 7.37418033 6.7454918 6.78688525 7.30491803 6.62254098 6.76762295 6.41065574 6.80532787 5.83278689 6.43893443 6.2807377 5.90163934 6.06885246 6.19795082 6.57131148 5.82745902 7.02868852"></polygon>
                        <polygon points="8.37704918 2.67254098 8.9602459 2.77254098 8.54385246 2.35614754 8.78647541 1.82581967 8.27377049 2.09303279 7.86229508 1.68565574 7.96065574 2.25614754 7.44836066 2.52336066 8.02213115 2.62827869 8.12540984 3.20778689"></polygon>
                        <polygon points="6.7795082 0.940163934 7.35942623 0.82295082 6.82090164 0.584836066 6.85532787 0.00286885246 6.47418033 0.436885246 5.94344262 0.205737705 6.24098361 0.702459016 5.85983607 1.13647541 6.43278689 1.02704918 6.73811475 1.53032787"></polygon>
                    </g>
                </g>
                <g id="Group" opacity="0.1" fill="#000000">
                    <path d="M23.3827869,0.413934426 C23.8348361,0.413934426 24.202459,0.781557377 24.202459,1.23360656 L24.202459,15.1680328 C24.202459,15.620082 23.8348361,15.9877049 23.3827869,15.9877049 L1.25163934,15.9877049 C0.799590164,15.9877049 0.431967213,15.620082 0.431967213,15.1680328 L0.431967213,1.23360656 C0.431967213,0.781557377 0.799590164,0.413934426 1.25163934,0.413934426 L23.3827869,0.413934426 Z M23.3827869,0.00409836066 L1.25163934,0.00409836066 C0.572540984,0.00409836066 0.0221311475,0.554508197 0.0221311475,1.23360656 L0.0221311475,15.1680328 C0.0221311475,15.8471311 0.572540984,16.397541 1.25163934,16.397541 L23.3827869,16.397541 C24.0618852,16.397541 24.6122951,15.8471311 24.6122951,15.1680328 L24.6122951,1.23360656 C24.6122951,0.554508197 24.0618852,0.00409836066 23.3827869,0.00409836066 Z" id="Shape"></path>
                </g>
            </g>
        </g>
    </g>
</svg>