
<svg width="25px" height="17px" viewBox="0 0 25 17" version="1.1" xmlns="http://www.w3.org/2000/svg" xmlns:xlink="http://www.w3.org/1999/xlink">
    <!-- Generator: Sketch 50.2 (55047) - http://www.bohemiancoding.com/sketch -->
    <desc>Created with Sketch.</desc>
    <defs></defs>
    <g id="Dashboard_light_10x-fonts" stroke="none" stroke-width="1" fill="none" fill-rule="evenodd">
        <g id="EMP100---AMER-Overview-Dashboard" transform="translate(-221.000000, -249.000000)" fill-rule="nonzero">
            <g id="Group-2" transform="translate(221.000000, 207.000000)">
                <g id="canada" transform="translate(0.000000, 42.000000)">
                    <g id="Group">
                        <g fill="#F04F4D" id="Rectangle-path">
                            <rect x="18.442623" y="0" width="6.14754098" height="16.3934426"></rect>
                            <rect x="0" y="0" width="6.14754098" height="16.3934426"></rect>
                        </g>
                        <rect id="Rectangle-path" fill="#FFFFFF" x="6.14754098" y="0" width="12.295082" height="16.3934426"></rect>
                        <path d="M12.295082,3.20204918 L11.4561475,4.76680328 C11.3610656,4.93688525 11.1905738,4.92090164 11.020082,4.82622951 L10.4127049,4.51188525 L10.8651639,6.91516393 C10.9602459,7.35409836 10.654918,7.35409836 10.5040984,7.16434426 L9.4442623,5.97786885 L9.27213115,6.58032787 C9.25245902,6.65942623 9.16516393,6.74262295 9.03401639,6.72295082 L7.69385246,6.44098361 L8.04590164,7.72090164 C8.12131148,8.0057377 8.17991803,8.12377049 7.96967213,8.19877049 L7.49221311,8.42336066 L9.79918033,10.297541 C9.89057377,10.3684426 9.93647541,10.4959016 9.90409836,10.6114754 L9.70204918,11.2741803 C10.4963115,11.1827869 11.2081967,11.045082 12.0028689,10.9602459 C12.0729508,10.9528689 12.1905738,11.0684426 12.1901639,11.15 L12.0848361,13.577459 L12.4709016,13.577459 L12.4102459,11.154918 C12.4098361,11.0737705 12.5163934,10.952459 12.5864754,10.9602459 C13.3811475,11.045082 14.0930328,11.1827869 14.8872951,11.2741803 L14.6852459,10.6114754 C14.6528689,10.4959016 14.6987705,10.3684426 14.7901639,10.297541 L17.0971311,8.42336066 L16.6192623,8.19877049 C16.4090164,8.12377049 16.467623,8.0057377 16.5430328,7.72090164 L16.895082,6.44098361 L15.554918,6.72295082 C15.4241803,6.74262295 15.3368852,6.65942623 15.3168033,6.58032787 L15.1446721,5.97786885 L14.0848361,7.16434426 C13.9340164,7.35409836 13.6286885,7.35409836 13.7237705,6.91516393 L14.1762295,4.51188525 L13.5688525,4.82622951 C13.3983607,4.92131148 13.2278689,4.93688525 13.1327869,4.76680328" id="Shape" fill="#F04F4D"></path>
                    </g>
                    <g id="Group" opacity="0.1" fill="#000000">
                        <path d="M23.3680328,0.413934426 C23.820082,0.413934426 24.1877049,0.781557377 24.1877049,1.23360656 L24.1877049,15.1680328 C24.1877049,15.620082 23.820082,15.9877049 23.3680328,15.9877049 L1.23688525,15.9877049 C0.784836066,15.9877049 0.417213115,15.620082 0.417213115,15.1680328 L0.417213115,1.23360656 C0.417213115,0.781557377 0.784836066,0.413934426 1.23688525,0.413934426 L23.3680328,0.413934426 Z M23.3680328,0.00409836066 L1.23688525,0.00409836066 C0.557786885,0.00409836066 0.00737704918,0.554508197 0.00737704918,1.23360656 L0.00737704918,15.1680328 C0.00737704918,15.8471311 0.557786885,16.397541 1.23688525,16.397541 L23.3680328,16.397541 C24.0471311,16.397541 24.597541,15.8471311 24.597541,15.1680328 L24.597541,1.23360656 C24.597541,0.554508197 24.0471311,0.00409836066 23.3680328,0.00409836066 Z" id="Shape"></path>
                    </g>
                </g>
            </g>
        </g>
    </g>
</svg>