
<svg width="16px" height="16px" viewBox="0 0 16 16" version="1.1" xmlns="http://www.w3.org/2000/svg" xmlns:xlink="http://www.w3.org/1999/xlink">
    <!-- Generator: Sketch 50.2 (55047) - http://www.bohemiancoding.com/sketch -->
    <desc>Created with Sketch.</desc>
    <defs></defs>
    <g id="Dashboard_light_10x-fonts" stroke="none" stroke-width="1" fill-rule="evenodd">
        <g id="EMP100---APAC-Overview-Dashboard-Copy" transform="translate(-28.000000, -466.000000)">
            <g id="Member-profile" transform="translate(27.000000, 435.000000)">
                <g id="investing" transform="translate(1.000000, 31.000000)">
                    <path d="M8.02813793,14.0689655 C8.02813793,13.8480607 8.19408552,13.6551724 8.41390345,13.6271448 C8.63480828,13.5991283 8.82769655,13.7930924 8.85572414,14.0129103 C8.88374069,14.2338152 8.68977655,14.4267034 8.46995862,14.454731 L8.44194207,14.454731 C8.22103724,14.454731 8.02814897,14.2898593 8.02814897,14.0689655 L8.02813793,14.0689655 Z M6.70377931,14.3448276 C6.48287448,14.2898703 6.34493793,14.0689655 6.37296552,13.8480552 C6.42792276,13.6271503 6.64882759,13.4892138 6.86973793,13.5172414 C7.09064276,13.5721986 7.22857931,13.7931034 7.20055172,14.0140138 C7.17253517,14.2069021 6.9796469,14.3448276 6.78675862,14.3448276 C6.75874207,14.3728441 6.73072552,14.3448276 6.70378483,14.3448276 L6.70377931,14.3448276 Z M9.65522759,13.8480552 C9.57225379,13.6271503 9.68324414,13.4062345 9.9030731,13.3243586 C10.1239779,13.2413848 10.3448938,13.3523752 10.4267697,13.5722041 C10.5097434,13.793109 10.3987531,14.0140248 10.1789241,14.0959007 C10.1239669,14.1239172 10.0959503,14.1239172 10.0409931,14.1239172 C9.87612138,14.1239172 9.71017931,14.0140028 9.65522759,13.8480552 Z M5.0486069,13.7650814 C4.85571862,13.6551669 4.77274483,13.40624 4.88265931,13.2133572 C4.99257379,13.020469 5.24150069,12.9374952 5.43438345,13.0474097 C5.62726621,13.1573241 5.71024552,13.406251 5.60033103,13.5991338 C5.51735724,13.7370648 5.37942621,13.8200386 5.24148966,13.8200386 C5.15851586,13.8211172 5.10355862,13.7930979 5.04860138,13.7650814 L5.0486069,13.7650814 Z M11.172469,13.1864055 C11.0345379,12.9935172 11.0894952,12.7445848 11.2554428,12.6066538 C11.448331,12.4687228 11.6972634,12.52368 11.8351945,12.6896276 C11.9731255,12.8825159 11.9181683,13.1314483 11.72528,13.2693793 C11.6423062,13.3243366 11.5593324,13.3523531 11.4774345,13.3523531 C11.3933821,13.3512745 11.255451,13.29632 11.172469,13.1864055 Z M3.58626207,12.7445848 C3.42031448,12.5786372 3.42031448,12.3307917 3.55824552,12.1648331 C3.7241931,11.9988855 3.97203862,11.9988855 4.13799724,12.1368166 C4.30394483,12.3027641 4.30394483,12.5506097 4.16601379,12.7165683 C4.08304,12.7995421 3.97312552,12.8544993 3.86212414,12.8544993 C3.77915034,12.8555779 3.66923586,12.8275586 3.58626207,12.7445848 Z M12.4687448,12.137909 C12.2758566,11.9999779 12.24784,11.7241159 12.4137876,11.5581572 C12.5517186,11.3922097 12.8275807,11.3372524 12.9935393,11.5032 C13.1594869,11.641131 13.1864276,11.9169931 13.0484966,12.0829517 C12.9655228,12.1928662 12.8556083,12.2208828 12.7176828,12.2208828 C12.634709,12.2208828 12.5237186,12.1928662 12.4687614,12.137909 L12.4687448,12.137909 Z M2.48281379,11.3933021 C2.37289931,11.2004138 2.42785655,10.9514814 2.62074483,10.8135503 C2.8136331,10.7036359 3.06256552,10.7585931 3.20049655,10.9514814 C3.31041103,11.1443697 3.25545379,11.3933021 3.06256552,11.5312331 C3.00760828,11.5592497 2.92463448,11.5861903 2.84166069,11.5861903 C2.6757131,11.5861903 2.53777103,11.5312331 2.48281931,11.3933021 L2.48281379,11.3933021 Z M13.4075034,10.7866262 C13.1865986,10.7036524 13.1036138,10.4558124 13.1865986,10.2349021 C13.2695724,10.0139972 13.5174124,9.93101241 13.7383228,10.0139972 C13.9592331,10.0969821 14.0422124,10.344811 13.9592276,10.5657214 C13.9042703,10.731669 13.7383228,10.8135669 13.5734621,10.8135669 C13.517429,10.8135669 13.4624717,10.8135669 13.4075145,10.7866262 L13.4075034,10.7866262 Z M1.76529655,9.76508138 C1.71033931,9.54417655 1.82025379,9.32326069 2.04115862,9.26830897 C2.26206345,9.21335172 2.48297931,9.32326621 2.56485517,9.54417103 C2.61981241,9.76507586 2.50989793,9.98599172 2.2889931,10.0678676 C2.26097655,10.0678676 2.20601931,10.0958841 2.17907862,10.0958841 C1.98619034,10.0689434 1.8213131,9.95903172 1.76528552,9.76507034 L1.76529655,9.76508138 Z M13.9592276,9.21335724 C13.7383228,9.18534069 13.5734621,8.96551172 13.6003862,8.74461241 C13.6284028,8.52370759 13.8482317,8.3588469 14.069131,8.38577103 C14.2900359,8.41378759 14.4548966,8.63361655 14.4279724,8.85451586 C14.3999559,9.07542069 14.2070676,9.21335724 14.0141793,9.21335724 C13.9861628,9.24137379 13.9861628,9.21335724 13.9592221,9.21335724 L13.9592276,9.21335724 Z M1.51729655,8.02800552 C1.51729655,7.78016 1.71018483,7.58618483 1.93108966,7.58618483 C2.15199448,7.58618483 2.34488276,7.7790731 2.34488276,7.99997793 C2.34488276,8.22088276 2.15199448,8.41377103 1.93108966,8.41377103 C1.71018483,8.44178759 1.51729655,8.24782345 1.51729655,8.02800552 Z M13.600331,7.22737103 C13.5723145,7.00646621 13.7382621,6.78555034 13.9591724,6.75862621 C14.1800772,6.73060966 14.4009931,6.89655724 14.4279172,7.11746759 C14.4559338,7.33837241 14.2899862,7.55928828 14.0690759,7.58621241 L14.0141186,7.58621241 C13.7932138,7.58621241 13.6272772,7.42026483 13.6003255,7.22737103 L13.600331,7.22737103 Z M2.04115862,6.75862621 C1.82025379,6.70366897 1.68231724,6.48276414 1.76529655,6.23492966 C1.82025379,6.01402483 2.04115862,5.87608828 2.26206897,5.95906759 C2.48297379,6.01402483 2.62091034,6.26295724 2.53793103,6.48276414 C2.48297379,6.67565241 2.31702621,6.78665379 2.15216552,6.78665379 C2.12414897,6.78665379 2.06919172,6.75863724 2.04117517,6.75863724 L2.04115862,6.75862621 Z M13.1865379,5.73815724 C13.1035641,5.51725241 13.1865379,5.29633655 13.4074428,5.1864331 C13.6283476,5.10345931 13.8761876,5.1864331 13.9591669,5.40733793 C14.0421407,5.62824276 13.9591669,5.84915862 13.7382621,5.95906207 C13.6833048,5.98707862 13.6283476,5.98707862 13.5723145,5.98707862 C13.4074428,5.986 13.2415007,5.90302621 13.186549,5.73815724 L13.1865379,5.73815724 Z M2.59288276,5.1864331 C2.39999448,5.07651862 2.34503724,4.82759172 2.45495172,4.60668138 C2.56486621,4.4137931 2.84071724,4.35883586 3.03470345,4.46875034 C3.22759172,4.57866483 3.28254897,4.85451586 3.17263448,5.04850207 C3.08966069,5.1864331 2.95172966,5.24139034 2.8137931,5.24139034 C2.73081931,5.2694069 2.67586207,5.24139034 2.59288828,5.1864331 L2.59288276,5.1864331 Z M12.3859862,4.41379862 C12.2480552,4.24785103 12.2760717,3.97197793 12.4409434,3.8340469 C12.606891,3.69611586 12.8827641,3.72413241 13.0206952,3.88900414 C13.1586262,4.05495172 13.1306097,4.33082483 12.9657379,4.46875586 C12.8827641,4.5237131 12.7997903,4.55172966 12.6898759,4.55172966 C12.5799614,4.57974621 12.468971,4.5237131 12.3859862,4.41379862 Z M3.5584,3.8340469 C3.39245241,3.66809931 3.42046897,3.42025379 3.58641655,3.25429517 C3.75236414,3.08833655 4.02823724,3.11636414 4.16616828,3.28231172 C4.33211586,3.44825931 4.30409931,3.72413241 4.13815172,3.86206345 C4.05517793,3.94503724 3.94526345,3.97197793 3.86228966,3.97197793 C3.75237517,3.97197793 3.64138483,3.94503724 3.5584,3.8340469 Z M11.2555034,3.36530207 C11.0626152,3.22737103 11.0345986,2.97953655 11.145589,2.78555034 C11.28352,2.59266207 11.5313545,2.56464552 11.7253407,2.67563586 C11.918229,2.8135669 11.9462455,3.06140138 11.8352552,3.25538759 C11.7522814,3.36530207 11.6143503,3.42133517 11.5044414,3.42133517 C11.420389,3.44827586 11.3384938,3.42025655 11.25552,3.36530207 L11.2555034,3.36530207 Z M4.82764138,2.81357793 C4.7177269,2.62068966 4.79962483,2.37175724 4.99358897,2.26185379 C5.18647724,2.15193931 5.43540966,2.23383724 5.5453131,2.42780138 C5.65522759,2.62068966 5.57332966,2.86962207 5.37936552,2.97952552 C5.32440828,3.00754207 5.24143448,3.03448276 5.18647724,3.03448276 C5.04854621,3.03448276 4.91061517,2.95150897 4.82763586,2.81357793 L4.82764138,2.81357793 Z M9.8761931,2.6756469 C9.65528828,2.5926731 9.54537931,2.37175724 9.62834759,2.15195034 C9.71132138,1.93104552 9.93223724,1.82113655 10.1520441,1.90410483 C10.372949,1.98707862 10.4828579,2.20799448 10.3998897,2.42780138 C10.3449324,2.59374897 10.1789848,2.70366345 10.0141241,2.70366345 C9.98610759,2.70366345 9.93115034,2.6756469 9.8761931,2.6756469 Z M6.34488276,2.15195034 C6.28992552,1.93104552 6.42785655,1.71012966 6.67569655,1.65517793 C6.89660138,1.60022069 7.11751724,1.76509241 7.17246897,1.98599172 C7.22742069,2.20689103 7.06255448,2.42781241 6.84165517,2.48276414 L6.75868138,2.48276414 C6.5657931,2.48276414 6.39984,2.3448331 6.34488828,2.15195034 L6.34488276,2.15195034 Z M8.38582069,2.34483862 C8.16491586,2.31682207 7.97202759,2.12393379 8.00005517,1.90301793 C8.00005517,1.6821131 8.22096,1.51725241 8.44187586,1.51725241 C8.66278069,1.51725241 8.85566897,1.73815724 8.82764138,1.9590731 C8.79962483,2.17890207 8.6347531,2.34483862 8.38582069,2.34483862 Z" id="Fill-1" stroke="#808895" stroke-width="0.3"></path>
                    <path d="M8,15.862069 C3.66924138,15.862069 0.137931034,12.3307586 0.137931034,8 C0.137931034,3.66924138 3.66924138,0.137931034 8,0.137931034 C12.3307586,0.137931034 15.862069,3.66924138 15.862069,8 C15.862069,12.3307586 12.3307586,15.862069 8,15.862069 Z M8,0.965517241 C4.1097931,0.965517241 0.965517241,4.1097931 0.965517241,8 C0.965517241,11.8902069 4.1097931,15.0344828 8,15.0344828 C11.8902069,15.0344828 15.0344828,11.8902069 15.0344828,8 C15.0344828,4.1097931 11.8902069,0.965517241 8,0.965517241 Z" id="Fill-2"></path>
                    <path d="M10.4798768,7.5862069 L8.41201968,7.5862069 L8.41201968,5.51724138 C8.41201968,5.29633655 8.21923474,5.10344828 7.99844826,5.10344828 C7.77766177,5.10344828 7.58487683,5.29633655 7.58487683,5.51724138 L7.58487683,7.5862069 L5.5170197,7.5862069 C5.29623322,7.5862069 5.10344828,7.77909517 5.10344828,8 C5.10344828,8.22090483 5.29623322,8.4137931 5.5170197,8.4137931 L7.58487683,8.4137931 L7.58487683,10.4827586 C7.58487683,10.7036634 7.77766177,10.8965517 7.99844826,10.8965517 C8.21923474,10.8965517 8.41201968,10.7036634 8.41201968,10.4827586 L8.41201968,8.4137931 L10.4798768,8.4137931 C10.7006633,8.4137931 10.8934482,8.22090483 10.8934482,8 C10.8934482,7.77909517 10.7006633,7.5862069 10.4798768,7.5862069 Z" id="Fill-3"></path>
                </g>
            </g>
        </g>
    </g>
</svg>