
<svg width="4px" height="18px" viewBox="0 0 4 18" version="1.1" xmlns="http://www.w3.org/2000/svg" xmlns:xlink="http://www.w3.org/1999/xlink">
    <!-- Generator: Sketch 50.2 (55047) - http://www.bohemiancoding.com/sketch -->
    <desc>Created with Sketch.</desc>
    <defs></defs>
    <g id="Dashboard_light_10x-fonts" stroke="none" stroke-width="1" fill="none" fill-rule="evenodd">
        <g id="EMP100---Thin-menu" transform="translate(-1199.000000, -828.000000)" fill="#ABB0BA">
            <g id="Dots" transform="translate(1201.000000, 837.000000) rotate(-270.000000) translate(-1201.000000, -837.000000) translate(1192.000000, 835.000000)">
                <path d="M2.18070288,0 C0.975987403,0 0,0.895112685 0,2 C0,3.10488732 0.975987403,4 2.18070288,4 C3.38372664,4 4.36140575,3.10488732 4.36140575,2 C4.36140575,0.895112685 3.38372664,0 2.18070288,0 Z M9.20664537,0 C8.00192989,0 7.02594249,0.895112685 7.02594249,2 C7.02594249,3.10488732 8.00192989,4 9.20664537,4 C10.4096691,4 11.3873482,3.10488732 11.3873482,2 C11.3873482,0.895112685 10.4096691,0 9.20664537,0 Z M15.8184509,0 C14.6149604,0 13.6385942,0.895112685 13.6385942,2 C13.6385942,3.10488732 14.6149604,4 15.8184509,4 C17.0219415,4 18,3.10488732 18,2 C18,0.895112685 17.0219415,0 15.8184509,0 Z" id="Page-1"></path>
            </g>
        </g>
    </g>
</svg>