
<svg width="17px" height="16px" viewBox="0 0 17 16" version="1.1" xmlns="http://www.w3.org/2000/svg" xmlns:xlink="http://www.w3.org/1999/xlink">
    <!-- Generator: Sketch 50.2 (55047) - http://www.bohemiancoding.com/sketch -->
    <desc>Created with Sketch.</desc>
    <defs></defs>
    <g id="Dashboard_light_10x-fonts" stroke="none" stroke-width="1" fill="none" fill-rule="evenodd">
        <g id="EMP100---APAC-Overview-Dashboard-Copy" transform="translate(-28.000000, -824.000000)" fill="#808895">
            <g id="Service-center" transform="translate(27.000000, 718.000000)">
                <g id="Interaction" transform="translate(1.000000, 106.000000)">
                    <path d="M8.49676452,13.2460929 C5.47432903,13.2460929 3.01618387,10.7869058 3.01618387,7.76551226 C3.01618387,4.74307677 5.47537097,2.28493161 8.49676452,2.28493161 C11.5192,2.28385952 13.9784419,4.74302194 13.9784419,7.76551226 C13.9784419,10.7880026 11.5192548,13.2460929 8.49676452,13.2460929 Z M8.49676452,3.82068968 C6.32142258,3.82068968 4.55303871,5.59008806 4.55303871,7.76441548 C4.55303871,9.93868806 6.3224371,11.7081413 8.49676452,11.7081413 C10.6721065,11.7081413 12.4404903,9.9387429 12.4404903,7.76441548 C12.4404903,5.59121226 10.6710919,3.82068968 8.49676452,3.82068968 Z M12.4651677,15.2789639 C15.2586516,13.8008961 16.9937484,10.9217542 16.9937484,7.76551226 C16.9937484,4.6100929 15.2586242,1.73106065 12.4651677,0.252060645 C12.1524226,0.0871167742 11.7646855,0.206004355 11.5997581,0.518757742 C11.4348142,0.831502903 11.5537018,1.21924 11.8664552,1.38416742 C14.23886,2.6394529 15.7125681,5.08468355 15.7125681,7.76465129 C15.7125681,10.4455239 14.2387777,12.8906997 11.8664552,14.1459577 C11.55371,14.3109016 11.4348197,14.6996916 11.5997581,15.0113674 C11.7143627,15.2287947 11.9360839,15.3519706 12.1663516,15.3519706 C12.2681021,15.3530427 12.3698553,15.3294785 12.4651677,15.2791394 L12.4651677,15.2789639 Z M5.39399032,15.0122668 C5.55893419,14.6995216 5.44004661,14.3117845 5.12729323,14.1468571 C2.75488839,12.8915716 1.28118032,10.446341 1.28118032,7.76555065 C1.28118032,5.08574742 2.75497065,2.64059903 5.12729323,1.38506677 C5.44003839,1.2201229 5.55892871,0.831332903 5.39399032,0.519657097 C5.22904645,0.206911935 4.84025645,0.0880216129 4.52858065,0.25296 C1.73509677,1.73102774 0,4.61016968 0,7.76641161 C0,10.9229277 1.73512419,13.80196 4.52858065,15.2798632 C4.62390677,15.3302024 4.72672935,15.3548387 4.82739677,15.3548387 C5.05660613,15.3526973 5.27937742,15.229524 5.39399032,15.0120968 L5.39399032,15.0122668 Z" id="Page-1"></path>
                </g>
            </g>
        </g>
    </g>
</svg>