
<svg width="13px" height="18px" viewBox="0 0 13 18" version="1.1" xmlns="http://www.w3.org/2000/svg" xmlns:xlink="http://www.w3.org/1999/xlink">
    <!-- Generator: Sketch 50.2 (55047) - http://www.bohemiancoding.com/sketch -->
    <desc>Created with Sketch.</desc>
    <defs></defs>
    <g id="Dashboard_light_10x-fonts" stroke="none" stroke-width="1" fill-rule="evenodd">
        <g id="EMP100---APAC-Overview-Dashboard-Copy" transform="translate(-30.000000, -254.000000)">
            <g id="Financial-capital" transform="translate(27.000000, 149.000000)">
                <g id="Orders" transform="translate(3.000000, 105.000000)">
                    <path d="M2.60609167,3.87155186 C2.60609167,3.64170519 2.77829267,3.46874519 3.00889833,3.46874519 L6.03742333,3.46874519 C6.26727,3.46874519 6.44023,3.64094619 6.44023,3.87155186 C6.44023,4.10139853 6.268029,4.27435853 6.03742333,4.27435853 L3.00889833,4.27435853 C2.77905167,4.27435853 2.60609167,4.10141003 2.60609167,3.87155186 Z M2.60609167,6.01802686 C2.60609167,6.24787353 2.77829267,6.42083353 3.00889833,6.42083353 L9.35344833,6.42083353 C9.583295,6.42083353 9.756255,6.24863253 9.756255,6.01802686 C9.756255,5.78818019 9.584054,5.61522019 9.35344833,5.61522019 L3.00889833,5.61596961 C2.77905167,5.61596961 2.60609167,5.80763628 2.60609167,6.01802878 L2.60609167,6.01802686 Z M9.35333333,7.76250019 L3.00878333,7.76250019 C2.77893667,7.76250019 2.60597667,7.93470119 2.60597667,8.16530686 C2.60597667,8.39515352 2.77817767,8.56811352 3.00878333,8.56811352 L9.35333333,8.56811352 C9.58318,8.56811352 9.75614,8.39591252 9.75614,8.16530686 C9.75539058,7.95416686 9.56372583,7.76250019 9.35333333,7.76250019 Z M9.35333333,9.90897519 L3.00878333,9.90897519 C2.77893667,9.90897519 2.60597667,10.0811762 2.60597667,10.3117819 C2.60597667,10.5416285 2.77817767,10.7145885 3.00878333,10.7145885 L9.35333333,10.7145885 C9.58318,10.7145885 9.75614,10.5423875 9.75614,10.3117819 C9.75539058,10.1006419 9.56372583,9.90897519 9.35333333,9.90897519 Z M12.34295,3.54583353 L12.34295,17.25 L0,17.25 L0,1.91666688e-07 L8.778525,1.91666688e-07 L12.34295,3.54583353 Z M11.1742242,4.04447352 L8.29922417,1.18825686 L1.1880075,1.18825686 L1.1880075,16.0619735 L11.1742242,16.0619735 L11.1742242,4.04447352 Z" id="Page-1"></path>
                </g>
            </g>
        </g>
    </g>
</svg>