
<svg width="15px" height="19px" viewBox="0 0 15 19" version="1.1" xmlns="http://www.w3.org/2000/svg" xmlns:xlink="http://www.w3.org/1999/xlink">
    <!-- Generator: Sketch 50.2 (55047) - http://www.bohemiancoding.com/sketch -->
    <desc>Created with Sketch.</desc>
    <defs></defs>
    <g id="Dashboard_light_10x-fonts" stroke="none" stroke-width="1" fill="none" fill-rule="evenodd">
        <g id="EMP100---APAC-Overview-Dashboard-Copy" transform="translate(-30.000000, -373.000000)" fill="#F8E71C" stroke="#F8E71C" stroke-width="0.4">
            <g id="Group-11" transform="translate(27.000000, 293.000000)">
                <g id="Market-access">
                    <path d="M16.1879875,87.4767086 C16.1879875,91.6964 11.9664587,95.6897486 10.5,96.9504686 C9.03211778,95.6914 4.81201248,91.7055314 4.81201248,87.4767086 C4.81201248,84.3522057 7.36388456,81.8097829 10.5,81.8097829 C13.6361154,81.8097829 16.1879875,84.3522057 16.1879875,87.4767086 Z M10.5,81 C6.9099064,81 4,83.8991314 4,87.4759314 C4,93.0266743 10.5,98 10.5,98 C10.5,98 17,93.0274514 17,87.4759314 C17,83.8999086 14.0900936,81 10.5,81 Z M12.9375975,87.4767086 C12.9375975,88.8154537 11.8437207,89.90528 10.5,89.90528 C9.15627925,89.90528 8.0624025,88.8154537 8.0624025,87.4767086 C8.0624025,86.1372057 9.15627925,85.0481371 10.5,85.0481371 C11.8437207,85.0481371 12.9375975,86.1379634 12.9375975,87.4767086 Z M10.5,84.2383543 C8.70532371,84.2383543 7.24960998,85.6879006 7.24960998,87.4767086 C7.24960998,89.2647394 8.70454368,90.7150629 10.5,90.7150629 C12.2946763,90.7150629 13.75039,89.2655166 13.75039,87.4767086 C13.75039,85.6879006 12.2946958,84.2383543 10.5,84.2383543 Z" id="Page-1"></path>
                </g>
            </g>
        </g>
    </g>
</svg>