
<svg width="17px" height="15px" viewBox="0 0 17 15" version="1.1" xmlns="http://www.w3.org/2000/svg" xmlns:xlink="http://www.w3.org/1999/xlink">
    <!-- Generator: Sketch 50.2 (55047) - http://www.bohemiancoding.com/sketch -->
    <desc>Created with Sketch.</desc>
    <defs></defs>
    <g id="Dashboard_light_10x-fonts" stroke="none" stroke-width="1" fill-rule="evenodd">
        <g id="EMP100---APAC-Overview-Dashboard-Copy" transform="translate(-29.000000, -515.000000)">
            <g id="Member-profile" transform="translate(27.000000, 435.000000)">
                <g id="Informing" transform="translate(2.000000, 80.000000)">
                    <g id="Group-5">
                        <path d="M16.6946509,7.61510775 C16.6946509,3.53743275 12.9500009,0.212432752 8.34732588,0.212432752 C3.74465088,0.212432752 0,3.53743275 0,7.61510775 C0,9.17232775 0.55986,10.6954578 1.57499913,11.9374328 C1.38221913,12.2874328 1.11972,12.5847928 0.80528,12.7946528 C0.49014,13.0045128 0.33292,13.3893728 0.42042,13.7571528 C0.50792,14.1249328 0.80528,14.4045128 1.17306,14.4571528 C1.43555913,14.4920163 1.71583913,14.5097893 1.97834088,14.5097893 C2.78362088,14.5097893 3.51848088,14.3525623 4.18369088,14.0196493 C5.44355088,14.6670091 6.87834088,14.9999291 8.33101413,14.9999291 C12.9501409,15.0177021 16.6947891,11.6927793 16.6947891,7.61510425 L16.6946509,7.61510775 Z M8.34732588,13.6177828 C6.99996588,13.6177828 5.66965088,13.2855628 4.55000088,12.6375028 L4.20000088,12.4276428 L3.85000088,12.6375028 C3.46514088,12.8651428 3.00986088,13.0223628 2.53750088,13.0750028 C2.76514088,12.7776428 2.94014088,12.4276428 3.08028088,12.0598628 L3.23750788,11.6572228 L2.92236788,11.3427653 C1.92500788,10.2749853 1.41708788,8.98026525 1.41708788,7.61509025 C1.41708788,4.30794025 4.53226288,1.61241525 8.36441288,1.61241525 C12.1965629,1.61241525 15.3117379,4.30706525 15.3117379,7.61509025 C15.2946474,10.9222403 12.1795879,13.6177653 8.34726288,13.6177653 L8.34732588,13.6177828 Z M6.28215088,7.61510775 C6.28215088,8.10524775 5.87951088,8.50788775 5.38937088,8.50788775 C4.89923088,8.50788775 4.49659088,8.10524775 4.49659088,7.61510775 C4.49659088,7.12496775 4.89923088,6.72232775 5.38937088,6.72232775 C5.87951088,6.72232775 6.28215088,7.12496775 6.28215088,7.61510775 Z M9.24000088,7.61510775 C9.24000088,8.10524775 8.83736088,8.50788775 8.34722088,8.50788775 C7.85708088,8.50788775 7.45444088,8.10524775 7.45444088,7.61510775 C7.45444088,7.12496775 7.85708088,6.72232775 8.34722088,6.72232775 C8.83736088,6.72232775 9.24000088,7.12496775 9.24000088,7.61510775 Z M12.1971509,7.61510775 C12.1971509,8.10524775 11.7945109,8.50788775 11.3043709,8.50788775 C10.8142309,8.50788775 10.4115909,8.10524775 10.4115909,7.61510775 C10.4115909,7.12496775 10.8142309,6.72232775 11.3043709,6.72232775 C11.7945109,6.72232775 12.1971509,7.12496775 12.1971509,7.61510775 Z" id="Page-1"></path>
                    </g>
                </g>
            </g>
        </g>
    </g>
</svg>