
<svg width="17px" height="15px" viewBox="0 0 17 15" version="1.1" xmlns="http://www.w3.org/2000/svg" xmlns:xlink="http://www.w3.org/1999/xlink">
    <!-- Generator: Sketch 50.2 (55047) - http://www.bohemiancoding.com/sketch -->
    <desc>Created with Sketch.</desc>
    <defs></defs>
    <g id="Dashboard_light_10x-fonts" stroke="none" stroke-width="1" fill="none" fill-rule="evenodd">
        <g id="EMP100---APAC-Overview-Dashboard-Copy" transform="translate(-29.000000, -540.000000)" fill="#808895" stroke="#808895" stroke-width="0.2">
            <g id="Member-profile" transform="translate(27.000000, 435.000000)">
                <g id="Facilitation" transform="translate(2.000000, 105.000000)">
                    <path d="M7.69229621,8.11728771 L7.69229621,4.95146271 C7.69229621,4.65430271 7.92638621,4.42021271 8.22354621,4.42021271 C8.52070621,4.42021271 8.75479621,4.65430271 8.75479621,4.95146271 L8.75479621,8.11728771 C8.75479621,8.41444771 8.52070621,8.64853771 8.22354621,8.64853771 C7.92555746,8.64853771 7.69229621,8.41444771 7.69229621,8.11728771 Z M7.84088046,9.39228771 C7.73463046,9.49853771 7.69229621,9.62637771 7.69229621,9.77495771 C7.69229621,9.92353771 7.75621196,10.0513777 7.84088046,10.1576277 C7.94713046,10.2638777 8.07497046,10.306212 8.22355046,10.306212 C8.35138196,10.306212 8.49997046,10.2422962 8.60622046,10.1576277 C8.71247046,10.0513777 8.75480471,9.92353771 8.75480471,9.77495771 C8.75480471,9.64712621 8.69088896,9.49853771 8.60622046,9.39228771 C8.39289171,9.20136921 8.03181171,9.20136921 7.84088046,9.39228771 Z M16.2129555,7.35194771 C16.2129555,8.86103771 15.6601155,10.3486227 14.6407955,11.5596602 C14.8532955,11.9630702 15.1297155,12.3034102 15.4907955,12.5375002 C15.7456255,12.707666 15.8734655,13.0048302 15.8095455,13.3235802 C15.7456255,13.6423302 15.5115567,13.8548302 15.1928067,13.8971602 C14.9379767,13.9394945 14.6831467,13.961076 14.4274667,13.961076 C13.6413867,13.961076 12.9183767,13.7909102 12.2601792,13.472156 C11.0275092,14.109656 9.64621671,14.449996 8.20100421,14.449996 C3.78079171,14.449996 0.210579212,11.284171 0.210579212,7.37353346 C0.210579212,3.46395846 3.80140421,0.297070962 8.20100421,0.297070962 C12.6220667,0.276320337 16.2128917,3.46374596 16.2128917,7.35185846 L16.2129555,7.35194771 Z M15.1504555,7.35194771 C15.1504555,4.03652271 12.0475305,1.33798521 8.22253046,1.33798521 C4.39753046,1.33798521 1.29460546,4.03652271 1.29460546,7.35194771 C1.29460546,10.6673727 4.39753046,13.3659102 8.22253046,13.3659102 C9.58219046,13.3659102 10.8787805,13.0255702 12.0258555,12.3880702 C12.1960212,12.3034017 12.3869355,12.3034017 12.5571055,12.3880702 C13.0460255,12.6852302 13.6196055,12.8554002 14.2786955,12.8769902 C13.9599455,12.5366502 13.7258555,12.1332402 13.5349455,11.6443202 C13.4710297,11.4534017 13.513364,11.2409102 13.6411955,11.0914802 C14.6190355,10.029809 15.1502855,8.73315521 15.1502855,7.35190521 L15.1504555,7.35194771 Z" id="Page-1"></path>
                </g>
            </g>
        </g>
    </g>
</svg>