
<svg width="18px" height="18px" viewBox="0 0 18 18" version="1.1" xmlns="http://www.w3.org/2000/svg" xmlns:xlink="http://www.w3.org/1999/xlink">
    <!-- Generator: Sketch 50.2 (55047) - http://www.bohemiancoding.com/sketch -->
    <desc>Created with Sketch.</desc>
    <defs></defs>
    <g id="Dashboard_light_10x-fonts" stroke="none" stroke-width="1" fill="none" fill-rule="evenodd">
        <g id="EMP100---APAC-Overview-Dashboard-Copy" transform="translate(-27.000000, -799.000000)" fill="#808895" stroke="#808895" stroke-width="0.3">
            <g id="Service-center" transform="translate(27.000000, 718.000000)">
                <g id="Resources" transform="translate(1.000000, 81.000000)">
                    <path d="M2.96537004,12.439202 C3.07966644,12.4584984 3.19321804,12.4770538 3.30752204,12.4770538 L3.32681844,12.4770538 L3.34611484,12.4770538 L3.36541124,12.4770538 C3.49826304,12.4770538 3.63110724,12.4577574 3.76471524,12.4199056 C3.97401924,12.7427536 4.48686724,13.1799056 5.70252524,13.4842096 C6.00682924,13.5599132 6.00682924,13.9785136 5.98752524,14.2249056 C5.96822884,14.4149056 6.12037704,14.5856016 6.31037324,14.6049056 L6.32966964,14.6049056 C6.51966964,14.6049056 6.67182164,14.4527574 6.69036564,14.2820576 C6.74751384,13.5027536 6.44321364,12.9520576 5.85466964,12.8192096 C4.94251764,12.5913616 4.52466964,12.3063616 4.37251764,12.1349056 C4.42966584,12.0970538 4.48681404,12.0399056 4.52466584,11.9827574 C5.15181784,11.2799094 5.05681784,10.0827574 5.05681784,9.9499474 C4.98111424,8.5249474 3.93612184,8.1642514 3.30896984,8.1827954 C2.68181784,8.163499 1.63681784,8.5056434 1.56112184,9.9499474 C1.54182544,10.0827992 1.44682544,11.2799474 2.09327384,11.9827574 C2.15042204,12.0399056 2.20757024,12.1156092 2.28327384,12.153461 C2.11257024,12.3241646 1.71327384,12.590613 0.838969835,12.818461 C0.268970025,12.9706092 -0.035333975,13.521309 0.00327402501,14.281309 C0.022570425,14.471309 0.173977625,14.604157 0.363970025,14.604157 L0.383266425,14.604157 C0.573266425,14.5848606 0.725418235,14.414157 0.706114235,14.224157 C0.686817835,13.977005 0.706114235,13.559157 0.991114235,13.483461 C2.24317624,13.180639 2.75604324,12.762791 2.96540424,12.439202 L2.96537004,12.439202 Z M2.30037004,9.969202 L2.30037004,9.9499056 C2.33822184,8.9620576 3.02252204,8.8670576 3.28821804,8.8670576 L3.32606984,8.8670576 L3.34536624,8.8670576 C3.57321424,8.8670576 4.31467024,8.9049094 4.37106224,9.9499056 L4.37106224,9.969202 C4.40891404,10.254202 4.39035864,11.05205 4.02891024,11.469898 C3.85820664,11.659898 3.62960624,11.754898 3.34460624,11.754898 L3.32530984,11.754898 C3.02100584,11.754898 2.81246184,11.659898 2.64100584,11.469898 C2.28105084,11.052791 2.26248784,10.254202 2.30033584,9.969202 L2.30037004,9.969202 Z M14.72599,12.781392 C13.813838,12.553544 13.39599,12.268544 13.243838,12.097088 C13.3009862,12.0592362 13.3581344,12.002088 13.3959862,11.9449398 C14.0231382,11.2420918 13.9281382,10.0449398 13.9281382,9.9121298 C13.8524346,8.4871298 12.8074422,8.1264338 12.1802902,8.1449778 C11.5531382,8.1256814 10.5081382,8.4678258 10.4324422,9.9121298 C10.4131458,10.0449816 10.3181458,11.2421298 10.9645942,11.9449398 C11.0217424,12.002088 11.0788906,12.0777916 11.1545942,12.1156434 C10.9838906,12.286347 10.5845942,12.5527954 9.71029024,12.7806434 C9.14029024,12.9327916 8.83598624,13.4834914 8.87459424,14.2434914 C8.89389064,14.4334914 9.04529784,14.5663394 9.23529024,14.5663394 L9.25458664,14.5663394 C9.44458664,14.547043 9.59673864,14.3763394 9.57743464,14.1863394 C9.55813824,13.9391874 9.57743464,13.5213394 9.86243464,13.4456434 C11.0781306,13.1413394 11.5917386,12.7234914 11.8002446,12.4006434 C11.914541,12.4199398 12.0280926,12.4384952 12.1423966,12.4384952 L12.161693,12.4384952 L12.1809894,12.4384952 L12.2002858,12.4384952 C12.3331376,12.4384952 12.4659818,12.4191988 12.5995898,12.381347 C12.8088938,12.704195 13.3217418,13.141347 14.5373998,13.445651 C14.8417038,13.5213546 14.8417038,13.939955 14.8223998,14.186347 C14.8031034,14.376347 14.9552516,14.547043 15.1452478,14.566347 L15.1645442,14.566347 C15.3545442,14.566347 15.5066962,14.4141988 15.5252402,14.243499 C15.6002009,13.48424 15.2959102,12.933544 14.7259102,12.781392 L14.72599,12.781392 Z M12.18037,11.755696 C11.876066,11.755696 11.648218,11.660696 11.477522,11.470696 C11.097522,11.052848 11.097522,10.235696 11.13537,9.97 L11.13537,9.9507036 C11.1732218,8.9628556 11.857522,8.8678556 12.123218,8.8678556 L12.1610698,8.8678556 L12.1803662,8.8678556 C12.4082142,8.8678556 13.1496702,8.9057074 13.2060622,9.9507036 L13.2060622,9.97 C13.243914,10.255 13.2253586,11.052848 12.8639102,11.470696 C12.712503,11.660696 12.4846512,11.755696 12.1803472,11.755696 L12.18037,11.755696 Z M9.02599004,4.497886 C9.65314204,3.795038 9.55814204,2.597886 9.55814204,2.465076 C9.48243844,1.040076 8.43744604,0.67938 7.81029404,0.697924 C7.18314204,0.6786276 6.13814204,1.020772 6.06244604,2.465076 C6.04314964,2.5979278 5.94814964,3.795076 6.59459804,4.497886 C6.65174624,4.5550342 6.70889444,4.6307378 6.78459804,4.6685896 C6.61389444,4.8392932 6.21459804,5.1057416 5.34029404,5.3335896 C4.77029404,5.4857378 4.46599004,6.0364376 4.50459804,6.7964376 C4.52389444,6.9864376 4.67530164,7.1192856 4.86529404,7.1192856 L4.88459044,7.1192856 C5.07459044,7.0999892 5.22674244,6.9292856 5.20743844,6.7392856 C5.18814204,6.4921336 5.20743844,6.0742856 5.49243844,5.9985896 C6.70813444,5.6942856 7.22174244,5.2764376 7.43024844,4.9535896 C7.54454484,4.972886 7.65809644,4.9914414 7.77240044,4.9914414 L7.79169684,4.9914414 L7.81099324,4.9914414 L7.83028964,4.9914414 C7.96314144,4.9914414 8.09598564,4.972145 8.22959364,4.9342932 C8.43889764,5.2571412 8.95174564,5.6942932 10.1674036,5.9985972 C10.4717095,6.0743008 10.4717095,6.4929012 10.4524036,6.7392932 C10.4331072,6.9292932 10.5852554,7.0999892 10.7752535,7.1192932 L10.7945499,7.1192932 C10.9845499,7.1192932 11.1367,6.967145 11.155244,6.7964452 C11.2123922,6.0171412 10.908092,5.4664452 10.3195499,5.3335972 C9.40739794,5.1057492 8.98954994,4.8207492 8.83739794,4.6492932 C8.93091404,4.6114414 8.96950684,4.5542932 9.02591404,4.497886 L9.02599004,4.497886 Z M7.81029404,4.307886 C7.81029404,4.307886 7.79099764,4.307886 7.81029404,4.307886 C7.50599004,4.307886 7.27814204,4.212886 7.10744604,4.022886 C6.72744604,3.605038 6.72744604,2.787886 6.76529404,2.52219 L6.76529404,2.5028936 C6.80314584,1.5150456 7.48744604,1.4200456 7.75314204,1.4200456 L7.79099384,1.4200456 L7.81029024,1.4200456 C8.03813824,1.4200456 8.77959424,1.4578974 8.83598624,2.5028936 L8.83598624,2.52219 C8.87383804,2.80719 8.85528264,3.605038 8.49383424,4.022886 C8.32313064,4.212886 8.09527124,4.307886 7.81027124,4.307886 L7.81029404,4.307886 Z M13.168104,14.358506 C13.3009558,14.4913578 13.3009558,14.719202 13.1488076,14.85281 C11.7045036,16.239962 9.80442764,17 7.79099764,17 C6.04314964,17 4.35161764,16.410696 2.98380764,15.327848 L2.98380764,15.612848 C2.98380764,15.802848 2.83165944,15.973544 2.64165564,15.973544 C2.45165184,15.973544 2.28095964,15.8213958 2.28095964,15.631392 L2.26166324,14.472088 C2.26166324,14.282088 2.41381144,14.111392 2.60381524,14.111392 L3.74381524,14.0920956 C3.93381524,14.0920956 4.10451124,14.2442438 4.10451124,14.4342476 C4.10451124,14.6242514 3.95236304,14.7949436 3.76235924,14.7949436 L3.45805524,14.7949436 C4.69305524,15.7642476 6.21305524,16.2770956 7.79024524,16.2770956 C9.61454924,16.2770956 11.3430552,15.5927916 12.6546252,14.3392856 C12.8075163,14.2064338 13.0353662,14.2064338 13.1682142,14.358582 L13.168104,14.358506 Z M16.284484,9.114126 L15.562332,10.006974 C15.5051838,10.0826776 15.4101838,10.1212704 15.31518,10.1398258 L15.2773282,10.1398258 C15.2016246,10.1398258 15.12518,10.1205294 15.0494802,10.0641222 L14.1566322,9.3419702 C14.004484,9.2276738 13.9859286,8.9998182 14.099484,8.8476662 C14.2137804,8.695518 14.441636,8.6769626 14.593788,8.790518 L14.821636,8.9612216 C14.7073396,6.1490316 12.902256,3.6218416 10.261636,2.6340316 C10.071636,2.558328 9.97663604,2.3683356 10.052332,2.1783356 C10.1280356,1.9883356 10.318028,1.8933356 10.508028,1.9690316 C13.415218,3.0518796 15.390838,5.8068416 15.523648,8.8846516 L15.713648,8.6568036 C15.8279444,8.5046554 16.0558,8.4861 16.207952,8.5996554 C16.3793966,8.7339911 16.417256,8.9625934 16.2843966,9.1139854 L16.284484,9.114126 Z M3.91510594,3.585506 L3.95295774,3.338354 C1.95795774,4.630506 0.742337735,6.833974 0.742337735,9.247734 C0.742337735,9.837038 0.818041335,10.444886 0.970185735,11.014886 C1.02733394,11.204886 0.913037535,11.394886 0.723033735,11.452038 C0.685181935,11.452038 0.665885535,11.4713344 0.628033735,11.4713344 C0.475884775,11.4713344 0.323728975,11.357038 0.285880975,11.2056384 C0.115177375,10.5784864 0.038728975,9.9327904 0.038728975,9.2678284 C0.038728975,6.6078284 1.38803374,4.1756384 3.59153974,2.7506384 L3.26868984,2.6934902 C3.07868984,2.6556384 2.94584184,2.4841862 2.98368984,2.2756422 C3.02154164,2.0856422 3.19299574,1.9527942 3.40153784,1.9906422 L4.54153784,2.1999462 C4.73153784,2.237798 4.86438584,2.4092502 4.82653784,2.6177942 L4.63653784,3.7384902 C4.59868604,3.9091938 4.46583424,4.0427942 4.29438584,4.0427942 L4.23723764,4.0427942 C4.01013064,3.9656067 3.89582664,3.7941602 3.91513064,3.5856162 L3.91510594,3.585506 Z" id="Page-1"></path>
                </g>
            </g>
        </g>
    </g>
</svg>