
<svg width="20px" height="15px" viewBox="0 0 20 15" version="1.1" xmlns="http://www.w3.org/2000/svg" xmlns:xlink="http://www.w3.org/1999/xlink">
    <!-- Generator: Sketch 50.2 (55047) - http://www.bohemiancoding.com/sketch -->
    <desc>Created with Sketch.</desc>
    <defs></defs>
    <g id="Dashboard_light_10x-fonts" stroke="none" stroke-width="1" fill="none" fill-rule="evenodd">
        <g id="EMP100---APAC-Overview-Dashboard-Copy" transform="translate(-28.000000, -681.000000)" fill="#808895">
            <g id="Global-network" transform="translate(27.000000, 577.000000)">
                <g id="Group-18" transform="translate(1.000000, 104.000000)">
                    <path d="M1.34258666,-6.92779167e-14 C0.606213496,-6.92779167e-14 0,0.610058824 0,1.35110294 L0,13.6488971 C0,14.3899412 0.606213496,15 1.34258666,15 L13.5628652,15 C14.2992384,15 14.9054519,14.3899412 14.9054519,13.6488971 L14.9054519,9.67147059 L19.1592048,5.39757353 C19.3278841,5.22610147 19.3278841,4.94863235 19.1592048,4.77716912 L17.1727246,2.77808824 C17.0802494,2.68244338 16.9492524,2.63418971 16.8165281,2.64711397 C16.7172052,2.66003824 16.6255871,2.70570662 16.5562307,2.77808824 L14.905408,4.44628676 L14.905408,1.35121324 C14.905408,0.610169118 14.2991945,0.000110294118 13.5628214,0.000110294118 L1.34258666,-6.92779167e-14 Z M1.34258666,0.882352941 L13.5628652,0.882352941 C13.8291467,0.882352941 14.0286606,1.08312353 14.0286606,1.35110294 L14.0286606,5.32852941 L10.2133033,9.17514706 C10.1311041,9.25700515 10.0840117,9.36902426 10.0831546,9.48533824 L10.0831546,11.4706324 C10.0831546,11.7144926 10.2792336,11.9118088 10.5215502,11.9118088 L12.4943306,11.9118088 C12.6099224,11.9109463 12.7212442,11.8635551 12.8025666,11.7808346 L14.0287154,10.5469081 L14.0287154,13.6488199 C14.0287154,13.9167904 13.8292103,14.1175699 13.56292,14.1175699 L1.34264146,14.1175699 C1.07635994,14.1175699 0.876846087,13.9167993 0.876846087,13.6488199 L0.876846087,1.35102574 C0.876846087,1.08305515 1.07635118,0.882275735 1.34264146,0.882275735 L1.34258666,0.882352941 Z M3.02766991,3.08823529 C2.91122107,3.09340588 2.80163312,3.14510515 2.72370829,3.23213382 C2.64493298,3.3183 2.60469045,3.43290441 2.60982845,3.55008971 C2.61496645,3.667275 2.66633984,3.77756029 2.75281996,3.85597941 C2.83844301,3.93525441 2.95232505,3.97575221 3.0687717,3.97058162 L11.8366846,3.97058162 C11.9539905,3.97230441 12.0670176,3.92663603 12.1509266,3.84391544 C12.2339828,3.76033235 12.2810753,3.64745515 12.2810753,3.52940074 C12.2810753,3.41134632 12.2339828,3.29846691 12.1509266,3.21488603 C12.0670154,3.13216544 11.9539905,3.08649706 11.8366846,3.08821985 L3.0687717,3.08821985 C3.05507183,3.08735735 3.04137197,3.08735735 3.02767211,3.08821985 L3.02766991,3.08823529 Z M16.8645324,3.70863971 L18.2345188,5.08731618 L17.4330877,5.89383088 L16.0631013,4.51515441 L16.8645324,3.70863971 Z M15.4465855,5.13558088 L16.8165719,6.51425735 L12.3162215,11.0294779 L10.9599349,11.0294779 L10.9599349,9.66458824 L15.4465855,5.13558088 Z M3.02771375,5.73531618 C2.91126491,5.74048676 2.80167696,5.79218603 2.72375213,5.87921471 C2.64497682,5.96538088 2.60473429,6.07998529 2.60987229,6.19717059 C2.61501029,6.31435588 2.66638368,6.42464118 2.7528638,6.50306029 C2.83848685,6.58233529 2.95236889,6.62283309 3.06881554,6.6176625 L11.8367284,6.6176625 C11.9540343,6.61938529 12.0670615,6.57371691 12.1509704,6.49099632 C12.2340267,6.40741324 12.2811191,6.29453603 12.2811191,6.17648162 C12.2811191,6.05842721 12.2340267,5.94554779 12.1509704,5.86196691 C12.0670593,5.77924632 11.9540343,5.73357794 11.8367284,5.73530074 L3.06881554,5.73530074 C3.05511567,5.73443824 3.04141581,5.73443824 3.02771594,5.73530074 L3.02771375,5.73531618 Z M3.02771375,8.382375 C2.91126491,8.38754559 2.80167696,8.43924485 2.72375213,8.52627353 C2.64497682,8.61243971 2.60473429,8.72704412 2.60987229,8.84422941 C2.61501029,8.96141471 2.66638368,9.0717 2.7528638,9.15011912 C2.83848685,9.22939412 2.95236889,9.26989191 3.06881554,9.26472132 L8.80215376,9.26472132 C8.91945967,9.26644412 9.03248683,9.22077574 9.11639576,9.13805515 C9.19945201,9.05447206 9.24654447,8.94159485 9.24654447,8.82354044 C9.24654447,8.70548603 9.19945201,8.59260662 9.11639576,8.50902574 C9.03248464,8.42630515 8.91945967,8.38063676 8.80215376,8.38235956 L3.06881554,8.38235956 C3.05511567,8.38149706 3.04141581,8.38149706 3.02771594,8.38235956 L3.02771375,8.382375 Z M3.02771375,11.0294338 C2.91126491,11.0346044 2.80167696,11.0863037 2.72375213,11.1733324 C2.64497682,11.2594985 2.60473429,11.3741029 2.60987229,11.4912882 C2.61501029,11.6084735 2.66638368,11.7187588 2.7528638,11.7971779 C2.83848685,11.8764529 2.95236889,11.9169507 3.06881554,11.9117801 L8.7679589,11.9117801 C8.88526481,11.9135029 8.99829197,11.8678346 9.0822009,11.785114 C9.16525715,11.7015309 9.21234961,11.5886537 9.21234961,11.4705993 C9.21234961,11.3525449 9.16525715,11.2396654 9.0822009,11.1560846 C8.99828978,11.073364 8.88526481,11.0276956 8.7679589,11.0294184 L3.06881554,11.0294184 C3.05511567,11.0285559 3.04141581,11.0285559 3.02771594,11.0294184 L3.02771375,11.0294338 Z" id="Page-1"></path>
                </g>
            </g>
        </g>
    </g>
</svg>