
<svg width="16px" height="16px" viewBox="0 0 16 16" version="1.1" xmlns="http://www.w3.org/2000/svg" xmlns:xlink="http://www.w3.org/1999/xlink">
    <!-- Generator: Sketch 50.2 (55047) - http://www.bohemiancoding.com/sketch -->
    <desc>Created with Sketch.</desc>
    <defs></defs>
    <g id="Dashboard_light_10x-fonts" stroke="none" stroke-width="1" fill="none" fill-rule="evenodd">
        <g id="EMP100---APAC-Overview-Dashboard-Copy" transform="translate(-28.000000, -749.000000)" fill="#808895">
            <g id="Service-center" transform="translate(27.000000, 718.000000)">
                <g id="Help" transform="translate(1.000000, 30.000000)">
                    <path d="M8.011692,0.97784 C3.594684,0.97784 0,4.571708 0,8.98892 C0,13.406132 3.593868,17 8.011692,17 C12.429516,17 16.022772,13.406132 16.022772,8.98892 C16.022772,4.571096 12.42972,0.97784 8.011692,0.97784 M8.011692,15.714392 C4.303788,15.714392 1.286832,12.697436 1.286832,8.988716 C1.286832,5.27999396 4.303788,2.263856 8.011692,2.263856 C11.720412,2.263856 14.736552,5.280812 14.736552,8.988716 C14.736552,12.697436 11.720412,15.714392 8.011692,15.714392 M7.884192,11.570744 C7.5989184,11.570744 7.3550568,11.6719464 7.153464,11.872766 C6.95185488,12.0743751 6.851442,12.3182204 6.851442,12.6026984 C6.851442,12.887972 6.95184876,13.1318336 7.153464,13.3334264 C7.35507924,13.5350192 7.5989184,13.6354484 7.884192,13.6354484 C8.1694656,13.6354484 8.4133272,13.5350416 8.61492,13.3334264 C8.81573352,13.1318173 8.916942,12.887972 8.916942,12.6026984 C8.916942,12.3174248 8.81653524,12.0735632 8.61492,11.872766 C8.41410648,11.6719525 8.1702612,11.570744 7.884192,11.570744 M10.149,4.931156 C9.8461824,4.73034248 9.5043192,4.5821324 9.1226352,4.4857016 C8.7409308,4.38927896 8.3488632,4.34146748 7.9464528,4.34146748 C7.561566,4.34146748 7.1926116,4.40441984 6.8403852,4.5303266 C6.4881588,4.65543572 6.175794,4.8251678 5.904066,5.0387354 C5.6315424,5.252303 5.4139968,5.4993266 5.2506336,5.7798266 C5.08727448,6.0603266 5.0059968,6.3551678 5.0059968,6.6651458 C5.0059968,6.9161678 5.08727856,7.1066222 5.2506336,7.2373046 C5.41399272,7.36719548 5.6044512,7.43174312 5.8227924,7.43174312 C6.02360592,7.43174312 6.1813836,7.389509 6.2937468,7.30583636 C6.40690356,7.22216372 6.5009292,7.12016372 6.5766336,6.99824516 C6.65233596,6.87632252 6.71847684,6.74483636 6.77744712,6.60219956 C6.83641536,6.45955868 6.91291536,6.32726876 7.01012952,6.20615396 C7.10655216,6.08502896 7.23244872,5.98222316 7.38785592,5.89856276 C7.54244916,5.81489012 7.75442352,5.772656 8.02217352,5.772656 C8.39910432,5.772656 8.69474112,5.86668776 8.90830872,6.0555428 C9.12187632,6.24440192 9.22864992,6.5105648 9.22864992,6.8532236 C9.22864992,7.0627928 9.17446344,7.247678 9.06688404,7.4062472 C8.95930668,7.5656222 8.82383844,7.718612 8.66047524,7.8652472 C8.49711612,8.0118722 8.32179444,8.1537236 8.13295164,8.2923824 C7.94409252,8.43024152 7.76797524,8.5792472 7.60463244,8.7386324 C7.44127332,8.8980074 7.30499724,9.0717236 7.19663244,9.2605868 C7.0874598,9.44944592 7.03327332,9.6693824 7.03327332,9.9204044 C7.03327332,10.1212179 7.1002098,10.3116764 7.23408684,10.4917676 C7.36796184,10.6726585 7.56876924,10.7619044 7.83731484,10.7619044 C8.04688404,10.7619044 8.20388244,10.7284362 8.30906484,10.6614976 C8.41345572,10.5945612 8.49473748,10.5092953 8.55370164,10.4041108 C8.61187428,10.29972 8.6604834,10.1841784 8.69793576,10.0582696 C8.73618576,9.93316052 8.79276312,9.81522404 8.86766988,9.70604324 C8.9346084,9.60563648 9.037404,9.50522972 9.17605668,9.40481684 C9.31471344,9.30441008 9.46771548,9.19284044 9.63505668,9.07172564 C9.80239992,8.95060064 9.97691988,8.81593004 10.1578067,8.66929484 C10.3378999,8.52266984 10.5020567,8.36170364 10.6478759,8.18559044 C10.7945009,8.00948132 10.9140347,7.81265804 11.0064671,7.59511244 C11.098108,7.37756684 11.1451238,7.13054324 11.1451238,6.85322564 C11.1451238,6.40936244 11.0550762,6.02765804 10.8741914,5.71049924 C10.6933006,5.39174924 10.4518502,5.13197564 10.1490326,4.93115804" id="Page-1"></path>
                </g>
            </g>
        </g>
    </g>
</svg>