
<svg width="74px" height="11px" viewBox="0 0 74 11" version="1.1" xmlns="http://www.w3.org/2000/svg" xmlns:xlink="http://www.w3.org/1999/xlink">
    <!-- Generator: Sketch 50.2 (55047) - http://www.bohemiancoding.com/sketch -->
    <desc>Created with Sketch.</desc>
    <defs></defs>
    <g id="Dashboard_light_10x-fonts" stroke="none" stroke-width="1" fill="none" fill-rule="evenodd">
        <g id="EMP100---Thin-menu" transform="translate(-393.000000, -929.000000)" fill="#808895">
            <g id="News" transform="translate(200.000000, 799.000000)">
                <g transform="translate(38.000000, 71.000000)" id="1">
                    <g>
                        <g id="Ratings" transform="translate(103.426573, 58.217391)">
                            <path d="M57.7847408,1.43496513 C57.6691576,1.43904613 57.5686981,1.50297472 57.5330527,1.59546563 L56.2308506,4.98410609 L51.9904669,4.97685176 C51.8705628,4.97685176 51.7636255,5.04168686 51.7269017,5.13735226 C51.6896345,5.23347265 51.7306824,5.33821002 51.8279018,5.39760263 L55.2641225,7.48452695 L53.944637,10.8695693 C53.9073698,10.9652356 53.947878,11.0704268 54.0450965,11.1293668 C54.1417758,11.1887618 54.2735557,11.1887618 54.3702461,11.1293668 L57.7966498,9.03060358 L61.2241596,11.1293668 C61.3208389,11.1887618 61.4526188,11.1887618 61.5493092,11.1293668 C61.6465277,11.0704257 61.6870359,10.9652333 61.6497687,10.8695693 L60.3302832,7.48452695 L63.7665039,5.39760263 C63.8637224,5.3382077 63.9047713,5.23346917 63.8675041,5.13735226 C63.8302368,5.0416857 63.7238304,4.97685176 63.6039388,4.97730443 L59.3635551,4.98455876 L58.0597353,1.5959183 L58.0597353,1.59546447 C58.0213882,1.49617075 57.9090515,1.43087834 57.7848182,1.43496397 L57.7847408,1.43496513 Z" id="Page-1"></path>
                            <path d="M72.994531,1.43496513 C72.8789478,1.43904613 72.7784883,1.50297472 72.7428429,1.59546563 L71.4406408,4.98410609 L67.2002571,4.97685176 C67.080353,4.97685176 66.9734157,5.04168686 66.9366919,5.13735226 C66.8994247,5.23347265 66.9404726,5.33821002 67.037692,5.39760263 L70.4739127,7.48452695 L69.1544272,10.8695693 C69.11716,10.9652356 69.1576682,11.0704268 69.2548867,11.1293668 C69.3515661,11.1887618 69.4833459,11.1887618 69.5800363,11.1293668 L73.00644,9.03060358 L76.4339498,11.1293668 C76.5306291,11.1887618 76.662409,11.1887618 76.7590994,11.1293668 C76.8563179,11.0704257 76.8968261,10.9652333 76.8595589,10.8695693 L75.5400734,7.48452695 L78.9762941,5.39760263 C79.0735126,5.3382077 79.1145615,5.23346917 79.0772943,5.13735226 C79.0400271,5.0416857 78.9336206,4.97685176 78.813729,4.97730443 L74.5733453,4.98455876 L73.2695255,1.5959183 L73.2695255,1.59546447 C73.2311784,1.49617075 73.1188417,1.43087834 72.9946085,1.43496397 L72.994531,1.43496513 Z" id="Page-1"></path>
                            <path d="M88.2043212,1.43496513 C88.088738,1.43904613 87.9882785,1.50297472 87.9526331,1.59546563 L86.650431,4.98410609 L82.4100473,4.97685176 C82.2901433,4.97685176 82.1832059,5.04168686 82.1464821,5.13735226 C82.1092149,5.23347265 82.1502629,5.33821002 82.2474822,5.39760263 L85.6837029,7.48452695 L84.3642174,10.8695693 C84.3269502,10.9652356 84.3674584,11.0704268 84.464677,11.1293668 C84.5613563,11.1887618 84.6931361,11.1887618 84.7898265,11.1293668 L88.2162302,9.03060358 L91.64374,11.1293668 C91.7404194,11.1887618 91.8721992,11.1887618 91.9688896,11.1293668 C92.0661081,11.0704257 92.1066163,10.9652333 92.0693491,10.8695693 L90.7498636,7.48452695 L94.1860843,5.39760263 C94.2833029,5.3382077 94.3243517,5.23346917 94.2870845,5.13735226 C94.2498173,5.0416857 94.1434108,4.97685176 94.0235192,4.97730443 L89.7831355,4.98455876 L88.4793157,1.5959183 L88.4793157,1.59546447 C88.4409686,1.49617075 88.3286319,1.43087834 88.2043987,1.43496397 L88.2043212,1.43496513 Z" id="Page-1"></path>
                            <path d="M103.162423,1.59546563 L101.860221,4.98410609 L97.6198375,4.97685176 C97.4999335,4.97685176 97.3929961,5.04168686 97.3562723,5.13735226 C97.3190051,5.23347265 97.3600531,5.33821002 97.4572725,5.39760263 L100.893493,7.48452695 L99.5740076,10.8695693 C99.5367404,10.9652356 99.5772486,11.0704268 99.6744672,11.1293668 C99.7711465,11.1887618 99.9029263,11.1887618 99.9996167,11.1293668 L103.42602,9.03060358 L106.85353,11.1293668 C106.95021,11.1887618 107.081989,11.1887618 107.17868,11.1293668 C107.275898,11.0704257 107.316407,10.9652333 107.279139,10.8695693 L105.959654,7.48452695 L109.395875,5.39760263 C109.493093,5.3382077 109.534142,5.23346917 109.496875,5.13735226 C109.459607,5.0416857 109.353201,4.97685176 109.233309,4.97730443 L104.992926,4.98455876 L103.689106,1.5959183 C103.650759,1.49617075 103.538422,1.43087834 103.414189,1.43496397 C103.298528,1.43904613 103.198069,1.50297472 103.162423,1.59546563 Z" id="Page-1"></path>
                            <path d="M118.372214,1.59546563 L117.070011,4.98410609 L112.829628,4.97685176 C112.709724,4.97685176 112.602786,5.04168686 112.566062,5.13735226 C112.528795,5.23347265 112.569843,5.33821002 112.667063,5.39760263 L116.103283,7.48452695 L114.783798,10.8695693 C114.746531,10.9652356 114.787039,11.0704268 114.884257,11.1293668 C114.980937,11.1887618 115.112717,11.1887618 115.209407,11.1293668 L118.635811,9.03060358 L122.06332,11.1293668 C122.16,11.1887618 122.29178,11.1887618 122.38847,11.1293668 C122.485689,11.0704257 122.526197,10.9652333 122.48893,10.8695693 L121.169444,7.48452695 L124.605665,5.39760263 C124.702883,5.3382077 124.743932,5.23346917 124.706665,5.13735226 C124.669398,5.0416857 124.562991,4.97685176 124.4431,4.97730443 L120.202716,4.98455876 L118.898896,1.5959183 C118.860549,1.49617075 118.748212,1.43087834 118.623979,1.43496397 C118.508318,1.43904613 118.407859,1.50297472 118.372214,1.59546563 Z" id="Page-1"></path>
                        </g>
                    </g>
                </g>
            </g>
        </g>
    </g>
</svg>