
<svg width="20px" height="15px" viewBox="0 0 20 15" version="1.1" xmlns="http://www.w3.org/2000/svg" xmlns:xlink="http://www.w3.org/1999/xlink">
    <!-- Generator: Sketch 50.2 (55047) - http://www.bohemiancoding.com/sketch -->
    <desc>Created with Sketch.</desc>
    <defs></defs>
    <g id="Dashboard_light_10x-fonts" stroke="none" stroke-width="1" fill="none" fill-rule="evenodd">
        <g id="EMP100---APAC-Overview-Dashboard-Copy" transform="translate(-27.000000, -489.000000)" fill="#808895" stroke="#808895">
            <g id="Member-profile" transform="translate(27.000000, 435.000000)">
                <g id="Funding" transform="translate(1.000000, 55.000000)">
                    <path d="M4.33406931,12.4813069 L0,12.4813069 L0,4.28346535 L4.33406931,4.28346535 L4.33406931,12.4813069 Z M0.585613673,11.8956366 L3.74770297,11.8956366 L3.74843663,4.86977525 L0.585784109,4.86977525 L0.585613673,11.8956366 Z" id="Fill-1" stroke-width="0.4"></path>
                    <polygon id="Fill-2" stroke-width="0.2" points="2.57628713 11.0070762 3.16195743 11.0070762 3.16195743 10.4214059 2.57628713 10.4214059"></polygon>
                    <path d="M10.942495,13.1073663 C10.6654525,13.1073663 10.3935644,13.0581319 10.130499,12.9603985 L5.25991485,11.0079134 L4.04081089,11.0071797 L4.04081089,10.4215094 L5.37233465,10.4215094 L10.341305,12.4136876 C10.5889446,12.5062778 10.8549634,12.5400809 11.1261178,12.5121565 C11.3965386,12.4834985 11.6500663,12.3960515 11.8793267,12.2505585 L18.0063564,8.23535059 C18.1224615,8.14937465 18.1981436,8.02371693 18.2194574,7.88042683 C18.2415031,7.73492822 18.2047597,7.5901595 18.1158453,7.47258525 L18.1062927,7.45935861 C18.0247262,7.35133703 17.9056828,7.27785406 17.7726828,7.25359426 C17.6389416,7.2286102 17.502262,7.25506347 17.3868887,7.32634356 L14.1234036,9.35821297 L13.8140422,8.86073277 L17.0782798,6.82886337 C17.318564,6.67969079 17.6036956,6.62605248 17.8807194,6.67748604 C18.157762,6.72892525 18.4046679,6.88103059 18.5751412,7.10662079 L18.5854275,7.11984931 C18.7691368,7.36382059 18.8462881,7.66509287 18.8007295,7.96711762 C18.7559046,8.26987604 18.5942315,8.53440871 18.3465919,8.71372356 L18.33557,8.72107149 L12.1981938,12.7421111 C11.8880987,12.938319 11.5493344,13.0558933 11.1885225,13.0941002 C11.1047513,13.1029192 11.023183,13.1073268 10.9423502,13.1073268 L10.942495,13.1073663 Z" id="Fill-3" stroke-width="0.2"></path>
                    <path d="M8.61885149,10.1311386 L8.03244752,10.1311386 C8.03244752,9.51975248 8.52992772,9.02227228 9.14131386,9.02227228 L13.426096,9.02227228 C13.7141436,9.02227228 13.9492921,8.78785743 13.9492921,8.49907624 C13.9492921,8.21027624 13.7148772,7.9758802 13.426096,7.9758802 L9.05609604,7.9758802 L7.48942376,6.97283069 C7.16977228,6.76781881 6.82291881,6.61055149 6.45917228,6.50400099 C6.09542574,6.39744861 5.71772079,6.34307099 5.33854851,6.34307099 L4.0408297,6.34380653 L4.0408297,5.75813624 L5.33781485,5.75813624 C5.77357327,5.75813624 6.20566337,5.81986178 6.62304257,5.94258109 C7.04044059,6.06456485 7.43797327,6.2453395 7.80465446,6.48048802 L9.22730297,7.39094545 L13.4261149,7.39094545 C14.037501,7.39094545 14.5349812,7.88842564 14.5349812,8.49981178 C14.5349812,9.11119792 14.037501,9.60867812 13.4261149,9.60867812 L9.14208515,9.60794257 C8.85328515,9.60794257 8.61888911,9.84235743 8.61888911,10.1311386 L8.61885149,10.1311386 Z" id="Fill-4" stroke-width="0.2"></path>
                    <path d="M10.4031584,6.04557426 C9.45447525,6.04557426 8.6836396,5.27398614 8.6836396,4.32532178 C8.6836396,3.37737228 9.45522772,2.60580297 10.4031584,2.60580297 C11.3518416,2.60580297 12.1234109,3.37739109 12.1234109,4.32532178 C12.1241464,5.27327129 11.3518228,6.04557426 10.4031584,6.04557426 Z M10.4031584,3.19143564 C9.77781386,3.19143564 9.2693099,3.6999396 9.2693099,4.32528416 C9.2693099,4.95062871 9.77781386,5.45986634 10.4031584,5.45986634 C11.028503,5.45986634 11.5377406,4.95136238 11.5377406,4.32528416 C11.5377406,3.6999396 11.0292366,3.19143564 10.4031584,3.19143564 Z" id="Fill-5" stroke-width="0.2"></path>
                    <path d="M13.8340693,2.6850198 C13.1102446,2.6850198 12.5216396,2.09641485 12.5216396,1.3725901 C12.5216396,0.64949901 13.1102446,0.0608940594 13.8340693,0.0608940594 C14.5578941,0.0608940594 15.146499,0.64949901 15.146499,1.3725901 C15.146499,2.09641485 14.5578941,2.6850198 13.8340693,2.6850198 Z M13.8340693,0.646564356 C13.4335832,0.646564356 13.1073099,0.97210396 13.1073099,1.3725901 C13.1073099,1.77307624 13.4335832,2.0993495 13.8340693,2.0993495 C14.2345554,2.0993495 14.5608287,1.7738099 14.5608287,1.3725901 C14.5608287,0.97210396 14.2352891,0.646564356 13.8340693,0.646564356 Z" id="Fill-6" stroke-width="0.2"></path>
                </g>
            </g>
        </g>
    </g>
</svg>