
<svg width="18px" height="22px" viewBox="0 0 18 22" version="1.1" xmlns="http://www.w3.org/2000/svg" xmlns:xlink="http://www.w3.org/1999/xlink">
    <!-- Generator: Sketch 50.2 (55047) - http://www.bohemiancoding.com/sketch -->
    <desc>Created with Sketch.</desc>
    <defs></defs>
    <g id="Dashboard_light_10x-fonts" stroke-width="1" fill="none" fill-rule="evenodd" stroke-linecap="round" stroke-linejoin="round">
        <g id="EMP100---Overview-Dashboard" transform="translate(-1761.000000, -28.000000)">
            <g id="Notification" transform="translate(1762.000000, 29.000000)">
                <g id="bell-53">
                    <path d="M11,17 C11,18.7 9.7,20 8,20 C6.3,20 5,18.7 5,17" id="Shape"></path>
                    <path d="M14.2222222,10.7368421 C14.2222222,8.5 14.2222222,6.26315789 14.2222222,6.26315789 C14.2222222,2.77368421 11.4666667,0 8,0 C4.53333333,0 1.77777778,2.77368421 1.77777778,6.26315789 C1.77777778,6.26315789 1.77777778,8.5 1.77777778,10.7368421 C1.77777778,14.3157895 0,17 0,17 L16,17 C16,17 14.2222222,14.3157895 14.2222222,10.7368421 Z" id="Shape"></path>
                </g>
            </g>
        </g>
    </g>
</svg>