
<svg width="16px" height="16px" viewBox="0 0 16 16" version="1.1" xmlns="http://www.w3.org/2000/svg" xmlns:xlink="http://www.w3.org/1999/xlink">
    <!-- Generator: Sketch 50.2 (55047) - http://www.bohemiancoding.com/sketch -->
    <desc>Created with Sketch.</desc>
    <defs></defs>
    <g id="Dashboard_light_10x-fonts" stroke="none" stroke-width="1" fill="none" fill-rule="evenodd">
        <g id="EMP100---APAC-Overview-Dashboard-Copy" transform="translate(-27.000000, -181.000000)" fill="#808895">
            <g id="Financial-capital" transform="translate(27.000000, 149.000000)">
                <g id="Positions" transform="translate(0.000000, 32.000000)">
                    <path d="M8,0 C3.58242008,0 0,3.58242008 0,8 C0,12.4187934 3.58242008,16 8,16 C12.4175799,16 16,12.4175799 16,8 C16,3.58242008 12.4187934,0 8,0 Z M4.07629593,13.5315308 L4.07629593,11.3262296 C4.07629593,9.81414433 5.54214857,8.58767586 7.05541694,8.58767586 L7.90152819,9.62099276 L7.05541694,13.5328656 L7.99987865,14.4974707 L8.94434037,13.5328656 L8.09822912,9.62099276 C8.09822912,9.62099276 8.94315726,8.58767586 8.94315726,8.58767586 C10.4552425,8.58767586 11.9222783,9.81299154 11.9222783,11.3262296 L11.9222783,13.5315308 C11.7871874,13.6429229 10.7621554,14.2484699 10.3687232,14.3942361 L10.3687232,11.6698798 C10.3687232,11.1686322 9.89235145,11.133078 9.89235145,11.133078 L9.89235145,14.5519851 C9.28444124,14.7261825 7.99987865,15.0259907 6.10728452,14.5519851 L6.10728452,11.1321679 C6.10728452,11.1321679 5.63091275,11.1570528 5.63091275,11.6689697 L5.63091275,14.393326 C5.23748057,14.2487551 4.21244549,13.6443821 4.07617459,13.5318342 L4.07629593,13.5315308 Z M8,7.70361382 C6.72016988,7.70361382 5.68330363,6.66671723 5.68330363,5.38691745 C5.68330363,4.10711767 6.72020022,3.07022108 8,3.07022108 C9.27979978,3.07022108 10.3166964,4.10711767 10.3166964,5.38691745 C10.3166964,6.66671723 9.27979978,7.70361382 8,7.70361382 Z M12.8195366,12.8192332 C12.8171673,12.8216025 12.8147981,12.8239748 12.8124258,12.8263441 L12.8124258,11.3261204 C12.8124258,8.96795419 10.6047583,8.02946873 10.0371347,7.86110197 C10.7505244,7.2733351 11.2067529,6.38220469 11.2067529,5.38799135 C11.2067529,3.62114141 9.7693254,2.18265216 8.00141367,2.18265216 C6.23350195,2.18265216 4.79607448,3.62007963 4.79607448,5.38799135 C4.79607448,6.38220469 5.25111979,7.2733351 5.9645095,7.86110197 C5.39688597,8.03055781 3.19040158,8.98803686 3.19040158,11.3273338 L3.19040158,12.8275575 C3.18803231,12.8251883 3.18566304,12.822816 3.18329377,12.8204467 C1.89636373,11.5335179 1.18773683,9.82118236 1.18773683,8.00091009 C1.18773683,6.18063782 1.89636373,4.46824163 3.18329377,3.18137348 C4.47022259,1.89444466 6.18255811,1.18581775 8.00283038,1.18581775 C9.82310265,1.18581775 11.5342854,1.89444466 12.822367,3.18137348 C14.1092958,4.4683023 14.8179227,6.18063782 14.8179227,8.00091009 C14.8167366,9.81990823 14.1068992,11.5323651 12.8200008,12.8192332 L12.8195366,12.8192332 Z" id="Page-1"></path>
                </g>
            </g>
        </g>
    </g>
</svg>