<?xml version="1.0" encoding="UTF-8"?>
<svg width="18px" height="22px" viewBox="0 0 18 22" version="1.1" xmlns="http://www.w3.org/2000/svg" xmlns:xlink="http://www.w3.org/1999/xlink">
	<!-- Generator: Sketch 50.2 (55047) - http://www.bohemiancoding.com/sketch -->
	<title>outline-verified_user-24px</title>
	<desc>Created with Sketch.</desc>
	<defs></defs>
	<g id="Page-1" stroke="none" stroke-width="1" fill="none" fill-rule="evenodd">
		<g id="outline-verified_user-24px" transform="translate(-3.000000, -1.000000)">
			<g id="Bounding_Boxes">
				<polygon id="Shape" points="0 0 24 0 24 24 0 24"></polygon>
			</g>
			<g id="Outline" transform="translate(3.000000, 1.000000)" fill-rule="nonzero">
				<g id="Group">
					<path d="M9,0 L0,4 L0,10 C0,15.55 3.84,20.74 9,22 C14.16,20.74 18,15.55 18,10 L18,4 L9,0 Z M16,10 C16,14.52 13.02,18.69 9,19.93 C4.98,18.69 2,14.52 2,10 L2,5.3 L9,2.19 L16,5.3 L16,10 Z" id="Shape" fill="#323940"></path>
					<polygon id="Shape" fill="#98C73A" points="4.41 10.59 3 12 7 16 15 8 13.59 6.58 7 13.17"></polygon>
				</g>
			</g>
		</g>
	</g>
</svg>