
<svg width="17px" height="17px" viewBox="0 0 17 17" version="1.1" xmlns="http://www.w3.org/2000/svg" xmlns:xlink="http://www.w3.org/1999/xlink">
    <!-- Generator: Sketch 50.2 (55047) - http://www.bohemiancoding.com/sketch -->
    <desc>Created with Sketch.</desc>
    <defs></defs>
    <g id="Dashboard_light_10x-fonts" stroke="none" stroke-width="1" fill="none" fill-rule="evenodd">
        <g id="EMP100---APAC-Overview-Dashboard-Copy" transform="translate(-27.000000, -773.000000)" fill="#808895" stroke="#808895" stroke-width="0.2">
            <g id="Service-center" transform="translate(27.000000, 718.000000)">
                <g id="Informing" transform="translate(1.000000, 55.000000)">
                    <path d="M7.65,0.7 C3.43128,0.7 0,4.13128 0,8.35 C0,12.56872 3.43128,16 7.65,16 C11.86872,16 15.3,12.56872 15.3,8.35 C15.3,4.13128 11.86872,0.7 7.65,0.7 Z M7.65,1.72 C11.31758,1.72 14.28,4.68242 14.28,8.35 C14.28,12.01758 11.31758,14.98 7.65,14.98 C3.98242,14.98 1.02,12.01758 1.02,8.35 C1.02,4.68242 3.98242,1.72 7.65,1.72 Z M7.82,3.08 C7.444147,3.08 7.14,3.384147 7.14,3.76 C7.14,4.135853 7.444147,4.44 7.82,4.44 C8.195853,4.44 8.5,4.135853 8.5,3.76 C8.5,3.384147 8.195853,3.08 7.82,3.08 Z M8.04169811,5.655 L6.6054717,6.17726415 L6.6054717,6.56896226 L7.25830189,6.56896226 L7.25830189,11.7916038 L6.47490566,11.7916038 L6.47490566,12.575 L8.82509434,12.575 L8.82509434,11.7916038 L8.04169811,11.7916038 L8.04169811,5.655 Z" id="Page-1"></path>
                </g>
            </g>
        </g>
    </g>
</svg>