
<svg width="15px" height="16px" viewBox="0 0 15 16" version="1.1" xmlns="http://www.w3.org/2000/svg" xmlns:xlink="http://www.w3.org/1999/xlink">
    <!-- Generator: Sketch 50.2 (55047) - http://www.bohemiancoding.com/sketch -->
    <desc>Created with Sketch.</desc>
    <defs></defs>
    <g id="Dashboard_light_10x-fonts" stroke="none" stroke-width="1" fill-rule="evenodd">
        <g id="EMP100---APAC-Overview-Dashboard-Copy" transform="translate(-28.000000, -205.000000)">
            <g id="Financial-capital" transform="translate(27.000000, 149.000000)">
                <g id="Performance" transform="translate(1.000000, 56.000000)">
                    <g id="Page-1">
                        <path d="M14.25,0 C13.83765,0 13.5,0.343009524 13.5,0.761904762 L13.5,15.2380952 C13.5,15.6569905 13.83765,16 14.25,16 C14.66235,16 15,15.6569905 15,15.2380952 L15,0.761904762 C15,0.343009524 14.66235,0 14.25,0 Z" id="Fill-1"></path>
                        <path d="M5.25,8 C4.83765,8 4.5,8.34300952 4.5,8.76190476 L4.5,15.2380952 C4.5,15.6569905 4.83765,16 5.25,16 C5.66235,16 6,15.6569905 6,15.2380952 L6,8.76190476 C6,8.34300952 5.66235,8 5.25,8 Z" id="Fill-2"></path>
                        <path d="M0.75,5.33333333 C0.33765,5.33333333 0,5.67634286 0,6.0952381 L0,15.2380952 C0,15.6569905 0.33765,16 0.75,16 C1.16235,16 1.5,15.6569905 1.5,15.2380952 L1.5,6.0952381 C1.5,5.67634286 1.16235,5.33333333 0.75,5.33333333 Z" id="Fill-3"></path>
                        <path d="M9.75,2.85714286 C9.33765,2.85714286 9,3.20015238 9,3.61904762 L9,15.2380952 C9,15.6569905 9.33765,16 9.75,16 C10.16235,16 10.5,15.6569905 10.5,15.2380952 L10.5,3.61904762 C10.5,3.20015238 10.16235,2.85714286 9.75,2.85714286 Z" id="Fill-4"></path>
                    </g>
                </g>
            </g>
        </g>
    </g>
</svg>