
<svg width="20px" height="11px" viewBox="0 0 20 11" version="1.1" xmlns="http://www.w3.org/2000/svg" xmlns:xlink="http://www.w3.org/1999/xlink">
    <!-- Generator: Sketch 50.2 (55047) - http://www.bohemiancoding.com/sketch -->
    <desc>Created with Sketch.</desc>
    <defs></defs>
    <g id="Dashboard_light_10x-fonts" stroke="none" stroke-width="1" fill="none" fill-rule="evenodd">
        <g id="EMP100---Overview-Dashboard" transform="translate(-193.000000, -34.000000)" fill="#ABB0BA">
            <g id="Expand/collaps" transform="translate(193.000000, 34.000000)">
                <path d="M0.357142857,0 C0.160435714,0 0,0.156141524 0,0.347583643 C0,0.539025762 0.160435714,0.695167286 0.357142857,0.695167286 L19.6428571,0.695167286 C19.8395643,0.695167286 20,0.539025762 20,0.347583643 C20,0.156141524 19.8395643,0 19.6428571,0 L0.357142857,0 Z M0.357142857,5.15241636 C0.160435714,5.15241636 0,5.30855788 0,5.5 C0,5.69144212 0.160435714,5.84758364 0.357142857,5.84758364 L19.6428571,5.84758364 C19.8395643,5.84758364 20,5.69144212 20,5.5 C20,5.30855788 19.8395643,5.15241636 19.6428571,5.15241636 L0.357142857,5.15241636 Z M0.357142857,10.3048327 C0.160435714,10.3048327 0,10.4609742 0,10.6524164 C0,10.8438585 0.160435714,11 0.357142857,11 L19.6428571,11 C19.8395643,11 20,10.8438585 20,10.6524164 C20,10.4609742 19.8395643,10.3048327 19.6428571,10.3048327 L0.357142857,10.3048327 Z" id="Page-1"></path>
            </g>
        </g>
    </g>
</svg>